G04*
G04 #@! TF.GenerationSoftware,Altium Limited,Altium Designer,20.0.13 (296)*
G04*
G04 Layer_Color=65535*
%FSLAX44Y44*%
%MOMM*%
G71*
G01*
G75*
%ADD10C,0.1500*%
%ADD11C,0.2000*%
%ADD12C,0.3000*%
%ADD13C,0.2500*%
%ADD14C,0.6096*%
%ADD15C,0.1270*%
%ADD16C,0.1520*%
%ADD17C,0.1524*%
%ADD18C,0.2540*%
%ADD19R,2.8000X0.5500*%
D10*
X718487Y51845D02*
G03*
X734400Y51950I7877J12168D01*
G01*
X734512Y82955D02*
G03*
X718600Y82850I-7877J-12168D01*
G01*
X330155Y761488D02*
G03*
X330050Y777400I-12168J7877D01*
G01*
X299046Y777513D02*
G03*
X299150Y761600I12168J-7877D01*
G01*
X219846Y777262D02*
G03*
X219950Y761350I12168J-7877D01*
G01*
X250954Y761237D02*
G03*
X250850Y777150I-12168J7877D01*
G01*
X203762Y472905D02*
G03*
X187850Y472800I-7877J-12168D01*
G01*
X187738Y441796D02*
G03*
X203650Y441900I7877J12168D01*
G01*
X472750Y349500D02*
G03*
X452766Y349576I-10047J-14270D01*
G01*
X452750Y313500D02*
G03*
X472734Y313424I10047J14270D01*
G01*
X214454Y526488D02*
G03*
X214350Y542400I-12168J7877D01*
G01*
X183346Y542513D02*
G03*
X183450Y526600I12168J-7877D01*
G01*
X827405Y389475D02*
G03*
X827300Y405387I-12168J7877D01*
G01*
X796295Y405500D02*
G03*
X796400Y389587I12168J-7877D01*
G01*
X723095Y479762D02*
G03*
X723200Y463850I12168J-7877D01*
G01*
X754204Y463737D02*
G03*
X754100Y479650I-12168J7877D01*
G01*
X583655Y758487D02*
G03*
X583550Y774400I-12168J7877D01*
G01*
X552546Y774512D02*
G03*
X552650Y758600I12168J-7877D01*
G01*
X676155Y607238D02*
G03*
X676050Y623150I-12168J7877D01*
G01*
X645045Y623262D02*
G03*
X645150Y607350I12168J-7877D01*
G01*
X233345Y220012D02*
G03*
X233450Y204100I12168J-7877D01*
G01*
X264454Y203988D02*
G03*
X264350Y219900I-12168J7877D01*
G01*
X310987Y217595D02*
G03*
X326900Y217700I7877J12168D01*
G01*
X327012Y248704D02*
G03*
X311100Y248600I-7877J-12168D01*
G01*
X285095Y647513D02*
G03*
X285200Y631600I12168J-7877D01*
G01*
X316204Y631488D02*
G03*
X316100Y647400I-12168J7877D01*
G01*
X285345Y665263D02*
G03*
X285450Y649350I12168J-7877D01*
G01*
X316455Y649238D02*
G03*
X316350Y665150I-12168J7877D01*
G01*
X267845Y610513D02*
G03*
X267950Y594600I12168J-7877D01*
G01*
X298955Y594487D02*
G03*
X298850Y610400I-12168J7877D01*
G01*
X512654Y551738D02*
G03*
X512550Y567650I-12168J7877D01*
G01*
X481545Y567762D02*
G03*
X481650Y551850I12168J-7877D01*
G01*
X506845Y538512D02*
G03*
X506950Y522600I12168J-7877D01*
G01*
X537954Y522487D02*
G03*
X537850Y538400I-12168J7877D01*
G01*
X607762Y455154D02*
G03*
X591850Y455050I-7877J-12168D01*
G01*
X591738Y424045D02*
G03*
X607650Y424150I7877J12168D01*
G01*
X484095Y374762D02*
G03*
X484200Y358850I12168J-7877D01*
G01*
X515205Y358737D02*
G03*
X515100Y374650I-12168J7877D01*
G01*
X324155Y502738D02*
G03*
X324050Y518650I-12168J7877D01*
G01*
X293046Y518763D02*
G03*
X293150Y502850I12168J-7877D01*
G01*
X284000Y418500D02*
G03*
X283923Y398516I14270J-10047D01*
G01*
X320000Y398500D02*
G03*
X320076Y418484I-14270J10047D01*
G01*
X317404Y383237D02*
G03*
X317300Y399150I-12168J7877D01*
G01*
X286296Y399263D02*
G03*
X286400Y383350I12168J-7877D01*
G01*
X506296Y602262D02*
G03*
X506400Y586350I12168J-7877D01*
G01*
X537405Y586237D02*
G03*
X537300Y602150I-12168J7877D01*
G01*
X439454Y586237D02*
G03*
X439350Y602150I-12168J7877D01*
G01*
X408345Y602262D02*
G03*
X408450Y586350I12168J-7877D01*
G01*
X369238Y553046D02*
G03*
X385150Y553150I7877J12168D01*
G01*
X385262Y584155D02*
G03*
X369350Y584050I-7877J-12168D01*
G01*
X150295Y631263D02*
G03*
X150400Y615350I12168J-7877D01*
G01*
X181405Y615238D02*
G03*
X181300Y631150I-12168J7877D01*
G01*
X246012Y690454D02*
G03*
X230100Y690350I-7877J-12168D01*
G01*
X229988Y659345D02*
G03*
X245900Y659450I7877J12168D01*
G01*
X734500Y52000D02*
Y82750D01*
X718500Y52000D02*
Y82750D01*
X723800Y65850D02*
X729100D01*
X723800Y68650D02*
X729100D01*
X299250Y777500D02*
X330000D01*
X299250Y761500D02*
X330000D01*
X316150Y766800D02*
Y772100D01*
X313350Y766800D02*
Y772100D01*
X220000Y761250D02*
X250750D01*
X220000Y777250D02*
X250750D01*
X233850Y766650D02*
Y771950D01*
X236650Y766650D02*
Y771950D01*
X187750Y442000D02*
Y472750D01*
X203750Y442000D02*
Y472750D01*
X193150Y458900D02*
X198450D01*
X193150Y456100D02*
X198450D01*
X472750Y313500D02*
Y349500D01*
X452750Y313500D02*
Y349500D01*
X458650Y329500D02*
X466750D01*
X458750Y333500D02*
X466750D01*
X200150Y531900D02*
Y537200D01*
X197350Y531900D02*
Y537200D01*
X183500Y542500D02*
X214250D01*
X183500Y526500D02*
X214250D01*
X796500Y405488D02*
X827250D01*
X796500Y389487D02*
X827250D01*
X813400Y394787D02*
Y400087D01*
X810600Y394787D02*
Y400087D01*
X664500Y224500D02*
X695250D01*
Y240500D01*
X664500D02*
X695250D01*
X664500Y224500D02*
Y240500D01*
X677750Y230500D02*
Y234750D01*
X681750D01*
Y230500D02*
Y234750D01*
X677750Y230500D02*
X681750D01*
X731750Y389500D02*
X762500D01*
Y405500D01*
X731750D02*
X762500D01*
X731750Y389500D02*
Y405500D01*
X745000Y395500D02*
Y399750D01*
X749000D01*
Y395500D02*
Y399750D01*
X745000Y395500D02*
X749000D01*
X723250Y463750D02*
X754000D01*
X723250Y479750D02*
X754000D01*
X737100Y469150D02*
Y474450D01*
X739900Y469150D02*
Y474450D01*
X604500Y761750D02*
Y767500D01*
X610000D01*
Y761750D02*
Y767500D01*
X604500Y761750D02*
X610000D01*
X589250Y754500D02*
X625250D01*
X589250D02*
Y774500D01*
X625250Y754500D02*
Y774500D01*
X589250D02*
X625250D01*
X552750D02*
X583500D01*
X552750Y758500D02*
X583500D01*
X569650Y763800D02*
Y769100D01*
X566850Y763800D02*
Y769100D01*
X645250Y623250D02*
X676000D01*
X645250Y607250D02*
X676000D01*
X662150Y612550D02*
Y617850D01*
X659350Y612550D02*
Y617850D01*
X233500Y204000D02*
X264250D01*
X233500Y220000D02*
X264250D01*
X247350Y209400D02*
Y214700D01*
X250150Y209400D02*
Y214700D01*
X327000Y217750D02*
Y248500D01*
X311000Y217750D02*
Y248500D01*
X316300Y231600D02*
X321600D01*
X316300Y234400D02*
X321600D01*
X290000Y272750D02*
X295750D01*
Y267250D02*
Y272750D01*
X290000Y267250D02*
X295750D01*
X290000D02*
Y272750D01*
X282750Y252000D02*
Y288000D01*
X302750D01*
X282750Y252000D02*
X302750D01*
Y288000D01*
X289750Y229500D02*
X295500D01*
X289750D02*
Y235000D01*
X295500D01*
Y229500D02*
Y235000D01*
X302750Y214250D02*
Y250250D01*
X282750Y214250D02*
X302750D01*
X282750Y250250D02*
X302750D01*
X282750Y214250D02*
Y250250D01*
X285250Y631500D02*
X316000D01*
X285250Y647500D02*
X316000D01*
X299100Y636900D02*
Y642200D01*
X301900Y636900D02*
Y642200D01*
X285500Y649250D02*
X316250D01*
X285500Y665250D02*
X316250D01*
X299350Y654650D02*
Y659950D01*
X302150Y654650D02*
Y659950D01*
X268000Y594500D02*
X298750D01*
X268000Y610500D02*
X298750D01*
X281850Y599900D02*
Y605200D01*
X284650Y599900D02*
Y605200D01*
X481750Y567750D02*
X512500D01*
X481750Y551750D02*
X512500D01*
X498650Y557050D02*
Y562350D01*
X495850Y557050D02*
Y562350D01*
X507000Y522500D02*
X537750D01*
X507000Y538500D02*
X537750D01*
X520850Y527900D02*
Y533200D01*
X523650Y527900D02*
Y533200D01*
X591750Y424250D02*
Y455000D01*
X607750Y424250D02*
Y455000D01*
X597150Y441150D02*
X602450D01*
X597150Y438350D02*
X602450D01*
X484250Y358750D02*
X515000D01*
X484250Y374750D02*
X515000D01*
X498100Y364150D02*
Y369450D01*
X500900Y364150D02*
Y369450D01*
X304250Y528750D02*
Y534500D01*
X309750D01*
Y528750D02*
Y534500D01*
X304250Y528750D02*
X309750D01*
X289000Y521500D02*
X325000D01*
X289000D02*
Y541500D01*
X325000Y521500D02*
Y541500D01*
X289000D02*
X325000D01*
X293250Y518750D02*
X324000D01*
X293250Y502750D02*
X324000D01*
X310150Y508050D02*
Y513350D01*
X307350Y508050D02*
Y513350D01*
X284000Y418500D02*
X320000D01*
X284000Y398500D02*
X320000D01*
X304000Y404400D02*
Y412500D01*
X300000Y404500D02*
Y412500D01*
X286500Y399250D02*
X317250D01*
X286500Y383250D02*
X317250D01*
X303400Y388550D02*
Y393850D01*
X300600Y388550D02*
Y393850D01*
X564500Y29000D02*
Y34750D01*
X570000D01*
Y29000D02*
Y34750D01*
X564500Y29000D02*
X570000D01*
X549250Y21750D02*
X585250D01*
X549250D02*
Y41750D01*
X585250Y21750D02*
Y41750D01*
X549250D02*
X585250D01*
X513500Y813250D02*
Y819000D01*
X519000D01*
Y813250D02*
Y819000D01*
X513500Y813250D02*
X519000D01*
X498250Y806000D02*
X534250D01*
X498250D02*
Y826000D01*
X534250Y806000D02*
Y826000D01*
X498250D02*
X534250D01*
X513500Y789750D02*
Y795500D01*
X519000D01*
Y789750D02*
Y795500D01*
X513500Y789750D02*
X519000D01*
X498250Y782500D02*
X534250D01*
X498250D02*
Y802500D01*
X534250Y782500D02*
Y802500D01*
X498250D02*
X534250D01*
X404250Y870500D02*
X440250D01*
Y850500D02*
Y870500D01*
X404250Y850500D02*
Y870500D01*
Y850500D02*
X440250D01*
X419500Y857750D02*
X425000D01*
Y863500D01*
X419500D02*
X425000D01*
X419500Y857750D02*
Y863500D01*
X555500Y840000D02*
X591500D01*
X555500D02*
Y860000D01*
X591500Y840000D02*
Y860000D01*
X555500D02*
X591500D01*
X570750Y852750D02*
X576250D01*
X570750Y847000D02*
Y852750D01*
Y847000D02*
X576250D01*
Y852750D01*
X587750Y500500D02*
X623750D01*
Y480500D02*
Y500500D01*
X587750Y480500D02*
Y500500D01*
Y480500D02*
X623750D01*
X603000Y487750D02*
X608500D01*
Y493500D01*
X603000D02*
X608500D01*
X603000Y487750D02*
Y493500D01*
X388000Y718250D02*
Y754250D01*
X408000D01*
X388000Y718250D02*
X408000D01*
Y754250D01*
X400750Y733500D02*
Y739000D01*
X395000D02*
X400750D01*
X395000Y733500D02*
Y739000D01*
Y733500D02*
X400750D01*
X445500Y721250D02*
Y757250D01*
X465500D01*
X445500Y721250D02*
X465500D01*
Y757250D01*
X458250Y736500D02*
Y742000D01*
X452500D02*
X458250D01*
X452500Y736500D02*
Y742000D01*
Y736500D02*
X458250D01*
X465500Y765750D02*
Y801750D01*
X445500Y765750D02*
X465500D01*
X445500Y801750D02*
X465500D01*
X445500Y765750D02*
Y801750D01*
X452750Y781000D02*
Y786500D01*
Y781000D02*
X458500D01*
Y786500D01*
X452750D02*
X458500D01*
X520600Y591550D02*
Y596850D01*
X523400Y591550D02*
Y596850D01*
X506500Y586250D02*
X537250D01*
X506500Y602250D02*
X537250D01*
X425150Y591650D02*
Y596950D01*
X422350Y591650D02*
Y596950D01*
X408500Y602250D02*
X439250D01*
X408500Y586250D02*
X439250D01*
X374650Y567350D02*
X379950D01*
X374650Y570150D02*
X379950D01*
X385250Y553250D02*
Y584000D01*
X369250Y553250D02*
Y584000D01*
X164600Y620550D02*
Y625850D01*
X167400Y620550D02*
Y625850D01*
X150500Y615250D02*
X181250D01*
X150500Y631250D02*
X181250D01*
X235300Y676150D02*
X240600D01*
X235300Y673350D02*
X240600D01*
X230000Y659500D02*
Y690250D01*
X246000Y659500D02*
Y690250D01*
D11*
X112500Y889600D02*
G03*
X112500Y889600I-1000J0D01*
G01*
X274450Y126800D02*
G03*
X274450Y126800I-1000J0D01*
G01*
X421000Y788250D02*
G03*
X421000Y788250I-1000J0D01*
G01*
X424000Y304250D02*
G03*
X424000Y304250I-1000J0D01*
G01*
X393500Y306500D02*
G03*
X393500Y306500I-1000J0D01*
G01*
X264250Y358650D02*
G03*
X264250Y358650I-1000J0D01*
G01*
X821500Y331000D02*
G03*
X821500Y331000I-50000J0D01*
G01*
X716000Y407250D02*
G03*
X716000Y407250I-50000J0D01*
G01*
X708250Y56000D02*
G03*
X708250Y56000I-50000J0D01*
G01*
X729000Y687400D02*
G03*
X729000Y687400I-1000J0D01*
G01*
X653050Y480250D02*
G03*
X653050Y480250I-1000J0D01*
G01*
X476250Y556650D02*
G03*
X476250Y556650I-1000J0D01*
G01*
X320000Y-4250D02*
G03*
X320000Y-4250I-1000J0D01*
G01*
X271250Y95750D02*
G03*
X271250Y95750I-1000J0D01*
G01*
X471750Y95750D02*
G03*
X471750Y95750I-1000J0D01*
G01*
X38250Y355250D02*
G03*
X38250Y355250I-1000J0D01*
G01*
Y255250D02*
G03*
X38250Y255250I-1000J0D01*
G01*
Y155250D02*
G03*
X38250Y155250I-1000J0D01*
G01*
Y55250D02*
G03*
X38250Y55250I-1000J0D01*
G01*
X516750Y749850D02*
G03*
X516750Y749850I-1000J0D01*
G01*
X178250Y390500D02*
G03*
X178250Y390500I-1000J0D01*
G01*
X171000Y281000D02*
G03*
X171000Y281000I-1000J0D01*
G01*
X170750Y175000D02*
G03*
X170750Y175000I-1000J0D01*
G01*
X170500Y254750D02*
G03*
X170500Y254750I-1000J0D01*
G01*
X171250Y201750D02*
G03*
X171250Y201750I-1000J0D01*
G01*
X171000Y228500D02*
G03*
X171000Y228500I-1000J0D01*
G01*
X274000Y352750D02*
G03*
X274000Y352750I-1000J0D01*
G01*
X67470Y349360D02*
G03*
X67470Y349360I-1000J0D01*
G01*
X183000Y399250D02*
Y401250D01*
X197000Y399250D02*
Y401250D01*
X343250Y307250D02*
X346250D01*
X343250Y316250D02*
X346250D01*
X303750Y335250D02*
Y338250D01*
X294750Y335250D02*
Y338250D01*
X299500Y436500D02*
X302500D01*
X299500Y445500D02*
X302500D01*
X299250Y421500D02*
X302250D01*
X299250Y430500D02*
X302250D01*
X596750Y780750D02*
Y830750D01*
X578750Y780750D02*
Y830750D01*
Y780750D02*
X596750D01*
X578750Y830750D02*
X596750D01*
X299750Y489250D02*
X302750D01*
X299750Y498250D02*
X302750D01*
X208500Y674000D02*
Y677000D01*
X199500Y674000D02*
Y677000D01*
X299750Y461000D02*
X302750D01*
X299750Y470000D02*
X302750D01*
X299750Y475250D02*
X302750D01*
X299750Y484250D02*
X302750D01*
X309000Y570000D02*
Y573000D01*
X300000Y570000D02*
Y573000D01*
X330750Y708000D02*
Y724500D01*
Y741500D02*
Y758000D01*
X219750Y741500D02*
Y758000D01*
Y708000D02*
Y724500D01*
Y758000D02*
X330750D01*
X219750Y708000D02*
X330750D01*
X166750Y712250D02*
X194750D01*
Y718250D01*
X166750Y712250D02*
Y718250D01*
X248250Y674500D02*
X276250D01*
Y680500D01*
X248250Y674500D02*
Y680500D01*
X199250Y646000D02*
Y649000D01*
X190250Y646000D02*
Y649000D01*
X155750Y674750D02*
Y677750D01*
X146750Y674750D02*
Y677750D01*
X146000Y643000D02*
Y646000D01*
X137000Y643000D02*
Y646000D01*
X117500Y674750D02*
Y677750D01*
X126500Y674750D02*
Y677750D01*
X117250Y643000D02*
Y646000D01*
X126250Y643000D02*
Y646000D01*
X391750Y335250D02*
Y338250D01*
X382750Y335250D02*
Y338250D01*
X405935Y335250D02*
Y338250D01*
X396935Y335250D02*
Y338250D01*
X320000Y335250D02*
Y338250D01*
X311000Y335250D02*
Y338250D01*
X334000Y335250D02*
Y338250D01*
X325000Y335250D02*
Y338250D01*
X348250Y335250D02*
Y338250D01*
X339250Y335250D02*
Y338250D01*
X362750Y335250D02*
Y338250D01*
X353750Y335250D02*
Y338250D01*
X420000Y335250D02*
Y338250D01*
X411000Y335250D02*
Y338250D01*
X434000Y335250D02*
Y338250D01*
X425000Y335250D02*
Y338250D01*
X538000Y405250D02*
X588000D01*
X538000Y423250D02*
X588000D01*
X538000Y405250D02*
Y423250D01*
X588000Y405250D02*
Y423250D01*
X181250Y378250D02*
X183250D01*
X181250Y364250D02*
X183250D01*
X794750Y643500D02*
X805750D01*
X794750Y668500D02*
X805750D01*
X342500Y824750D02*
Y846750D01*
X316000Y824750D02*
X342500D01*
X316000D02*
Y847050D01*
X411800Y272850D02*
X437200D01*
Y171250D02*
Y272850D01*
X411800Y171250D02*
Y272850D01*
Y171250D02*
X437200D01*
X344300Y274000D02*
X369700D01*
Y172400D02*
Y274000D01*
X344300Y172400D02*
Y274000D01*
Y172400D02*
X369700D01*
X216550Y391250D02*
X241950D01*
X216550D02*
Y492850D01*
X241950Y391250D02*
Y492850D01*
X216550D02*
X241950D01*
X830250Y327500D02*
Y334500D01*
X826750Y331000D02*
X833750D01*
X603750Y407250D02*
X610750D01*
X607250Y403750D02*
Y410750D01*
X599500Y52500D02*
Y59500D01*
X596000Y56000D02*
X603000D01*
X558500Y123500D02*
X581000D01*
Y227500D01*
X558500D02*
X581000D01*
X545500Y89250D02*
Y108250D01*
X568500Y89250D02*
Y108250D01*
X545500D02*
X568500D01*
X549500Y47250D02*
X564500D01*
X545500Y52250D02*
Y69250D01*
X564500Y47250D02*
X568500Y52250D01*
X545500D02*
X549500Y47250D01*
X568500Y52250D02*
Y69250D01*
X216550Y244600D02*
X241950D01*
X216550D02*
Y346200D01*
X241950Y244600D02*
Y346200D01*
X216550D02*
X241950D01*
X558300Y497600D02*
X583700D01*
X558300D02*
Y624600D01*
X583700Y497600D02*
Y624600D01*
X558300D02*
X583700D01*
X354100Y847050D02*
Y872450D01*
X277900Y847050D02*
Y872450D01*
X354100D01*
X277900Y847050D02*
X354100D01*
X585500Y686550D02*
Y711950D01*
X483900Y686550D02*
X585500D01*
X483900Y711950D02*
X585500D01*
X483900Y686550D02*
Y711950D01*
X417500Y655250D02*
X528500D01*
X417500Y605250D02*
X528500D01*
Y638750D02*
Y655250D01*
Y605250D02*
Y621750D01*
X417500Y605250D02*
Y621750D01*
Y638750D02*
Y655250D01*
X245000Y554250D02*
Y557250D01*
X254000Y554250D02*
Y557250D01*
X223500Y554250D02*
Y557250D01*
X232500Y554250D02*
Y557250D01*
X222500Y573750D02*
X225500D01*
X222500Y582750D02*
X225500D01*
X194250D02*
X197250D01*
X194250Y573750D02*
X197250D01*
X280000D02*
X283000D01*
X280000Y582750D02*
X283000D01*
X251750D02*
X254750D01*
X251750Y573750D02*
X254750D01*
X192250Y261747D02*
Y251750D01*
X197248D01*
X198915Y253416D01*
Y255082D01*
X197248Y256748D01*
X192250D01*
X197248D01*
X198915Y258414D01*
Y260081D01*
X197248Y261747D01*
X192250D01*
X202247Y260081D02*
X203913Y261747D01*
X207245D01*
X208911Y260081D01*
Y258414D01*
X207245Y256748D01*
X205579D01*
X207245D01*
X208911Y255082D01*
Y253416D01*
X207245Y251750D01*
X203913D01*
X202247Y253416D01*
X192250Y312997D02*
Y303000D01*
X197248D01*
X198915Y304666D01*
Y306332D01*
X197248Y307998D01*
X192250D01*
X197248D01*
X198915Y309664D01*
Y311331D01*
X197248Y312997D01*
X192250D01*
X208911Y303000D02*
X202247D01*
X208911Y309664D01*
Y311331D01*
X207245Y312997D01*
X203913D01*
X202247Y311331D01*
X192250Y287372D02*
Y277375D01*
X197248D01*
X198915Y279041D01*
Y280707D01*
X197248Y282373D01*
X192250D01*
X197248D01*
X198915Y284039D01*
Y285706D01*
X197248Y287372D01*
X192250D01*
X202247Y277375D02*
X205579D01*
X203913D01*
Y287372D01*
X202247Y285706D01*
X105503Y402000D02*
X115500D01*
Y406998D01*
X113834Y408665D01*
X112168D01*
X110502Y406998D01*
Y402000D01*
Y406998D01*
X108835Y408665D01*
X107169D01*
X105503Y406998D01*
Y402000D01*
X115500Y418661D02*
Y411997D01*
X108835Y418661D01*
X107169D01*
X105503Y416995D01*
Y413663D01*
X107169Y411997D01*
X104503Y347000D02*
X114500D01*
Y351998D01*
X112834Y353665D01*
X111168D01*
X109502Y351998D01*
Y347000D01*
Y351998D01*
X107836Y353665D01*
X106169D01*
X104503Y351998D01*
Y347000D01*
X114500Y356997D02*
Y360329D01*
Y358663D01*
X104503D01*
X106169Y356997D01*
X113000Y301750D02*
X106335D01*
X103003Y305082D01*
X106335Y308414D01*
X113000D01*
X108002D01*
Y301750D01*
X113000Y311747D02*
Y315079D01*
Y313413D01*
X103003D01*
X104669Y311747D01*
X115250Y238250D02*
X108586D01*
X105253Y241582D01*
X108586Y244914D01*
X115250D01*
X110252D01*
Y238250D01*
X115250Y254911D02*
Y248247D01*
X108586Y254911D01*
X106919D01*
X105253Y253245D01*
Y249913D01*
X106919Y248247D01*
X105253Y200500D02*
X115250D01*
Y205498D01*
X113584Y207164D01*
X111918D01*
X110252Y205498D01*
Y200500D01*
Y205498D01*
X108586Y207164D01*
X106919D01*
X105253Y205498D01*
Y200500D01*
X106919Y210497D02*
X105253Y212163D01*
Y215495D01*
X106919Y217161D01*
X108586D01*
X110252Y215495D01*
Y213829D01*
Y215495D01*
X111918Y217161D01*
X113584D01*
X115250Y215495D01*
Y212163D01*
X113584Y210497D01*
X114250Y147750D02*
X104253D01*
Y152748D01*
X105919Y154415D01*
X109252D01*
X110918Y152748D01*
Y147750D01*
X104253Y157747D02*
X114250D01*
Y164411D01*
Y97500D02*
X107585D01*
X104253Y100832D01*
X107585Y104164D01*
X114250D01*
X109252D01*
Y97500D01*
X105919Y107497D02*
X104253Y109163D01*
Y112495D01*
X105919Y114161D01*
X112584D01*
X114250Y112495D01*
Y109163D01*
X112584Y107497D01*
X105919D01*
X671250Y341248D02*
X677915D01*
X674582Y344581D02*
Y337916D01*
X687911Y346247D02*
X681247D01*
Y341248D01*
X684579Y342915D01*
X686245D01*
X687911Y341248D01*
Y337916D01*
X686245Y336250D01*
X682913D01*
X681247Y337916D01*
X691244Y342915D02*
X694576Y336250D01*
X697908Y342915D01*
X713752Y284750D02*
Y291415D01*
X710419Y288082D02*
X717084D01*
X710419Y294747D02*
X708753Y296413D01*
Y299745D01*
X710419Y301411D01*
X712085D01*
X713752Y299745D01*
Y298079D01*
Y299745D01*
X715418Y301411D01*
X717084D01*
X718750Y299745D01*
Y296413D01*
X717084Y294747D01*
X712085Y304744D02*
X718750Y308076D01*
X712085Y311408D01*
X215750Y363497D02*
Y353500D01*
X220748D01*
X222414Y355166D01*
Y356832D01*
X220748Y358498D01*
X215750D01*
X220748D01*
X222414Y360164D01*
Y361831D01*
X220748Y363497D01*
X215750D01*
X225747Y353500D02*
Y363497D01*
X232411Y353500D01*
Y363497D01*
X235744D02*
X242408D01*
X239076D01*
Y353500D01*
X223165Y510497D02*
X216500D01*
Y500500D01*
X223165D01*
X216500Y505498D02*
X219832D01*
X226497Y500500D02*
Y510497D01*
X233161Y500500D01*
Y510497D01*
X243158Y508831D02*
X241492Y510497D01*
X238160D01*
X236494Y508831D01*
Y502166D01*
X238160Y500500D01*
X241492D01*
X243158Y502166D01*
X527000Y727997D02*
Y718000D01*
X533665D01*
X543661Y726331D02*
X541995Y727997D01*
X538663D01*
X536997Y726331D01*
Y719666D01*
X538663Y718000D01*
X541995D01*
X543661Y719666D01*
X593169Y562415D02*
X591503Y560748D01*
Y557416D01*
X593169Y555750D01*
X594836D01*
X596502Y557416D01*
Y560748D01*
X598168Y562415D01*
X599834D01*
X601500Y560748D01*
Y557416D01*
X599834Y555750D01*
X591503Y565747D02*
X601500D01*
X598168Y569079D01*
X601500Y572411D01*
X591503D01*
Y575744D02*
X601500D01*
Y580742D01*
X599834Y582408D01*
X593169D01*
X591503Y580742D01*
Y575744D01*
X444503Y218915D02*
Y212250D01*
X449502D01*
Y215582D01*
Y212250D01*
X454500D01*
Y222247D02*
Y225579D01*
Y223913D01*
X444503D01*
X446169Y222247D01*
X377253Y219415D02*
Y212750D01*
X382252D01*
Y216082D01*
Y212750D01*
X387250D01*
Y229411D02*
Y222747D01*
X380586Y229411D01*
X378919D01*
X377253Y227745D01*
Y224413D01*
X378919Y222747D01*
X748334Y70332D02*
X746668Y71998D01*
X743335D01*
X741669Y70332D01*
Y63668D01*
X743335Y62002D01*
X746668D01*
X748334Y63668D01*
X758331Y62002D02*
X751666D01*
X758331Y68666D01*
Y70332D01*
X756665Y71998D01*
X753332D01*
X751666Y70332D01*
X674165Y379168D02*
X675831Y377502D01*
X679163D01*
X680829Y379168D01*
Y385832D01*
X679163Y387498D01*
X675831D01*
X674165Y385832D01*
X670832Y379168D02*
X669166Y377502D01*
X665834D01*
X664168Y379168D01*
Y380834D01*
X665834Y382500D01*
X667500D01*
X665834D01*
X664168Y384166D01*
Y385832D01*
X665834Y387498D01*
X669166D01*
X670832Y385832D01*
X654171Y377502D02*
X660835D01*
Y382500D01*
X657503Y380834D01*
X655837D01*
X654171Y382500D01*
Y385832D01*
X655837Y387498D01*
X659169D01*
X660835Y385832D01*
X134421Y365502D02*
Y375498D01*
X139419D01*
X141086Y373832D01*
Y370500D01*
X139419Y368834D01*
X134421D01*
X137753D02*
X141086Y365502D01*
X149416D02*
Y375498D01*
X144418Y370500D01*
X151082D01*
X154415Y373832D02*
X156081Y375498D01*
X159413D01*
X161079Y373832D01*
Y372166D01*
X159413Y370500D01*
X161079Y368834D01*
Y367168D01*
X159413Y365502D01*
X156081D01*
X154415Y367168D01*
Y368834D01*
X156081Y370500D01*
X154415Y372166D01*
Y373832D01*
X156081Y370500D02*
X159413D01*
X195248Y329921D02*
X185252D01*
Y334919D01*
X186918Y336586D01*
X190250D01*
X191916Y334919D01*
Y329921D01*
Y333253D02*
X195248Y336586D01*
Y344916D02*
X185252D01*
X190250Y339918D01*
Y346582D01*
X185252Y349915D02*
Y356579D01*
X186918D01*
X193582Y349915D01*
X195248D01*
X106502Y376335D02*
Y373002D01*
Y374669D01*
X114832D01*
X116498Y373002D01*
Y371336D01*
X114832Y369670D01*
X116498Y379667D02*
Y382999D01*
Y381333D01*
X106502D01*
X108168Y379667D01*
X116498Y387998D02*
Y391330D01*
Y389664D01*
X106502D01*
X108168Y387998D01*
X105252Y269669D02*
Y266336D01*
Y268002D01*
X113582D01*
X115248Y266336D01*
Y264670D01*
X113582Y263004D01*
X115248Y273001D02*
Y276333D01*
Y274667D01*
X105252D01*
X106918Y273001D01*
Y281332D02*
X105252Y282998D01*
Y286330D01*
X106918Y287996D01*
X113582D01*
X115248Y286330D01*
Y282998D01*
X113582Y281332D01*
X106918D01*
X105752Y177834D02*
Y174502D01*
Y176168D01*
X114082D01*
X115748Y174502D01*
Y172836D01*
X114082Y171169D01*
Y181166D02*
X115748Y182832D01*
Y186164D01*
X114082Y187831D01*
X107418D01*
X105752Y186164D01*
Y182832D01*
X107418Y181166D01*
X109084D01*
X110750Y182832D01*
Y187831D01*
X145240Y427252D02*
Y433917D01*
X143574Y435583D01*
X140242D01*
X138576Y433917D01*
Y427252D01*
X140242Y425586D01*
X143574D01*
X141908Y428918D02*
X145240Y425586D01*
X143574D02*
X145240Y427252D01*
X148573Y433917D02*
X150239Y435583D01*
X153571D01*
X155237Y433917D01*
Y432251D01*
X153571Y430584D01*
X151905D01*
X153571D01*
X155237Y428918D01*
Y427252D01*
X153571Y425586D01*
X150239D01*
X148573Y427252D01*
X408669Y465998D02*
Y457668D01*
X410336Y456002D01*
X413668D01*
X415334Y457668D01*
Y465998D01*
X418666Y464332D02*
X420332Y465998D01*
X423665D01*
X425331Y464332D01*
Y462666D01*
X423665Y461000D01*
X421998D01*
X423665D01*
X425331Y459334D01*
Y457668D01*
X423665Y456002D01*
X420332D01*
X418666Y457668D01*
X576836Y299648D02*
Y291318D01*
X578502Y289652D01*
X581834D01*
X583500Y291318D01*
Y299648D01*
X586832Y289652D02*
X590164D01*
X588498D01*
Y299648D01*
X586832Y297982D01*
X258921Y528002D02*
Y537998D01*
X263919D01*
X265585Y536332D01*
Y533000D01*
X263919Y531334D01*
X258921D01*
X262253D02*
X265585Y528002D01*
X275582D02*
X268918D01*
X275582Y534666D01*
Y536332D01*
X273916Y537998D01*
X270584D01*
X268918Y536332D01*
X285579Y537998D02*
X278915D01*
Y533000D01*
X282247Y534666D01*
X283913D01*
X285579Y533000D01*
Y529668D01*
X283913Y528002D01*
X280581D01*
X278915Y529668D01*
X277748Y258921D02*
X267752D01*
Y263919D01*
X269418Y265585D01*
X272750D01*
X274416Y263919D01*
Y258921D01*
Y262253D02*
X277748Y265585D01*
Y275582D02*
Y268918D01*
X271084Y275582D01*
X269418D01*
X267752Y273916D01*
Y270584D01*
X269418Y268918D01*
X277748Y283913D02*
X267752D01*
X272750Y278915D01*
Y285579D01*
X588876Y508454D02*
Y518451D01*
X593874D01*
X595541Y516785D01*
Y513452D01*
X593874Y511786D01*
X588876D01*
X592208D02*
X595541Y508454D01*
X598873D02*
X602205D01*
X600539D01*
Y518451D01*
X598873Y516785D01*
X613868Y508454D02*
X607203D01*
X613868Y515118D01*
Y516785D01*
X612202Y518451D01*
X608870D01*
X607203Y516785D01*
X278248Y223669D02*
X268252D01*
Y228668D01*
X269918Y230334D01*
X273250D01*
X274916Y228668D01*
Y223669D01*
Y227002D02*
X278248Y230334D01*
X276582Y233666D02*
X278248Y235332D01*
Y238664D01*
X276582Y240331D01*
X269918D01*
X268252Y238664D01*
Y235332D01*
X269918Y233666D01*
X271584D01*
X273250Y235332D01*
Y240331D01*
X598169Y739252D02*
Y749248D01*
X603168D01*
X604834Y747582D01*
Y744250D01*
X603168Y742584D01*
X598169D01*
X601502D02*
X604834Y739252D01*
X608166Y747582D02*
X609832Y749248D01*
X613164D01*
X614831Y747582D01*
Y745916D01*
X613164Y744250D01*
X614831Y742584D01*
Y740918D01*
X613164Y739252D01*
X609832D01*
X608166Y740918D01*
Y742584D01*
X609832Y744250D01*
X608166Y745916D01*
Y747582D01*
X609832Y744250D02*
X613164D01*
X556656Y867830D02*
Y877827D01*
X561654D01*
X563321Y876161D01*
Y872828D01*
X561654Y871162D01*
X556656D01*
X559988D02*
X563321Y867830D01*
X566653Y877827D02*
X573317D01*
Y876161D01*
X566653Y869496D01*
Y867830D01*
X559419Y6752D02*
Y16748D01*
X564418D01*
X566084Y15082D01*
Y11750D01*
X564418Y10084D01*
X559419D01*
X562752D02*
X566084Y6752D01*
X576081Y16748D02*
X572748Y15082D01*
X569416Y11750D01*
Y8418D01*
X571082Y6752D01*
X574414D01*
X576081Y8418D01*
Y10084D01*
X574414Y11750D01*
X569416D01*
X507669Y766002D02*
Y775998D01*
X512668D01*
X514334Y774332D01*
Y771000D01*
X512668Y769334D01*
X507669D01*
X511002D02*
X514334Y766002D01*
X524331Y775998D02*
X517666D01*
Y771000D01*
X520998Y772666D01*
X522664D01*
X524331Y771000D01*
Y767668D01*
X522664Y766002D01*
X519332D01*
X517666Y767668D01*
X507419Y834002D02*
Y843998D01*
X512418D01*
X514084Y842332D01*
Y839000D01*
X512418Y837334D01*
X507419D01*
X510752D02*
X514084Y834002D01*
X522415D02*
Y843998D01*
X517416Y839000D01*
X524081D01*
X405442Y878333D02*
Y888329D01*
X410440D01*
X412106Y886663D01*
Y883331D01*
X410440Y881665D01*
X405442D01*
X408774D02*
X412106Y878333D01*
X415438Y886663D02*
X417104Y888329D01*
X420437D01*
X422103Y886663D01*
Y884997D01*
X420437Y883331D01*
X418770D01*
X420437D01*
X422103Y881665D01*
Y879999D01*
X420437Y878333D01*
X417104D01*
X415438Y879999D01*
X639419Y226502D02*
Y236498D01*
X644418D01*
X646084Y234832D01*
Y231500D01*
X644418Y229834D01*
X639419D01*
X642752D02*
X646084Y226502D01*
X656081D02*
X649416D01*
X656081Y233166D01*
Y234832D01*
X654415Y236498D01*
X651082D01*
X649416Y234832D01*
X738335Y411752D02*
Y421748D01*
X743334D01*
X745000Y420082D01*
Y416750D01*
X743334Y415084D01*
X738335D01*
X741668D02*
X745000Y411752D01*
X748332D02*
X751665D01*
X749998D01*
Y421748D01*
X748332Y420082D01*
X823248Y192164D02*
X813252D01*
Y185500D01*
Y182168D02*
Y178835D01*
Y180501D01*
X823248D01*
X821582Y182168D01*
X295584Y105248D02*
X292252D01*
X293918D01*
Y96918D01*
X292252Y95252D01*
X290585D01*
X288919Y96918D01*
X298916Y103582D02*
X300582Y105248D01*
X303915D01*
X305581Y103582D01*
Y101916D01*
X303915Y100250D01*
X302248D01*
X303915D01*
X305581Y98584D01*
Y96918D01*
X303915Y95252D01*
X300582D01*
X298916Y96918D01*
X55498Y793166D02*
Y796498D01*
Y794832D01*
X47168D01*
X45502Y796498D01*
Y798165D01*
X47168Y799831D01*
X45502Y783169D02*
Y789834D01*
X52166Y783169D01*
X53832D01*
X55498Y784835D01*
Y788168D01*
X53832Y789834D01*
X781248Y786750D02*
Y790082D01*
Y788416D01*
X772918D01*
X771252Y790082D01*
Y791748D01*
X772918Y793415D01*
X771252Y783418D02*
Y780085D01*
Y781751D01*
X781248D01*
X779582Y783418D01*
X683172Y552498D02*
X686504D01*
X684838D01*
Y542502D01*
X683172D01*
X686504D01*
X698167Y550832D02*
X696501Y552498D01*
X693169D01*
X691502Y550832D01*
Y549166D01*
X693169Y547500D01*
X696501D01*
X698167Y545834D01*
Y544168D01*
X696501Y542502D01*
X693169D01*
X691502Y544168D01*
X706498Y552498D02*
X703165D01*
X701499Y550832D01*
Y544168D01*
X703165Y542502D01*
X706498D01*
X708164Y544168D01*
Y550832D01*
X706498Y552498D01*
X711496Y542502D02*
X714828D01*
X713162D01*
Y552498D01*
X711496Y550832D01*
X426752Y790919D02*
X436748D01*
Y795918D01*
X435082Y797584D01*
X428418D01*
X426752Y795918D01*
Y790919D01*
Y800916D02*
Y807581D01*
X428418D01*
X435082Y800916D01*
X436748D01*
X437419Y60498D02*
Y50502D01*
X442418D01*
X444084Y52168D01*
Y58832D01*
X442418Y60498D01*
X437419D01*
X454081D02*
X450748Y58832D01*
X447416Y55500D01*
Y52168D01*
X449082Y50502D01*
X452415D01*
X454081Y52168D01*
Y53834D01*
X452415Y55500D01*
X447416D01*
X661419Y168248D02*
Y158252D01*
X666418D01*
X668084Y159918D01*
Y166582D01*
X666418Y168248D01*
X661419D01*
X678081Y158252D02*
X671416D01*
X678081Y164916D01*
Y166582D01*
X676414Y168248D01*
X673082D01*
X671416Y166582D01*
X772956Y634269D02*
Y624272D01*
X777954D01*
X779621Y625938D01*
Y632603D01*
X777954Y634269D01*
X772956D01*
X782953Y624272D02*
X786285D01*
X784619D01*
Y634269D01*
X782953Y632603D01*
X229335Y792082D02*
X227669Y793748D01*
X224337D01*
X222671Y792082D01*
Y785418D01*
X224337Y783752D01*
X227669D01*
X229335Y785418D01*
X232668Y792082D02*
X234334Y793748D01*
X237666D01*
X239332Y792082D01*
Y790416D01*
X237666Y788750D01*
X236000D01*
X237666D01*
X239332Y787084D01*
Y785418D01*
X237666Y783752D01*
X234334D01*
X232668Y785418D01*
X247663Y783752D02*
Y793748D01*
X242665Y788750D01*
X249329D01*
X307836Y791832D02*
X306169Y793498D01*
X302837D01*
X301171Y791832D01*
Y785168D01*
X302837Y783502D01*
X306169D01*
X307836Y785168D01*
X311168Y791832D02*
X312834Y793498D01*
X316166D01*
X317832Y791832D01*
Y790166D01*
X316166Y788500D01*
X314500D01*
X316166D01*
X317832Y786834D01*
Y785168D01*
X316166Y783502D01*
X312834D01*
X311168Y785168D01*
X321165Y791832D02*
X322831Y793498D01*
X326163D01*
X327829Y791832D01*
Y790166D01*
X326163Y788500D01*
X324497D01*
X326163D01*
X327829Y786834D01*
Y785168D01*
X326163Y783502D01*
X322831D01*
X321165Y785168D01*
X330752Y661332D02*
X329086Y662998D01*
X325753D01*
X324087Y661332D01*
Y654668D01*
X325753Y653002D01*
X329086D01*
X330752Y654668D01*
X334084Y661332D02*
X335750Y662998D01*
X339082D01*
X340748Y661332D01*
Y659666D01*
X339082Y658000D01*
X337416D01*
X339082D01*
X340748Y656334D01*
Y654668D01*
X339082Y653002D01*
X335750D01*
X334084Y654668D01*
X344081Y653002D02*
X347413D01*
X345747D01*
Y662998D01*
X344081Y661332D01*
X330835Y642832D02*
X329169Y644498D01*
X325837D01*
X324171Y642832D01*
Y636168D01*
X325837Y634502D01*
X329169D01*
X330835Y636168D01*
X334168Y642832D02*
X335834Y644498D01*
X339166D01*
X340832Y642832D01*
Y641166D01*
X339166Y639500D01*
X337500D01*
X339166D01*
X340832Y637834D01*
Y636168D01*
X339166Y634502D01*
X335834D01*
X334168Y636168D01*
X344165Y642832D02*
X345831Y644498D01*
X349163D01*
X350829Y642832D01*
Y636168D01*
X349163Y634502D01*
X345831D01*
X344165Y636168D01*
Y642832D01*
X192168Y487585D02*
X190502Y485919D01*
Y482587D01*
X192168Y480921D01*
X198832D01*
X200498Y482587D01*
Y485919D01*
X198832Y487585D01*
X200498Y497582D02*
Y490918D01*
X193834Y497582D01*
X192168D01*
X190502Y495916D01*
Y492584D01*
X192168Y490918D01*
Y500914D02*
X190502Y502581D01*
Y505913D01*
X192168Y507579D01*
X193834D01*
X195500Y505913D01*
X197166Y507579D01*
X198832D01*
X200498Y505913D01*
Y502581D01*
X198832Y500914D01*
X197166D01*
X195500Y502581D01*
X193834Y500914D01*
X192168D01*
X195500Y502581D02*
Y505913D01*
X195513Y558757D02*
X193846Y560423D01*
X190514D01*
X188848Y558757D01*
Y552092D01*
X190514Y550426D01*
X193846D01*
X195513Y552092D01*
X205509Y550426D02*
X198845D01*
X205509Y557090D01*
Y558757D01*
X203843Y560423D01*
X200511D01*
X198845Y558757D01*
X208842Y560423D02*
X215506D01*
Y558757D01*
X208842Y552092D01*
Y550426D01*
X264835Y513082D02*
X263169Y514748D01*
X259837D01*
X258171Y513082D01*
Y506418D01*
X259837Y504752D01*
X263169D01*
X264835Y506418D01*
X274832Y504752D02*
X268168D01*
X274832Y511416D01*
Y513082D01*
X273166Y514748D01*
X269834D01*
X268168Y513082D01*
X278165D02*
X279831Y514748D01*
X283163D01*
X284829Y513082D01*
Y506418D01*
X283163Y504752D01*
X279831D01*
X278165Y506418D01*
Y513082D01*
X295168Y376832D02*
X293502Y378498D01*
X290170D01*
X288504Y376832D01*
Y370168D01*
X290170Y368502D01*
X293502D01*
X295168Y370168D01*
X298501Y368502D02*
X301833D01*
X300167D01*
Y378498D01*
X298501Y376832D01*
X306831Y370168D02*
X308498Y368502D01*
X311830D01*
X313496Y370168D01*
Y376832D01*
X311830Y378498D01*
X308498D01*
X306831Y376832D01*
Y375166D01*
X308498Y373500D01*
X313496D01*
X481669Y581582D02*
X480002Y583248D01*
X476670D01*
X475004Y581582D01*
Y574918D01*
X476670Y573252D01*
X480002D01*
X481669Y574918D01*
X485001Y573252D02*
X488333D01*
X486667D01*
Y583248D01*
X485001Y581582D01*
X499996Y583248D02*
X496664Y581582D01*
X493331Y578250D01*
Y574918D01*
X494998Y573252D01*
X498330D01*
X499996Y574918D01*
Y576584D01*
X498330Y578250D01*
X493331D01*
X482918Y323168D02*
X481252Y321502D01*
Y318170D01*
X482918Y316504D01*
X489582D01*
X491248Y318170D01*
Y321502D01*
X489582Y323168D01*
X491248Y326501D02*
Y329833D01*
Y328167D01*
X481252D01*
X482918Y326501D01*
X491248Y339830D02*
X481252D01*
X486250Y334831D01*
Y341496D01*
X531669Y369582D02*
X530002Y371248D01*
X526670D01*
X525004Y369582D01*
Y362918D01*
X526670Y361252D01*
X530002D01*
X531669Y362918D01*
X535001Y361252D02*
X538333D01*
X536667D01*
Y371248D01*
X535001Y369582D01*
X543331D02*
X544998Y371248D01*
X548330D01*
X549996Y369582D01*
Y367916D01*
X548330Y366250D01*
X546664D01*
X548330D01*
X549996Y364584D01*
Y362918D01*
X548330Y361252D01*
X544998D01*
X543331Y362918D01*
X527668Y553332D02*
X526002Y554998D01*
X522670D01*
X521004Y553332D01*
Y546668D01*
X522670Y545002D01*
X526002D01*
X527668Y546668D01*
X531001Y545002D02*
X534333D01*
X532667D01*
Y554998D01*
X531001Y553332D01*
X545996Y545002D02*
X539332D01*
X545996Y551666D01*
Y553332D01*
X544330Y554998D01*
X540998D01*
X539332Y553332D01*
X622332Y461415D02*
X623998Y463081D01*
Y466414D01*
X622332Y468080D01*
X615668D01*
X614002Y466414D01*
Y463081D01*
X615668Y461415D01*
X614002Y458083D02*
Y454751D01*
Y456417D01*
X623998D01*
X622332Y458083D01*
X614002Y449752D02*
Y446420D01*
Y448086D01*
X623998D01*
X622332Y449752D01*
X205669Y213832D02*
X204002Y215498D01*
X200670D01*
X199004Y213832D01*
Y207168D01*
X200670Y205502D01*
X204002D01*
X205669Y207168D01*
X209001Y205502D02*
X212333D01*
X210667D01*
Y215498D01*
X209001Y213832D01*
X217331D02*
X218998Y215498D01*
X222330D01*
X223996Y213832D01*
Y207168D01*
X222330Y205502D01*
X218998D01*
X217331Y207168D01*
Y213832D01*
X316168Y262084D02*
X314502Y260418D01*
Y257085D01*
X316168Y255419D01*
X322832D01*
X324498Y257085D01*
Y260418D01*
X322832Y262084D01*
Y265416D02*
X324498Y267082D01*
Y270415D01*
X322832Y272081D01*
X316168D01*
X314502Y270415D01*
Y267082D01*
X316168Y265416D01*
X317834D01*
X319500Y267082D01*
Y272081D01*
X565334Y751582D02*
X563668Y753248D01*
X560336D01*
X558669Y751582D01*
Y744918D01*
X560336Y743252D01*
X563668D01*
X565334Y744918D01*
X568666Y751582D02*
X570332Y753248D01*
X573665D01*
X575331Y751582D01*
Y749916D01*
X573665Y748250D01*
X575331Y746584D01*
Y744918D01*
X573665Y743252D01*
X570332D01*
X568666Y744918D01*
Y746584D01*
X570332Y748250D01*
X568666Y749916D01*
Y751582D01*
X570332Y748250D02*
X573665D01*
X624834Y618082D02*
X623168Y619748D01*
X619836D01*
X618169Y618082D01*
Y611418D01*
X619836Y609752D01*
X623168D01*
X624834Y611418D01*
X628166Y619748D02*
X634831D01*
Y618082D01*
X628166Y611418D01*
Y609752D01*
X737084Y454082D02*
X735418Y455748D01*
X732085D01*
X730419Y454082D01*
Y447418D01*
X732085Y445752D01*
X735418D01*
X737084Y447418D01*
X747081Y455748D02*
X743748Y454082D01*
X740416Y450750D01*
Y447418D01*
X742082Y445752D01*
X745415D01*
X747081Y447418D01*
Y449084D01*
X745415Y450750D01*
X740416D01*
X778334Y401082D02*
X776668Y402748D01*
X773335D01*
X771669Y401082D01*
Y394418D01*
X773335Y392752D01*
X776668D01*
X778334Y394418D01*
X786665Y392752D02*
Y402748D01*
X781666Y397750D01*
X788331D01*
X248919Y179498D02*
Y171168D01*
X250585Y169502D01*
X253918D01*
X255584Y171168D01*
Y179498D01*
X265581Y169502D02*
X258916D01*
X265581Y176166D01*
Y177832D01*
X263915Y179498D01*
X260582D01*
X258916Y177832D01*
X108748Y668671D02*
X98752D01*
Y673669D01*
X100418Y675335D01*
X103750D01*
X105416Y673669D01*
Y668671D01*
Y672003D02*
X108748Y675335D01*
Y683666D02*
X98752D01*
X103750Y678668D01*
Y685332D01*
X108748Y693663D02*
X98752D01*
X103750Y688664D01*
Y695329D01*
X174752Y666329D02*
X184748D01*
Y661331D01*
X183082Y659665D01*
X179750D01*
X178084Y661331D01*
Y666329D01*
Y662997D02*
X174752Y659665D01*
Y651334D02*
X184748D01*
X179750Y656332D01*
Y649668D01*
X183082Y646335D02*
X184748Y644669D01*
Y641337D01*
X183082Y639671D01*
X181416D01*
X179750Y641337D01*
Y643003D01*
Y641337D01*
X178084Y639671D01*
X176418D01*
X174752Y641337D01*
Y644669D01*
X176418Y646335D01*
X108748Y632671D02*
X98752D01*
Y637669D01*
X100418Y639336D01*
X103750D01*
X105416Y637669D01*
Y632671D01*
Y636003D02*
X108748Y639336D01*
Y647666D02*
X98752D01*
X103750Y642668D01*
Y649332D01*
X108748Y659329D02*
Y652665D01*
X102084Y659329D01*
X100418D01*
X98752Y657663D01*
Y654331D01*
X100418Y652665D01*
X325998Y561337D02*
X316002D01*
Y566335D01*
X317668Y568002D01*
X321000D01*
X322666Y566335D01*
Y561337D01*
Y564669D02*
X325998Y568002D01*
Y576332D02*
X316002D01*
X321000Y571334D01*
Y577998D01*
X325998Y581331D02*
Y584663D01*
Y582997D01*
X316002D01*
X317668Y581331D01*
X249421Y488252D02*
Y498248D01*
X254419D01*
X256085Y496582D01*
Y493250D01*
X254419Y491584D01*
X249421D01*
X252753D02*
X256085Y488252D01*
X264416D02*
Y498248D01*
X259418Y493250D01*
X266082D01*
X269415Y496582D02*
X271081Y498248D01*
X274413D01*
X276079Y496582D01*
Y489918D01*
X274413Y488252D01*
X271081D01*
X269415Y489918D01*
Y496582D01*
X224498Y673421D02*
X214502D01*
Y678419D01*
X216168Y680086D01*
X219500D01*
X221166Y678419D01*
Y673421D01*
Y676753D02*
X224498Y680086D01*
X216168Y683418D02*
X214502Y685084D01*
Y688416D01*
X216168Y690082D01*
X217834D01*
X219500Y688416D01*
Y686750D01*
Y688416D01*
X221166Y690082D01*
X222832D01*
X224498Y688416D01*
Y685084D01*
X222832Y683418D01*
Y693415D02*
X224498Y695081D01*
Y698413D01*
X222832Y700079D01*
X216168D01*
X214502Y698413D01*
Y695081D01*
X216168Y693415D01*
X217834D01*
X219500Y695081D01*
Y700079D01*
X249671Y457502D02*
Y467498D01*
X254669D01*
X256336Y465832D01*
Y462500D01*
X254669Y460834D01*
X249671D01*
X253003D02*
X256336Y457502D01*
X259668Y465832D02*
X261334Y467498D01*
X264666D01*
X266332Y465832D01*
Y464166D01*
X264666Y462500D01*
X263000D01*
X264666D01*
X266332Y460834D01*
Y459168D01*
X264666Y457502D01*
X261334D01*
X259668Y459168D01*
X269664Y465832D02*
X271331Y467498D01*
X274663D01*
X276329Y465832D01*
Y464166D01*
X274663Y462500D01*
X276329Y460834D01*
Y459168D01*
X274663Y457502D01*
X271331D01*
X269664Y459168D01*
Y460834D01*
X271331Y462500D01*
X269664Y464166D01*
Y465832D01*
X271331Y462500D02*
X274663D01*
X249421Y472752D02*
Y482748D01*
X254419D01*
X256085Y481082D01*
Y477750D01*
X254419Y476084D01*
X249421D01*
X252753D02*
X256085Y472752D01*
X259418Y481082D02*
X261084Y482748D01*
X264416D01*
X266082Y481082D01*
Y479416D01*
X264416Y477750D01*
X262750D01*
X264416D01*
X266082Y476084D01*
Y474418D01*
X264416Y472752D01*
X261084D01*
X259418Y474418D01*
X269415Y482748D02*
X276079D01*
Y481082D01*
X269415Y474418D01*
Y472752D01*
X252671Y437252D02*
Y447248D01*
X257669D01*
X259335Y445582D01*
Y442250D01*
X257669Y440584D01*
X252671D01*
X256003D02*
X259335Y437252D01*
X269332D02*
X262668D01*
X269332Y443916D01*
Y445582D01*
X267666Y447248D01*
X264334D01*
X262668Y445582D01*
X272665Y447248D02*
X279329D01*
Y445582D01*
X272665Y438918D01*
Y437252D01*
X252921Y420252D02*
Y430248D01*
X257919D01*
X259585Y428582D01*
Y425250D01*
X257919Y423584D01*
X252921D01*
X256253D02*
X259585Y420252D01*
X269582D02*
X262918D01*
X269582Y426916D01*
Y428582D01*
X267916Y430248D01*
X264584D01*
X262918Y428582D01*
X279579Y430248D02*
X276247Y428582D01*
X272915Y425250D01*
Y421918D01*
X274581Y420252D01*
X277913D01*
X279579Y421918D01*
Y423584D01*
X277913Y425250D01*
X272915D01*
X332754Y290502D02*
Y300498D01*
X337752D01*
X339418Y298832D01*
Y295500D01*
X337752Y293834D01*
X332754D01*
X336086D02*
X339418Y290502D01*
X342751D02*
X346083D01*
X344417D01*
Y300498D01*
X342751Y298832D01*
X351082Y300498D02*
X357746D01*
Y298832D01*
X351082Y292168D01*
Y290502D01*
X281354Y339306D02*
X284686D01*
X283020D01*
Y349303D01*
X281354D01*
X200584Y747918D02*
Y754582D01*
X198918Y756248D01*
X195585D01*
X193919Y754582D01*
Y747918D01*
X195585Y746252D01*
X198918D01*
X197252Y749584D02*
X200584Y746252D01*
X198918D02*
X200584Y747918D01*
X210581Y746252D02*
X203916D01*
X210581Y752916D01*
Y754582D01*
X208915Y756248D01*
X205582D01*
X203916Y754582D01*
X406771Y665048D02*
Y671713D01*
X405104Y673379D01*
X401772D01*
X400106Y671713D01*
Y665048D01*
X401772Y663382D01*
X405104D01*
X403438Y666714D02*
X406771Y663382D01*
X405104D02*
X406771Y665048D01*
X410103Y663382D02*
X413435D01*
X411769D01*
Y673379D01*
X410103Y671713D01*
X76748Y536166D02*
Y539498D01*
Y537832D01*
X68418D01*
X66752Y539498D01*
Y541165D01*
X68418Y542831D01*
X75082Y532834D02*
X76748Y531168D01*
Y527835D01*
X75082Y526169D01*
X73416D01*
X71750Y527835D01*
X70084Y526169D01*
X68418D01*
X66752Y527835D01*
Y531168D01*
X68418Y532834D01*
X70084D01*
X71750Y531168D01*
X73416Y532834D01*
X75082D01*
X71750Y531168D02*
Y527835D01*
X103502Y76584D02*
Y73252D01*
Y74918D01*
X111832D01*
X113498Y73252D01*
Y71585D01*
X111832Y69919D01*
X103502Y79916D02*
Y86581D01*
X105168D01*
X111832Y79916D01*
X113498D01*
X349334Y127498D02*
X346002D01*
X347668D01*
Y119168D01*
X346002Y117502D01*
X344336D01*
X342669Y119168D01*
X359331Y127498D02*
X352666D01*
Y122500D01*
X355998Y124166D01*
X357664D01*
X359331Y122500D01*
Y119168D01*
X357664Y117502D01*
X354332D01*
X352666Y119168D01*
X230084Y131498D02*
X226752D01*
X228418D01*
Y123168D01*
X226752Y121502D01*
X225086D01*
X223419Y123168D01*
X238414Y121502D02*
Y131498D01*
X233416Y126500D01*
X240081D01*
X287504Y680748D02*
X290836D01*
X289170D01*
Y670752D01*
X287504D01*
X290836D01*
X302499Y679082D02*
X300833Y680748D01*
X297501D01*
X295835Y679082D01*
Y672418D01*
X297501Y670752D01*
X300833D01*
X302499Y672418D01*
X312496Y670752D02*
X305832D01*
X312496Y677416D01*
Y679082D01*
X310830Y680748D01*
X307498D01*
X305832Y679082D01*
X567670Y369998D02*
X571002D01*
X569336D01*
Y360002D01*
X567670D01*
X571002D01*
X582665Y368332D02*
X580999Y369998D01*
X577667D01*
X576001Y368332D01*
Y361668D01*
X577667Y360002D01*
X580999D01*
X582665Y361668D01*
X585998Y360002D02*
X589330D01*
X587664D01*
Y369998D01*
X585998Y368332D01*
X604002Y838421D02*
X613998D01*
Y843419D01*
X612332Y845086D01*
X605668D01*
X604002Y843419D01*
Y838421D01*
Y848418D02*
X613998D01*
Y853416D01*
X612332Y855082D01*
X605668D01*
X604002Y853416D01*
Y848418D01*
X613998Y865079D02*
Y858415D01*
X607334Y865079D01*
X605668D01*
X604002Y863413D01*
Y860081D01*
X605668Y858415D01*
X459248Y174163D02*
X449252D01*
Y169165D01*
X450918Y167498D01*
X457582D01*
X459248Y169165D01*
Y174163D01*
Y164166D02*
X449252D01*
Y159168D01*
X450918Y157502D01*
X457582D01*
X459248Y159168D01*
Y164166D01*
X449252Y154169D02*
Y150837D01*
Y152503D01*
X459248D01*
X457582Y154169D01*
X573252Y53169D02*
X583248D01*
Y58168D01*
X581582Y59834D01*
X574918D01*
X573252Y58168D01*
Y53169D01*
X583248Y68165D02*
X573252D01*
X578250Y63166D01*
Y69831D01*
X185165Y676918D02*
X186831Y675252D01*
X190163D01*
X191829Y676918D01*
Y683582D01*
X190163Y685248D01*
X186831D01*
X185165Y683582D01*
X181832Y676918D02*
X180166Y675252D01*
X176834D01*
X175168Y676918D01*
Y678584D01*
X176834Y680250D01*
X178500D01*
X176834D01*
X175168Y681916D01*
Y683582D01*
X176834Y685248D01*
X180166D01*
X181832Y683582D01*
X165171Y685248D02*
X171835D01*
X165171Y678584D01*
Y676918D01*
X166837Y675252D01*
X170169D01*
X171835Y676918D01*
X774334Y361832D02*
X772668Y363498D01*
X769335D01*
X767669Y361832D01*
Y355168D01*
X769335Y353502D01*
X772668D01*
X774334Y355168D01*
X784331Y363498D02*
X777666D01*
Y358500D01*
X780998Y360166D01*
X782665D01*
X784331Y358500D01*
Y355168D01*
X782665Y353502D01*
X779332D01*
X777666Y355168D01*
X713584Y27332D02*
X711918Y28998D01*
X708586D01*
X706919Y27332D01*
Y20668D01*
X708586Y19002D01*
X711918D01*
X713584Y20668D01*
X716916Y27332D02*
X718582Y28998D01*
X721915D01*
X723581Y27332D01*
Y25666D01*
X721915Y24000D01*
X720248D01*
X721915D01*
X723581Y22334D01*
Y20668D01*
X721915Y19002D01*
X718582D01*
X716916Y20668D01*
X754250Y663082D02*
X752584Y664748D01*
X749252D01*
X747586Y663082D01*
Y656418D01*
X749252Y654752D01*
X752584D01*
X754250Y656418D01*
X757582Y654752D02*
X760915D01*
X759248D01*
Y664748D01*
X757582Y663082D01*
D12*
X139500Y621000D02*
G03*
X139500Y621000I-1500J0D01*
G01*
D13*
X613000Y778200D02*
G03*
X613000Y778200I-1250J0D01*
G01*
X536700Y390250D02*
G03*
X536700Y390250I-1250J0D01*
G01*
X608750Y130750D02*
G03*
X608750Y130750I-1250J0D01*
G01*
D14*
X642830Y121820D02*
G03*
X642830Y121820I-1500J0D01*
G01*
X532670Y103680D02*
G03*
X532670Y103680I-1500J0D01*
G01*
D15*
X794414Y426550D02*
G03*
X794414Y426550I-1414J0D01*
G01*
X-30500Y709500D02*
X5300D01*
X-30500Y867500D02*
X5300D01*
X-30500Y709500D02*
Y867500D01*
X38700Y709500D02*
X155500D01*
Y867500D01*
X38700D02*
X155500D01*
X121000Y611000D02*
X179800D01*
X-34200D02*
X90000D01*
X121000Y451000D02*
X179800D01*
X-34200D02*
X90000D01*
X-34200D02*
Y611000D01*
X179800Y451000D02*
Y611000D01*
X273250Y151250D02*
Y191250D01*
X323750Y151250D02*
Y191250D01*
X213220Y600600D02*
X217240D01*
X213160Y600660D02*
X213220Y600600D01*
X213160Y600660D02*
Y604620D01*
X249240Y600570D02*
X253200D01*
X253260Y600630D02*
Y604650D01*
X213230Y640650D02*
X217190D01*
X213170Y636570D02*
Y640590D01*
X253280Y636620D02*
Y640580D01*
X249200Y640640D02*
X253220D01*
X441000Y755000D02*
Y765000D01*
X413000Y755000D02*
Y765000D01*
X434500Y307800D02*
X447500D01*
X434500Y290700D02*
X447500D01*
X396050Y282000D02*
Y295000D01*
X378950Y282000D02*
Y295000D01*
X259700Y370150D02*
Y383150D01*
X276800Y370150D02*
Y383150D01*
X638800Y130700D02*
Y199300D01*
X697200Y130700D02*
Y199300D01*
X834200Y867500D02*
X870000D01*
X834200Y709500D02*
X870000D01*
Y867500D01*
X684000D02*
X800800D01*
X684000Y709500D02*
Y867500D01*
Y709500D02*
X800800D01*
X752000Y505750D02*
Y580750D01*
X649000Y505750D02*
Y580750D01*
X533700Y26200D02*
Y94800D01*
X475300Y26200D02*
Y94800D01*
X479850Y532250D02*
X485250D01*
X345250D02*
X350650D01*
X479850Y392250D02*
X485250D01*
X345250D02*
X350650D01*
X485250Y526850D02*
Y532250D01*
X345250Y526850D02*
Y532250D01*
X485250Y392250D02*
Y397650D01*
X345250Y392250D02*
Y397650D01*
X244000Y83750D02*
X344000D01*
X244000Y5750D02*
X344000D01*
X244000D02*
Y83750D01*
X344000Y5750D02*
Y83750D01*
X250700Y84750D02*
X263750D01*
X125750D02*
X138800D01*
X125750Y-45250D02*
X263750D01*
X125750D02*
Y84750D01*
X263750Y-45250D02*
Y84750D01*
X451200Y84750D02*
X464250D01*
X326250D02*
X339300D01*
X326250Y-45250D02*
X464250D01*
X326250D02*
Y84750D01*
X464250Y-45250D02*
Y84750D01*
X47250Y330250D02*
X125250D01*
X47250Y430250D02*
X125250D01*
X47250Y330250D02*
Y430250D01*
X125250Y330250D02*
Y430250D01*
X47250Y230250D02*
X125250D01*
X47250Y330250D02*
X125250D01*
X47250Y230250D02*
Y330250D01*
X125250Y230250D02*
Y330250D01*
X47250Y130250D02*
X125250D01*
X47250Y230250D02*
X125250D01*
X47250Y130250D02*
Y230250D01*
X125250Y130250D02*
Y230250D01*
X47250Y30250D02*
X125250D01*
X47250Y130250D02*
X125250D01*
X47250Y30250D02*
Y130250D01*
X125250Y30250D02*
Y130250D01*
X519300Y725350D02*
Y738350D01*
X502200Y725350D02*
Y738350D01*
X149250Y406700D02*
Y416100D01*
Y384900D02*
Y394300D01*
Y416100D02*
X163250D01*
X149250Y384900D02*
X163250D01*
X145500Y277450D02*
X158500D01*
X145500Y294550D02*
X158500D01*
X145250Y171450D02*
X158250D01*
X145250Y188550D02*
X158250D01*
X145000Y251200D02*
X158000D01*
X145000Y268300D02*
X158000D01*
X145750Y198200D02*
X158750D01*
X145750Y215300D02*
X158750D01*
X145500Y224950D02*
X158500D01*
X145500Y242050D02*
X158500D01*
X276550Y328250D02*
Y341250D01*
X259450Y328250D02*
Y341250D01*
X771500Y420050D02*
X831500D01*
X771500D02*
Y616550D01*
X831500D01*
Y420050D02*
Y616550D01*
X30000Y171720D02*
Y172770D01*
Y351200D02*
Y352250D01*
X15000Y171720D02*
Y352250D01*
X30000D01*
X15000Y171720D02*
X30000D01*
D16*
X807850Y247520D02*
X834750D01*
Y247750D01*
X704750Y247520D02*
X731650D01*
X704750D02*
Y247750D01*
X807850Y117980D02*
X834750D01*
Y117750D02*
Y117980D01*
X704750D02*
X731650D01*
X704750Y117750D02*
Y117980D01*
Y117750D02*
Y117980D01*
D17*
X834750Y117750D02*
Y247750D01*
X704750Y117750D02*
Y247750D01*
D18*
X246290Y895275D02*
X256447D01*
X251368D01*
Y880040D01*
X269143D02*
X264064D01*
X261525Y882579D01*
Y887657D01*
X264064Y890197D01*
X269143D01*
X271682Y887657D01*
Y885118D01*
X261525D01*
X276760Y890197D02*
Y880040D01*
Y885118D01*
X279299Y887657D01*
X281838Y890197D01*
X284378D01*
X291995Y880040D02*
Y890197D01*
X294534D01*
X297073Y887657D01*
Y880040D01*
Y887657D01*
X299613Y890197D01*
X302152Y887657D01*
Y880040D01*
X307230D02*
X312309D01*
X309769D01*
Y890197D01*
X307230D01*
X319926Y880040D02*
Y890197D01*
X327544D01*
X330083Y887657D01*
Y880040D01*
X337700Y890197D02*
X342779D01*
X345318Y887657D01*
Y880040D01*
X337700D01*
X335161Y882579D01*
X337700Y885118D01*
X345318D01*
X352935Y892736D02*
Y890197D01*
X350396D01*
X355475D01*
X352935D01*
Y882579D01*
X355475Y880040D01*
X365631D02*
X370710D01*
X373249Y882579D01*
Y887657D01*
X370710Y890197D01*
X365631D01*
X363092Y887657D01*
Y882579D01*
X365631Y880040D01*
X378327Y890197D02*
Y880040D01*
Y885118D01*
X380866Y887657D01*
X383406Y890197D01*
X385945D01*
X187960Y809540D02*
X172725D01*
Y817158D01*
X175264Y819697D01*
X180343D01*
X182882Y817158D01*
Y809540D01*
Y814618D02*
X187960Y819697D01*
X175264Y834932D02*
X172725Y832393D01*
Y827314D01*
X175264Y824775D01*
X177803D01*
X180343Y827314D01*
Y832393D01*
X182882Y834932D01*
X185421D01*
X187960Y832393D01*
Y827314D01*
X185421Y824775D01*
X187960Y847628D02*
X172725D01*
X180343Y840010D01*
Y850167D01*
X175264Y855245D02*
X172725Y857784D01*
Y862863D01*
X175264Y865402D01*
X177803D01*
X180343Y862863D01*
X182882Y865402D01*
X185421D01*
X187960Y862863D01*
Y857784D01*
X185421Y855245D01*
X182882D01*
X180343Y857784D01*
X177803Y855245D01*
X175264D01*
X180343Y857784D02*
Y862863D01*
X172725Y880637D02*
Y870480D01*
X180343D01*
X177803Y875559D01*
Y878098D01*
X180343Y880637D01*
X185421D01*
X187960Y878098D01*
Y873019D01*
X185421Y870480D01*
X649540Y879960D02*
X664775D01*
Y872343D01*
X662236Y869803D01*
X657158D01*
X654618Y872343D01*
Y879960D01*
Y874882D02*
X649540Y869803D01*
X662236Y854568D02*
X664775Y857107D01*
Y862186D01*
X662236Y864725D01*
X659697D01*
X657158Y862186D01*
Y857107D01*
X654618Y854568D01*
X652079D01*
X649540Y857107D01*
Y862186D01*
X652079Y864725D01*
X649540Y841872D02*
X664775D01*
X657158Y849490D01*
Y839333D01*
X662236Y834255D02*
X664775Y831716D01*
Y826637D01*
X662236Y824098D01*
X659697D01*
X657158Y826637D01*
X654618Y824098D01*
X652079D01*
X649540Y826637D01*
Y831716D01*
X652079Y834255D01*
X654618D01*
X657158Y831716D01*
X659697Y834255D01*
X662236D01*
X657158Y831716D02*
Y826637D01*
X664775Y808863D02*
Y819020D01*
X657158D01*
X659697Y813941D01*
Y811402D01*
X657158Y808863D01*
X652079D01*
X649540Y811402D01*
Y816480D01*
X652079Y819020D01*
D19*
X180750Y715000D02*
D03*
X262250Y677250D02*
D03*
M02*
