M48
;Layer_Color=9474304
;FILE_FORMAT=4:4
METRIC,LZ
;TYPE=PLATED
T1F00S00C0.3000
T2F00S00C0.8000
T3F00S00C0.8900
T4F00S00C0.9000
T5F00S00C1.0000
T6F00S00C1.0160
T7F00S00C1.0200
T8F00S00C1.1000
T9F00S00C1.4000
T10F00S00C1.6300
T11F00S00C1.8000
T12F00S00C3.2000
;TYPE=NON_PLATED
T13F00S00C3.1750
T14F00S00C3.2500
T15F00S00C3.4000
%
T01
X004895Y00065
Y0007325
X00498083
Y00065
X00506667
Y0007325
X0051525
Y00065
X004625Y00298
X004485Y00318
X004505Y0032925
X0045275Y0036375
X0049125Y00355
X0047175Y00409
X0046175Y0041625
X004495Y0041
X0044825Y004815
X00458Y00489
X00461Y00472
X00509Y00506
X0050975Y00514467
X005095Y00545
X005245Y004165
X005825Y00421
X00645Y0047625
X006935Y00477
X0069425Y004565
X0071775Y004755
X00726Y003965
X00633Y0024225
X0038175Y002595
X00371Y0027675
X00407Y0029625
X00407721Y00370702
X0039975Y0036775
X0039075Y0036825
X0038025
X0037
X0037025Y00347
X0036525Y00401
X0037525Y0040125
X0038525Y004015
X0039525
X00364Y00427
X003565Y004425
X003225Y00452
X003215Y0050025
X00354Y00497
X0036225Y0052075
X004005Y005235
X00432Y00555
X0031725Y005495
X00282Y004945
X0028Y0048225
X00278Y0047225
X0026825Y004045
X0025375Y0036925
Y0034225
X0028425Y00349
X00287Y0033675
X0028575Y0032425
X00279Y0031325
X00299Y0031675
X00302015Y0029025
X00309882Y00298118
X00318257Y00306493
X003295Y0032
X00331Y00373
X0033975Y0038425
X0031Y003805
X002845Y0036775
X002165Y0037875
X002065Y0037775
X0019Y0042825
X0022375Y0052825
X00255Y00289
X00266Y00277
X0026775Y002545
X00260125Y00238375
X0025225Y0022875
X002635Y0019325
X00206Y001915
X00211Y0018075
X0020775Y0021125
X0018175Y002025
X001325Y0020675
X0013225Y00233
X0013025Y0026825
X0011825Y002625
X001305Y002865
X0013275Y0017975
X004445Y0034425
X00438271Y00356267
X00433Y0036425
X00443Y0041775
X0043875Y0056325
X00426Y0058
X0035925Y00558515
X0033975Y005855
X00319Y0058775
X0031925Y0061575
X003335Y0060975
X0027925Y0064525
X00255Y0064325
X0024175Y00649
X0022475Y00654472
X0021625Y006595
X002145Y0065
X002075Y0064375
X002265Y0062725
X0024
X00239Y0061425
X001945Y0061775
X0019725Y006075
X00198Y005975
X0018525Y0062475
X00156375Y006465
X0013825Y0067025
X001315Y00629072
X0023875Y0056375
X0028825Y0056125
X003975Y0071275
X004015Y0076725
X004545Y0080625
X00486Y0081
X0048575Y0082575
X0044775Y0086
X00455Y007135
X00503Y0067875
X005025Y00757
X005155Y007555
X00452Y005675
X0067925Y00653
X0072Y006525
X0075925Y006185
X0066975Y00853
T02
X0063325Y00056
X0068325
X007465Y00331
X007965
X00784Y0044155
Y0046695
Y0051775
Y0054315
X00691Y0040725
X00641
X000525Y0034225
Y0032225
Y0030225
Y0028225
Y0026225
Y0024225
Y0022225
Y0020225
Y0018225
X000325
Y0020225
Y0022225
Y0024225
Y0026225
Y0028225
Y0030225
Y0032225
Y0034225
X00784Y0056855
Y0059395
T03
X001385Y004993
Y005247
Y005501
X001639Y005374
Y00512
Y004866
Y005628
X001385Y005755
T04
X00571Y005103
Y005357
X0022925Y0048015
Y0045475
Y0042935
Y0040395
Y003335
Y003081
Y002827
Y002573
X00357Y002613
Y002359
Y002105
Y001851
X004245Y0018395
Y0020935
Y0023475
Y0026015
X00571Y005611
Y005865
Y006119
X005728Y0069925
X005474
X00522
X004966
T05
X002906Y0085975
X00316
X003414
T06
X0068375Y0026975
Y0029515
Y0032055
T07
X00026Y0046475
Y0049015
Y0057185
Y0059725
T08
X00116Y0075675
Y0078215
Y0080755
Y0083295
X001414Y0082025
Y0079485
Y0076945
Y0074405
X006981Y0075675
Y0078215
Y0080755
Y0083295
X007235Y0082025
Y0079485
Y0076945
Y0074405
T09
X0008525Y0005525
Y0010525
Y0015525
X00269Y0004375
X00319
X0008525Y0020525
Y0025525
Y0030525
Y0035525
Y0040525
T10
X001055Y0045355
Y0060845
T11
X0015275Y0009575
X0019475
X0023675
Y0015075
X0019475
X0015275
X0035325Y0015075
X0039525
X0043725
Y0009575
X0039525
X0035325
X00022Y00711
Y00866
X008175
Y00711
T12
X000255Y0002925
X008055
X0005775Y006665
X00605Y00654
T13
X0050125Y0029515
T14
X00075Y0047385
Y0058815
T15
X000525Y0073135
Y0084565
X00787
Y0073135
M30
