G04*
G04 #@! TF.GenerationSoftware,Altium Limited,Altium Designer,20.0.13 (296)*
G04*
G04 Layer_Color=16711935*
%FSLAX44Y44*%
%MOMM*%
G71*
G01*
G75*
%ADD73R,1.7032X1.7032*%
%ADD78C,4.2032*%
%ADD79C,2.9032*%
%ADD80C,1.8532*%
%ADD81R,1.8532X1.8532*%
%ADD82C,3.6032*%
%ADD83C,3.4532*%
%ADD84C,2.6482*%
%ADD85C,1.7332*%
%ADD86C,1.6012*%
%ADD87R,1.6012X1.6012*%
%ADD88R,3.2512X1.7272*%
%ADD89O,3.2512X1.7272*%
%ADD90C,3.3782*%
%ADD91C,1.7032*%
%ADD92C,1.5200*%
%ADD93R,1.5200X1.5200*%
%ADD94C,2.3032*%
%ADD95R,2.3032X2.3032*%
%ADD96C,2.3532*%
%ADD97R,2.3532X2.3532*%
%ADD98R,2.3032X2.3032*%
%ADD99R,1.8032X1.8032*%
%ADD100C,1.8032*%
%ADD101C,1.3532*%
%ADD102R,1.3532X1.3532*%
%ADD103C,1.7200*%
%ADD104R,1.7200X1.7200*%
%ADD105R,1.7032X1.7032*%
%ADD106C,0.9032*%
%ADD141O,1.7032X0.8032*%
%ADD142R,1.7032X0.8032*%
D73*
X424500Y183950D02*
D03*
X357000Y185100D02*
D03*
X229250Y403950D02*
D03*
Y257300D02*
D03*
X571000Y611900D02*
D03*
D78*
X57750Y666500D02*
D03*
X605000Y654000D02*
D03*
X805500Y29250D02*
D03*
X25500D02*
D03*
D79*
X22000Y711000D02*
D03*
Y866000D02*
D03*
X817500D02*
D03*
Y711000D02*
D03*
D80*
X141400Y744050D02*
D03*
X116000Y756750D02*
D03*
X141400Y769450D02*
D03*
X116000Y782150D02*
D03*
X141400Y794850D02*
D03*
X116000Y807550D02*
D03*
X141400Y820250D02*
D03*
X698100Y832950D02*
D03*
X723500Y820250D02*
D03*
X698100Y807550D02*
D03*
X723500Y794850D02*
D03*
X698100Y782150D02*
D03*
X723500Y769450D02*
D03*
X698100Y756750D02*
D03*
D81*
X116000Y832950D02*
D03*
X723500Y744050D02*
D03*
D82*
X52500Y731350D02*
D03*
Y845650D02*
D03*
X787000D02*
D03*
Y731350D02*
D03*
D83*
X75000Y588150D02*
D03*
Y473850D02*
D03*
D84*
X105500Y453550D02*
D03*
Y608450D02*
D03*
D85*
X26000Y490150D02*
D03*
Y464750D02*
D03*
Y571850D02*
D03*
Y597250D02*
D03*
D86*
X163900Y486600D02*
D03*
X138500Y499300D02*
D03*
X163900Y512000D02*
D03*
X138500Y524700D02*
D03*
X163900Y537400D02*
D03*
X138500Y550100D02*
D03*
X163900Y562800D02*
D03*
D87*
X138500Y575500D02*
D03*
D88*
X683750Y269750D02*
D03*
D89*
Y295150D02*
D03*
Y320550D02*
D03*
D90*
X501250Y295150D02*
D03*
D91*
X424500Y209350D02*
D03*
Y234750D02*
D03*
Y260150D02*
D03*
X357000Y210500D02*
D03*
Y235900D02*
D03*
Y261300D02*
D03*
X229250Y480150D02*
D03*
Y454750D02*
D03*
Y429350D02*
D03*
Y333500D02*
D03*
Y308100D02*
D03*
Y282700D02*
D03*
X571000Y586500D02*
D03*
Y561100D02*
D03*
Y535700D02*
D03*
Y510300D02*
D03*
X496600Y699250D02*
D03*
X522000D02*
D03*
X547400D02*
D03*
D92*
X746500Y331000D02*
D03*
X691000Y407250D02*
D03*
X683250Y56000D02*
D03*
D93*
X796500Y331000D02*
D03*
X641000Y407250D02*
D03*
X633250Y56000D02*
D03*
D94*
X269000Y43750D02*
D03*
X85250Y405250D02*
D03*
Y305250D02*
D03*
Y205250D02*
D03*
Y105250D02*
D03*
D95*
X319000Y43750D02*
D03*
D96*
X152750Y150750D02*
D03*
Y95750D02*
D03*
X194750Y150750D02*
D03*
Y95750D02*
D03*
X236750Y150750D02*
D03*
X353250Y150750D02*
D03*
Y95750D02*
D03*
X395250Y150750D02*
D03*
Y95750D02*
D03*
X437250Y150750D02*
D03*
D97*
X236750Y95750D02*
D03*
X437250Y95750D02*
D03*
D98*
X85250Y355250D02*
D03*
Y255250D02*
D03*
Y155250D02*
D03*
Y55250D02*
D03*
D99*
X784000Y441550D02*
D03*
D100*
Y466950D02*
D03*
Y517750D02*
D03*
Y543150D02*
D03*
Y568550D02*
D03*
Y593950D02*
D03*
D101*
X32500Y342250D02*
D03*
Y322250D02*
D03*
X52500D02*
D03*
X32500Y302250D02*
D03*
X52500D02*
D03*
X32500Y282250D02*
D03*
X52500D02*
D03*
X32500Y262250D02*
D03*
X52500D02*
D03*
X32500Y242250D02*
D03*
X52500D02*
D03*
X32500Y222250D02*
D03*
X52500D02*
D03*
X32500Y202250D02*
D03*
X52500D02*
D03*
X32500Y182250D02*
D03*
X52500D02*
D03*
D102*
Y342250D02*
D03*
D103*
X290600Y859750D02*
D03*
X316000D02*
D03*
D104*
X341400D02*
D03*
D105*
X572800Y699250D02*
D03*
D106*
X669750Y853000D02*
D03*
D141*
X516000Y809750D02*
D03*
D142*
Y828750D02*
D03*
X545500Y819250D02*
D03*
M02*
