G04*
G04 #@! TF.GenerationSoftware,Altium Limited,Altium Designer,20.0.13 (296)*
G04*
G04 Layer_Physical_Order=4*
G04 Layer_Color=16711680*
%FSLAX44Y44*%
%MOMM*%
G71*
G01*
G75*
%ADD11C,0.2000*%
%ADD12C,0.3000*%
%ADD13C,0.2500*%
%ADD44R,1.5000X1.5000*%
%ADD108C,0.5000*%
%ADD110C,2.0000*%
%ADD112C,4.0000*%
%ADD113C,2.7000*%
%ADD114C,1.6500*%
%ADD115R,1.6500X1.6500*%
%ADD116C,3.4000*%
%ADD117C,3.2500*%
%ADD118C,2.4450*%
%ADD119C,1.5300*%
%ADD120C,1.3980*%
%ADD121R,1.3980X1.3980*%
%ADD122R,3.0480X1.5240*%
%ADD123O,3.0480X1.5240*%
%ADD124C,3.1750*%
%ADD125C,1.5000*%
%ADD126C,1.4000*%
%ADD127R,1.4000X1.4000*%
%ADD128C,2.1000*%
%ADD129R,2.1000X2.1000*%
%ADD130C,2.1500*%
%ADD131R,2.1500X2.1500*%
%ADD132R,2.1000X2.1000*%
%ADD133R,1.6000X1.6000*%
%ADD134C,1.6000*%
%ADD135C,1.1500*%
%ADD136R,1.1500X1.1500*%
%ADD137R,1.5000X1.5000*%
%ADD138C,0.7000*%
%ADD139O,1.5000X0.6000*%
%ADD140R,1.5000X0.6000*%
G36*
X838441Y3059D02*
X3059D01*
Y21206D01*
X4329Y21394D01*
X4575Y20583D01*
X6668Y16667D01*
X9485Y13235D01*
X12917Y10418D01*
X16833Y8325D01*
X21081Y7036D01*
X24230Y6726D01*
Y29250D01*
Y51774D01*
X21081Y51464D01*
X16833Y50175D01*
X12917Y48082D01*
X9485Y45265D01*
X6668Y41833D01*
X4575Y37917D01*
X4329Y37106D01*
X3059Y37294D01*
Y903441D01*
X838441D01*
X838441Y3059D01*
D02*
G37*
%LPC*%
G36*
X702500Y900349D02*
X702500Y900349D01*
X97716D01*
X97716Y900349D01*
X94714Y899954D01*
X91916Y898795D01*
X89514Y896952D01*
X77798Y885236D01*
X75955Y882834D01*
X74796Y880036D01*
X74401Y877034D01*
X74401Y877034D01*
Y768466D01*
X74401Y768466D01*
X74796Y765464D01*
X75955Y762666D01*
X77798Y760264D01*
X89514Y748548D01*
X91916Y746705D01*
X94714Y745546D01*
X97716Y745151D01*
X97716Y745151D01*
X116000D01*
X116000Y745151D01*
X119002Y745546D01*
X121800Y746705D01*
X124202Y748548D01*
X126045Y750950D01*
X127204Y753748D01*
X127599Y756750D01*
X127204Y759752D01*
X126045Y762550D01*
X124202Y764952D01*
X121800Y766795D01*
X119002Y767954D01*
X116000Y768349D01*
X116000Y768349D01*
X102520D01*
X97599Y773270D01*
Y872230D01*
X102520Y877151D01*
X697695D01*
X731185Y843661D01*
Y831849D01*
X723500D01*
X720498Y831454D01*
X717700Y830295D01*
X715298Y828452D01*
X713455Y826050D01*
X712296Y823252D01*
X711901Y820250D01*
X712296Y817248D01*
X713455Y814450D01*
X715298Y812048D01*
X717700Y810205D01*
X720498Y809046D01*
X723500Y808651D01*
X737980D01*
X742901Y803730D01*
Y693500D01*
X742901Y693500D01*
X743296Y690498D01*
X744455Y687700D01*
X746298Y685298D01*
X812651Y618945D01*
Y139305D01*
X712445Y39099D01*
X666555D01*
X641750Y63904D01*
Y64500D01*
X641154D01*
X629202Y76452D01*
X626800Y78295D01*
X624002Y79454D01*
X621000Y79849D01*
X621000Y79849D01*
X542374D01*
Y119396D01*
X542250Y119695D01*
X542250Y120018D01*
X542022Y120246D01*
X541898Y120545D01*
X541600Y120668D01*
X541371Y120896D01*
X541121Y121000D01*
X540798Y121000D01*
X540500Y121124D01*
X522849D01*
Y180000D01*
X522849Y180000D01*
X522454Y183002D01*
X521295Y185800D01*
X519452Y188202D01*
X519452Y188202D01*
X490102Y217552D01*
X487700Y219395D01*
X484902Y220554D01*
X481900Y220949D01*
X481900Y220949D01*
X428174D01*
X426352Y221704D01*
X423350Y222099D01*
X423350Y222099D01*
X357000D01*
X353998Y221704D01*
X351200Y220545D01*
X348798Y218702D01*
X346955Y216300D01*
X345796Y213502D01*
X345401Y210500D01*
X345796Y207498D01*
X346955Y204700D01*
X348798Y202298D01*
X351200Y200455D01*
X353998Y199296D01*
X357000Y198901D01*
X419676D01*
X421498Y198146D01*
X424500Y197751D01*
X424500Y197751D01*
X477095D01*
X499651Y175195D01*
Y121124D01*
X476500D01*
X475352Y120648D01*
X474876Y119500D01*
Y50750D01*
X475352Y49602D01*
X476500Y49126D01*
X540500D01*
X541648Y49602D01*
X541898Y49852D01*
X542374Y51000D01*
Y56651D01*
X616195D01*
X624750Y48096D01*
Y47500D01*
X625346D01*
X653548Y19298D01*
X653548Y19298D01*
X655950Y17455D01*
X658748Y16296D01*
X661750Y15901D01*
X661750Y15901D01*
X717250D01*
X717250Y15901D01*
X720252Y16296D01*
X723050Y17455D01*
X725452Y19298D01*
X832452Y126298D01*
X832452Y126298D01*
X834295Y128700D01*
X835454Y131498D01*
X835849Y134500D01*
X835849Y134500D01*
Y623750D01*
X835849Y623750D01*
X835454Y626752D01*
X834295Y629550D01*
X832452Y631952D01*
X832452Y631952D01*
X766099Y698305D01*
Y808534D01*
X766099Y808534D01*
X765704Y811536D01*
X764545Y814334D01*
X762702Y816736D01*
X754383Y825055D01*
Y848465D01*
X754383Y848466D01*
X753988Y851468D01*
X752830Y854265D01*
X750986Y856668D01*
X750986Y856668D01*
X710702Y896952D01*
X708300Y898795D01*
X705502Y899954D01*
X704107Y900138D01*
X702500Y900349D01*
D02*
G37*
G36*
X350900Y869250D02*
X331900D01*
Y850250D01*
X350900D01*
Y869250D01*
D02*
G37*
G36*
X316000Y869332D02*
X313520Y869006D01*
X311209Y868048D01*
X309224Y866525D01*
X307702Y864541D01*
X306744Y862230D01*
X306418Y859750D01*
X306744Y857270D01*
X307702Y854959D01*
X309224Y852974D01*
X311209Y851452D01*
X313520Y850495D01*
X316000Y850168D01*
X318480Y850495D01*
X320791Y851452D01*
X322775Y852974D01*
X324298Y854959D01*
X325255Y857270D01*
X325582Y859750D01*
X325255Y862230D01*
X324298Y864541D01*
X322775Y866525D01*
X320791Y868048D01*
X318480Y869006D01*
X316000Y869332D01*
D02*
G37*
G36*
X290600D02*
X288120Y869006D01*
X285809Y868048D01*
X283825Y866525D01*
X282302Y864541D01*
X281345Y862230D01*
X281018Y859750D01*
X281345Y857270D01*
X282302Y854959D01*
X283825Y852974D01*
X285809Y851452D01*
X288120Y850495D01*
X290600Y850168D01*
X293080Y850495D01*
X295391Y851452D01*
X297375Y852974D01*
X298898Y854959D01*
X299855Y857270D01*
X300182Y859750D01*
X299855Y862230D01*
X298898Y864541D01*
X297375Y866525D01*
X295391Y868048D01*
X293080Y869006D01*
X290600Y869332D01*
D02*
G37*
G36*
X669750Y858098D02*
X667799Y857710D01*
X666854Y857078D01*
X583750D01*
X582189Y856768D01*
X580866Y855884D01*
X548732Y823750D01*
X536500D01*
Y814750D01*
X554500D01*
Y817982D01*
X585439Y848922D01*
X666854D01*
X667799Y848290D01*
X669750Y847902D01*
X671701Y848290D01*
X673355Y849395D01*
X674460Y851049D01*
X674848Y853000D01*
X674460Y854951D01*
X673355Y856605D01*
X671701Y857710D01*
X669750Y858098D01*
D02*
G37*
G36*
X699370Y843666D02*
Y834220D01*
X708816D01*
X708612Y835767D01*
X707525Y838392D01*
X705796Y840646D01*
X703542Y842375D01*
X700917Y843462D01*
X699370Y843666D01*
D02*
G37*
G36*
X696830Y843666D02*
X695283Y843462D01*
X692658Y842375D01*
X690405Y840646D01*
X688675Y838392D01*
X687588Y835767D01*
X687384Y834220D01*
X696830D01*
Y843666D01*
D02*
G37*
G36*
X787000Y864240D02*
X783373Y863882D01*
X779886Y862824D01*
X776672Y861107D01*
X773855Y858795D01*
X771543Y855978D01*
X769826Y852764D01*
X768768Y849277D01*
X768410Y845650D01*
X768768Y842023D01*
X769826Y838536D01*
X771543Y835322D01*
X773855Y832505D01*
X776672Y830193D01*
X779886Y828476D01*
X783373Y827418D01*
X787000Y827060D01*
X790627Y827418D01*
X794114Y828476D01*
X797328Y830193D01*
X800145Y832505D01*
X802457Y835322D01*
X804174Y838536D01*
X805232Y842023D01*
X805590Y845650D01*
X805232Y849277D01*
X804174Y852764D01*
X802457Y855978D01*
X800145Y858795D01*
X797328Y861107D01*
X794114Y862824D01*
X790627Y863882D01*
X787000Y864240D01*
D02*
G37*
G36*
X52500D02*
X48873Y863882D01*
X45386Y862824D01*
X42172Y861107D01*
X39355Y858795D01*
X37043Y855978D01*
X35326Y852764D01*
X34268Y849277D01*
X33911Y845650D01*
X34268Y842023D01*
X35326Y838536D01*
X37043Y835322D01*
X39355Y832505D01*
X42172Y830193D01*
X45386Y828476D01*
X48873Y827418D01*
X52500Y827060D01*
X56127Y827418D01*
X59614Y828476D01*
X62828Y830193D01*
X65645Y832505D01*
X67957Y835322D01*
X69675Y838536D01*
X70732Y842023D01*
X71090Y845650D01*
X70732Y849277D01*
X69675Y852764D01*
X67957Y855978D01*
X65645Y858795D01*
X62828Y861107D01*
X59614Y862824D01*
X56127Y863882D01*
X52500Y864240D01*
D02*
G37*
G36*
X125750Y842700D02*
X106250D01*
Y823200D01*
X125750D01*
Y842700D01*
D02*
G37*
G36*
X708816Y831680D02*
X699370D01*
Y822234D01*
X700917Y822438D01*
X703542Y823525D01*
X705796Y825255D01*
X707525Y827508D01*
X708612Y830133D01*
X708816Y831680D01*
D02*
G37*
G36*
X696830D02*
X687384D01*
X687588Y830133D01*
X688675Y827508D01*
X690405Y825255D01*
X692658Y823525D01*
X695283Y822438D01*
X696830Y822234D01*
Y831680D01*
D02*
G37*
G36*
X447750Y865098D02*
X445799Y864710D01*
X444145Y863605D01*
X443040Y861951D01*
X442652Y860000D01*
X443040Y858049D01*
X444145Y856395D01*
X444946Y855860D01*
Y848250D01*
X445160Y847177D01*
X445767Y846267D01*
X481090Y810945D01*
X480902Y810000D01*
X481290Y808049D01*
X482395Y806395D01*
X484049Y805290D01*
X486000Y804902D01*
X487951Y805290D01*
X489605Y806395D01*
X490710Y808049D01*
X491098Y810000D01*
X490889Y811049D01*
X492391Y812551D01*
X502770D01*
X503843Y812765D01*
X504753Y813372D01*
X505306Y813926D01*
X507538D01*
X508030Y812656D01*
X507261Y811506D01*
X506912Y809750D01*
X507261Y807994D01*
X508256Y806506D01*
X509744Y805511D01*
X511500Y805162D01*
X520500D01*
X522256Y805511D01*
X523744Y806506D01*
X524739Y807994D01*
X525088Y809750D01*
X524739Y811506D01*
X523744Y812994D01*
X522256Y813989D01*
X520500Y814338D01*
X518804D01*
Y815266D01*
X518590Y816339D01*
X517982Y817248D01*
X516789Y818441D01*
X516626Y819250D01*
X516789Y820059D01*
X517982Y821252D01*
X518590Y822161D01*
X518804Y823234D01*
Y824250D01*
X525000D01*
Y833250D01*
X507000D01*
Y824574D01*
X502057D01*
X500984Y824361D01*
X500075Y823753D01*
X499521Y823199D01*
X492391D01*
X490681Y824910D01*
X490848Y825750D01*
X490460Y827701D01*
X489355Y829355D01*
X487701Y830460D01*
X485750Y830848D01*
X483799Y830460D01*
X482145Y829355D01*
X481040Y827701D01*
X480652Y825750D01*
X481040Y823799D01*
X482145Y822145D01*
X483799Y821040D01*
X485750Y820652D01*
X486799Y820861D01*
X488976Y818684D01*
X489139Y817875D01*
X488976Y817066D01*
X486841Y814931D01*
X486000Y815098D01*
X485055Y814910D01*
X450554Y849411D01*
Y855860D01*
X451355Y856395D01*
X452460Y858049D01*
X452848Y860000D01*
X452460Y861951D01*
X451355Y863605D01*
X449701Y864710D01*
X447750Y865098D01*
D02*
G37*
G36*
X454500Y811348D02*
X452549Y810960D01*
X450895Y809855D01*
X449790Y808201D01*
X449402Y806250D01*
X449790Y804299D01*
X450895Y802645D01*
X452549Y801540D01*
X454500Y801152D01*
X456451Y801540D01*
X458105Y802645D01*
X459210Y804299D01*
X459598Y806250D01*
X459210Y808201D01*
X458105Y809855D01*
X456451Y810960D01*
X454500Y811348D01*
D02*
G37*
G36*
X116000Y817384D02*
X113455Y817049D01*
X111083Y816067D01*
X109046Y814504D01*
X107483Y812467D01*
X106501Y810095D01*
X106166Y807550D01*
X106501Y805005D01*
X107483Y802633D01*
X109046Y800596D01*
X111083Y799033D01*
X113455Y798051D01*
X116000Y797716D01*
X118545Y798051D01*
X120917Y799033D01*
X122954Y800596D01*
X124517Y802633D01*
X125499Y805005D01*
X125834Y807550D01*
X125499Y810095D01*
X124517Y812467D01*
X122954Y814504D01*
X120917Y816067D01*
X118545Y817049D01*
X116000Y817384D01*
D02*
G37*
G36*
X141400Y830084D02*
X138855Y829749D01*
X136483Y828767D01*
X134446Y827204D01*
X132883Y825167D01*
X131901Y822795D01*
X131566Y820250D01*
X131901Y817705D01*
X132883Y815333D01*
X134446Y813296D01*
X136483Y811733D01*
X137189Y811441D01*
X137233Y810048D01*
X136761Y809733D01*
X118639Y791610D01*
X118545Y791649D01*
X116000Y791984D01*
X113455Y791649D01*
X111083Y790667D01*
X109046Y789104D01*
X107483Y787067D01*
X106501Y784695D01*
X106166Y782150D01*
X106501Y779605D01*
X107483Y777233D01*
X109046Y775196D01*
X111083Y773633D01*
X113455Y772651D01*
X116000Y772316D01*
X118545Y772651D01*
X120917Y773633D01*
X122954Y775196D01*
X124517Y777233D01*
X125499Y779605D01*
X125834Y782150D01*
X125499Y784695D01*
X124517Y787067D01*
X123435Y788476D01*
X130435Y795477D01*
X131190Y795104D01*
X131570Y794816D01*
X131901Y792305D01*
X132883Y789933D01*
X134446Y787896D01*
X136483Y786333D01*
X138855Y785351D01*
X141400Y785016D01*
X143945Y785351D01*
X146317Y786333D01*
X148354Y787896D01*
X149917Y789933D01*
X150899Y792305D01*
X151090Y793758D01*
X162277D01*
X175867Y780167D01*
X176777Y779560D01*
X177850Y779346D01*
X177850Y779346D01*
X688708D01*
X689583Y777233D01*
X691146Y775196D01*
X693183Y773633D01*
X695555Y772651D01*
X698100Y772316D01*
X700645Y772651D01*
X703017Y773633D01*
X705054Y775196D01*
X706617Y777233D01*
X707599Y779605D01*
X707934Y782150D01*
X707599Y784695D01*
X706617Y787067D01*
X705054Y789104D01*
X703017Y790667D01*
X702753Y790776D01*
X703005Y792046D01*
X714108D01*
X714983Y789933D01*
X716546Y787896D01*
X718583Y786333D01*
X720955Y785351D01*
X723500Y785016D01*
X726045Y785351D01*
X728417Y786333D01*
X730454Y787896D01*
X732017Y789933D01*
X732999Y792305D01*
X733334Y794850D01*
X732999Y797395D01*
X732017Y799767D01*
X730454Y801804D01*
X728417Y803367D01*
X726045Y804349D01*
X723500Y804684D01*
X720955Y804349D01*
X718583Y803367D01*
X716546Y801804D01*
X714983Y799767D01*
X714108Y797654D01*
X703005D01*
X702753Y798924D01*
X703017Y799033D01*
X705054Y800596D01*
X706617Y802633D01*
X707599Y805005D01*
X707934Y807550D01*
X707599Y810095D01*
X706617Y812467D01*
X705054Y814504D01*
X703017Y816067D01*
X700645Y817049D01*
X698100Y817384D01*
X695555Y817049D01*
X693183Y816067D01*
X691146Y814504D01*
X689583Y812467D01*
X688601Y810095D01*
X688266Y807550D01*
X688601Y805005D01*
X689583Y802633D01*
X691146Y800596D01*
X693183Y799033D01*
X693447Y798924D01*
X693195Y797654D01*
X212311D01*
X200233Y809733D01*
X199323Y810340D01*
X198250Y810554D01*
X146788D01*
X146439Y811428D01*
X146435Y811824D01*
X148354Y813296D01*
X149917Y815333D01*
X150899Y817705D01*
X151234Y820250D01*
X150899Y822795D01*
X149917Y825167D01*
X148354Y827204D01*
X146317Y828767D01*
X143945Y829749D01*
X141400Y830084D01*
D02*
G37*
G36*
X401500Y772348D02*
X399549Y771960D01*
X397895Y770855D01*
X396790Y769201D01*
X396402Y767250D01*
X396790Y765299D01*
X397895Y763645D01*
X399549Y762540D01*
X401500Y762152D01*
X403451Y762540D01*
X405105Y763645D01*
X406210Y765299D01*
X406598Y767250D01*
X406210Y769201D01*
X405105Y770855D01*
X403451Y771960D01*
X401500Y772348D01*
D02*
G37*
G36*
X723500Y779284D02*
X720955Y778949D01*
X718583Y777967D01*
X716546Y776404D01*
X714983Y774367D01*
X714001Y771995D01*
X713666Y769450D01*
X714001Y766905D01*
X714983Y764533D01*
X716546Y762496D01*
X718583Y760933D01*
X720955Y759951D01*
X723500Y759616D01*
X726045Y759951D01*
X728417Y760933D01*
X730454Y762496D01*
X732017Y764533D01*
X732999Y766905D01*
X733334Y769450D01*
X732999Y771995D01*
X732017Y774367D01*
X730454Y776404D01*
X728417Y777967D01*
X726045Y778949D01*
X723500Y779284D01*
D02*
G37*
G36*
X141400D02*
X138855Y778949D01*
X136483Y777967D01*
X134446Y776404D01*
X132883Y774367D01*
X131901Y771995D01*
X131566Y769450D01*
X131901Y766905D01*
X132883Y764533D01*
X134446Y762496D01*
X136483Y760933D01*
X138855Y759951D01*
X141400Y759616D01*
X143945Y759951D01*
X146317Y760933D01*
X148354Y762496D01*
X149917Y764533D01*
X150899Y766905D01*
X151234Y769450D01*
X150899Y771995D01*
X149917Y774367D01*
X148354Y776404D01*
X146317Y777967D01*
X143945Y778949D01*
X141400Y779284D01*
D02*
G37*
G36*
X502500Y762098D02*
X500549Y761710D01*
X498895Y760605D01*
X497790Y758951D01*
X497402Y757000D01*
X497790Y755049D01*
X498895Y753395D01*
X500549Y752290D01*
X502500Y751902D01*
X504451Y752290D01*
X506105Y753395D01*
X507210Y755049D01*
X507598Y757000D01*
X507210Y758951D01*
X506105Y760605D01*
X504451Y761710D01*
X502500Y762098D01*
D02*
G37*
G36*
X515500Y760598D02*
X513549Y760210D01*
X511895Y759105D01*
X510790Y757451D01*
X510402Y755500D01*
X510790Y753549D01*
X511895Y751895D01*
X513549Y750790D01*
X515500Y750402D01*
X517451Y750790D01*
X519105Y751895D01*
X520210Y753549D01*
X520598Y755500D01*
X520210Y757451D01*
X519105Y759105D01*
X517451Y760210D01*
X515500Y760598D01*
D02*
G37*
G36*
X698100Y766584D02*
X695555Y766249D01*
X693183Y765267D01*
X691146Y763704D01*
X689583Y761667D01*
X688601Y759295D01*
X688266Y756750D01*
X688601Y754205D01*
X689583Y751833D01*
X691146Y749796D01*
X693183Y748233D01*
X695555Y747251D01*
X698100Y746916D01*
X700645Y747251D01*
X703017Y748233D01*
X705054Y749796D01*
X706617Y751833D01*
X707599Y754205D01*
X707934Y756750D01*
X707599Y759295D01*
X706617Y761667D01*
X705054Y763704D01*
X703017Y765267D01*
X700645Y766249D01*
X698100Y766584D01*
D02*
G37*
G36*
X142670Y754766D02*
Y745320D01*
X152116D01*
X151912Y746867D01*
X150825Y749492D01*
X149095Y751746D01*
X146842Y753475D01*
X144217Y754562D01*
X142670Y754766D01*
D02*
G37*
G36*
X140130D02*
X138583Y754562D01*
X135958Y753475D01*
X133705Y751746D01*
X131975Y749492D01*
X130888Y746867D01*
X130684Y745320D01*
X140130D01*
Y754766D01*
D02*
G37*
G36*
X733250Y753800D02*
X713750D01*
Y734300D01*
X733250D01*
Y753800D01*
D02*
G37*
G36*
X140130Y742780D02*
X130684D01*
X130888Y741233D01*
X131975Y738608D01*
X133705Y736355D01*
X135958Y734625D01*
X138583Y733538D01*
X140130Y733334D01*
Y742780D01*
D02*
G37*
G36*
X152116D02*
X142670D01*
Y733334D01*
X144217Y733538D01*
X146842Y734625D01*
X149095Y736355D01*
X150825Y738608D01*
X151912Y741233D01*
X152116Y742780D01*
D02*
G37*
G36*
X787000Y749939D02*
X783373Y749582D01*
X779886Y748524D01*
X776672Y746807D01*
X773855Y744495D01*
X771543Y741678D01*
X769826Y738464D01*
X768768Y734977D01*
X768410Y731350D01*
X768768Y727723D01*
X769826Y724236D01*
X771543Y721022D01*
X773855Y718205D01*
X776672Y715893D01*
X779886Y714176D01*
X783373Y713118D01*
X787000Y712760D01*
X790627Y713118D01*
X794114Y714176D01*
X797328Y715893D01*
X800145Y718205D01*
X802457Y721022D01*
X804174Y724236D01*
X805232Y727723D01*
X805590Y731350D01*
X805232Y734977D01*
X804174Y738464D01*
X802457Y741678D01*
X800145Y744495D01*
X797328Y746807D01*
X794114Y748524D01*
X790627Y749582D01*
X787000Y749939D01*
D02*
G37*
G36*
X52500D02*
X48873Y749582D01*
X45386Y748524D01*
X42172Y746807D01*
X39355Y744495D01*
X37043Y741678D01*
X35326Y738464D01*
X34268Y734977D01*
X33911Y731350D01*
X34268Y727723D01*
X35326Y724236D01*
X37043Y721022D01*
X39355Y718205D01*
X42172Y715893D01*
X45386Y714176D01*
X48873Y713118D01*
X52500Y712760D01*
X56127Y713118D01*
X59614Y714176D01*
X62828Y715893D01*
X65645Y718205D01*
X67957Y721022D01*
X69675Y724236D01*
X70732Y727723D01*
X71090Y731350D01*
X70732Y734977D01*
X69675Y738464D01*
X67957Y741678D01*
X65645Y744495D01*
X62828Y746807D01*
X59614Y748524D01*
X56127Y749582D01*
X52500Y749939D01*
D02*
G37*
G36*
X455000Y718598D02*
X453049Y718210D01*
X451395Y717105D01*
X450290Y715451D01*
X449902Y713500D01*
X450290Y711549D01*
X451395Y709895D01*
X453049Y708790D01*
X455000Y708402D01*
X456951Y708790D01*
X458605Y709895D01*
X459710Y711549D01*
X460098Y713500D01*
X459710Y715451D01*
X458605Y717105D01*
X456951Y718210D01*
X455000Y718598D01*
D02*
G37*
G36*
X397500Y717848D02*
X395549Y717460D01*
X393895Y716355D01*
X392790Y714701D01*
X392402Y712750D01*
X392790Y710799D01*
X393895Y709145D01*
X395549Y708040D01*
X397500Y707652D01*
X399451Y708040D01*
X401105Y709145D01*
X402210Y710799D01*
X402598Y712750D01*
X402210Y714701D01*
X401105Y716355D01*
X399451Y717460D01*
X397500Y717848D01*
D02*
G37*
G36*
X548670Y709209D02*
Y700520D01*
X557359D01*
X557182Y701871D01*
X556170Y704313D01*
X554561Y706411D01*
X552463Y708020D01*
X550021Y709032D01*
X548670Y709209D01*
D02*
G37*
G36*
X546130D02*
X544779Y709032D01*
X542337Y708020D01*
X540239Y706411D01*
X538630Y704313D01*
X537618Y701871D01*
X537441Y700520D01*
X546130D01*
Y709209D01*
D02*
G37*
G36*
X817500Y881073D02*
X814559Y880783D01*
X811732Y879925D01*
X809126Y878532D01*
X806842Y876658D01*
X804968Y874374D01*
X803575Y871768D01*
X802717Y868941D01*
X802427Y866000D01*
X802717Y863059D01*
X803575Y860232D01*
X804968Y857626D01*
X806842Y855342D01*
X809126Y853468D01*
X811732Y852075D01*
X813422Y851562D01*
Y752000D01*
Y725438D01*
X811732Y724925D01*
X809126Y723532D01*
X806842Y721658D01*
X804968Y719374D01*
X803575Y716768D01*
X802717Y713941D01*
X802427Y711000D01*
X802717Y708059D01*
X803575Y705232D01*
X804968Y702626D01*
X806842Y700342D01*
X809126Y698468D01*
X811732Y697075D01*
X814559Y696217D01*
X817500Y695928D01*
X820441Y696217D01*
X823268Y697075D01*
X825874Y698468D01*
X828158Y700342D01*
X830032Y702626D01*
X831425Y705232D01*
X832283Y708059D01*
X832573Y711000D01*
X832283Y713941D01*
X831425Y716768D01*
X830032Y719374D01*
X828158Y721658D01*
X825874Y723532D01*
X823268Y724925D01*
X821578Y725438D01*
Y752000D01*
Y851562D01*
X823268Y852075D01*
X825874Y853468D01*
X828158Y855342D01*
X830032Y857626D01*
X831425Y860232D01*
X832283Y863059D01*
X832573Y866000D01*
X832283Y868941D01*
X831425Y871768D01*
X830032Y874374D01*
X828158Y876658D01*
X825874Y878532D01*
X823268Y879925D01*
X820441Y880783D01*
X817500Y881073D01*
D02*
G37*
G36*
X22000D02*
X19059Y880783D01*
X16232Y879925D01*
X13626Y878532D01*
X11342Y876658D01*
X9468Y874374D01*
X8075Y871768D01*
X7217Y868941D01*
X6927Y866000D01*
X7217Y863059D01*
X8075Y860232D01*
X9468Y857626D01*
X11342Y855342D01*
X13626Y853468D01*
X16232Y852075D01*
X17922Y851562D01*
Y725438D01*
X16232Y724925D01*
X13626Y723532D01*
X11342Y721658D01*
X9468Y719374D01*
X8075Y716768D01*
X7217Y713941D01*
X6927Y711000D01*
X7217Y708059D01*
X8075Y705232D01*
X9468Y702626D01*
X11342Y700342D01*
X13626Y698468D01*
X16232Y697075D01*
X19059Y696217D01*
X22000Y695928D01*
X24941Y696217D01*
X27768Y697075D01*
X30374Y698468D01*
X32658Y700342D01*
X34532Y702626D01*
X35925Y705232D01*
X36783Y708059D01*
X37073Y711000D01*
X36783Y713941D01*
X35925Y716768D01*
X34532Y719374D01*
X32658Y721658D01*
X30374Y723532D01*
X27768Y724925D01*
X26078Y725438D01*
Y851562D01*
X27768Y852075D01*
X30374Y853468D01*
X32658Y855342D01*
X34532Y857626D01*
X35925Y860232D01*
X36783Y863059D01*
X37073Y866000D01*
X36783Y868941D01*
X35925Y871768D01*
X34532Y874374D01*
X32658Y876658D01*
X30374Y878532D01*
X27768Y879925D01*
X24941Y880783D01*
X22000Y881073D01*
D02*
G37*
G36*
X581800Y708250D02*
X563800D01*
Y690250D01*
X581800D01*
Y708250D01*
D02*
G37*
G36*
X522000Y708328D02*
X519650Y708018D01*
X517461Y707112D01*
X515581Y705669D01*
X514138Y703789D01*
X513232Y701600D01*
X512922Y699250D01*
X513232Y696900D01*
X514138Y694711D01*
X515581Y692831D01*
X517461Y691389D01*
X519650Y690482D01*
X522000Y690172D01*
X524350Y690482D01*
X526539Y691389D01*
X528419Y692831D01*
X529861Y694711D01*
X530768Y696900D01*
X531078Y699250D01*
X530768Y701600D01*
X529861Y703789D01*
X528419Y705669D01*
X526539Y707112D01*
X524350Y708018D01*
X522000Y708328D01*
D02*
G37*
G36*
X496600D02*
X494250Y708018D01*
X492061Y707112D01*
X490181Y705669D01*
X488739Y703789D01*
X487832Y701600D01*
X487522Y699250D01*
X487832Y696900D01*
X488739Y694711D01*
X490181Y692831D01*
X492061Y691389D01*
X494250Y690482D01*
X496600Y690172D01*
X498950Y690482D01*
X501139Y691389D01*
X503019Y692831D01*
X504461Y694711D01*
X505368Y696900D01*
X505678Y699250D01*
X505368Y701600D01*
X504461Y703789D01*
X503019Y705669D01*
X501139Y707112D01*
X498950Y708018D01*
X496600Y708328D01*
D02*
G37*
G36*
X557359Y697980D02*
X548670D01*
Y689291D01*
X550021Y689468D01*
X552463Y690480D01*
X554561Y692089D01*
X556170Y694187D01*
X557182Y696629D01*
X557359Y697980D01*
D02*
G37*
G36*
X546130D02*
X537441D01*
X537618Y696629D01*
X538630Y694187D01*
X540239Y692089D01*
X542337Y690480D01*
X544779Y689468D01*
X546130Y689291D01*
Y697980D01*
D02*
G37*
G36*
X503000Y683848D02*
X501049Y683460D01*
X499395Y682355D01*
X498290Y680701D01*
X497902Y678750D01*
X498290Y676799D01*
X499395Y675145D01*
X501049Y674040D01*
X503000Y673652D01*
X504951Y674040D01*
X506605Y675145D01*
X507710Y676799D01*
X508098Y678750D01*
X507710Y680701D01*
X506605Y682355D01*
X504951Y683460D01*
X503000Y683848D01*
D02*
G37*
G36*
X59020Y689024D02*
Y667770D01*
X80274D01*
X79964Y670919D01*
X78675Y675167D01*
X76582Y679083D01*
X73765Y682515D01*
X70333Y685332D01*
X66417Y687425D01*
X62169Y688714D01*
X59020Y689024D01*
D02*
G37*
G36*
X56480D02*
X53331Y688714D01*
X49083Y687425D01*
X45167Y685332D01*
X41735Y682515D01*
X38918Y679083D01*
X36825Y675167D01*
X35536Y670919D01*
X35226Y667770D01*
X56480D01*
Y689024D01*
D02*
G37*
G36*
X138250Y675348D02*
X136299Y674960D01*
X134645Y673855D01*
X133540Y672201D01*
X133152Y670250D01*
X133540Y668299D01*
X134645Y666645D01*
X136299Y665540D01*
X138250Y665152D01*
X140201Y665540D01*
X141855Y666645D01*
X142960Y668299D01*
X143348Y670250D01*
X142960Y672201D01*
X141855Y673855D01*
X140201Y674960D01*
X138250Y675348D01*
D02*
G37*
G36*
X606270Y676524D02*
Y655270D01*
X627524D01*
X627214Y658419D01*
X625925Y662667D01*
X623832Y666583D01*
X621015Y670015D01*
X617583Y672832D01*
X613667Y674925D01*
X609419Y676214D01*
X606270Y676524D01*
D02*
G37*
G36*
X603730D02*
X600581Y676214D01*
X596333Y674925D01*
X592417Y672832D01*
X588985Y670015D01*
X586168Y666583D01*
X584075Y662667D01*
X582786Y658419D01*
X582476Y655270D01*
X603730D01*
Y676524D01*
D02*
G37*
G36*
X216250Y664598D02*
X214299Y664210D01*
X212645Y663105D01*
X211540Y661451D01*
X211152Y659500D01*
X211540Y657549D01*
X212569Y656009D01*
X212562Y655532D01*
X212341Y654571D01*
X210895Y653605D01*
X209790Y651951D01*
X209402Y650000D01*
X209451Y649755D01*
X208371Y648675D01*
X207500Y648848D01*
X205549Y648460D01*
X203895Y647355D01*
X202790Y645701D01*
X202402Y643750D01*
X202790Y641799D01*
X203895Y640145D01*
X205549Y639040D01*
X207500Y638652D01*
X209451Y639040D01*
X211105Y640145D01*
X212210Y641799D01*
X212598Y643750D01*
X212549Y643995D01*
X213629Y645075D01*
X214500Y644902D01*
X216451Y645290D01*
X218105Y646395D01*
X219210Y648049D01*
X219598Y650000D01*
X219344Y651277D01*
X220540Y651773D01*
X221145Y650867D01*
X222799Y649762D01*
X224750Y649374D01*
X226701Y649762D01*
X228355Y650867D01*
X229460Y652521D01*
X229848Y654472D01*
X229460Y656423D01*
X228355Y658077D01*
X226701Y659182D01*
X224750Y659570D01*
X222799Y659182D01*
X222546Y659013D01*
X221998Y659236D01*
X221306Y659712D01*
X220960Y661451D01*
X219855Y663105D01*
X218201Y664210D01*
X216250Y664598D01*
D02*
G37*
G36*
X679250Y658098D02*
X677299Y657710D01*
X675645Y656605D01*
X674540Y654951D01*
X674152Y653000D01*
X674540Y651049D01*
X675645Y649395D01*
X677299Y648290D01*
X679250Y647902D01*
X681201Y648290D01*
X682855Y649395D01*
X683960Y651049D01*
X684348Y653000D01*
X683960Y654951D01*
X682855Y656605D01*
X681201Y657710D01*
X679250Y658098D01*
D02*
G37*
G36*
X720000Y657598D02*
X718049Y657210D01*
X716395Y656105D01*
X715290Y654451D01*
X714902Y652500D01*
X715290Y650549D01*
X716395Y648895D01*
X718049Y647790D01*
X720000Y647402D01*
X721951Y647790D01*
X723605Y648895D01*
X724710Y650549D01*
X725098Y652500D01*
X724710Y654451D01*
X723605Y656105D01*
X721951Y657210D01*
X720000Y657598D01*
D02*
G37*
G36*
X80274Y665230D02*
X59020D01*
Y643976D01*
X62169Y644286D01*
X66417Y645575D01*
X70333Y647668D01*
X73765Y650485D01*
X76582Y653917D01*
X78675Y657833D01*
X79964Y662081D01*
X80274Y665230D01*
D02*
G37*
G36*
X56480D02*
X35226D01*
X35536Y662081D01*
X36825Y657833D01*
X38918Y653917D01*
X41735Y650485D01*
X45167Y647668D01*
X49083Y645575D01*
X53331Y644286D01*
X56480Y643976D01*
Y665230D01*
D02*
G37*
G36*
X241750Y654098D02*
X239799Y653710D01*
X238145Y652605D01*
X237040Y650951D01*
X236652Y649000D01*
X237040Y647049D01*
X238145Y645395D01*
X239799Y644290D01*
X241750Y643902D01*
X243701Y644290D01*
X245355Y645395D01*
X246460Y647049D01*
X246848Y649000D01*
X246460Y650951D01*
X245355Y652605D01*
X243701Y653710D01*
X241750Y654098D01*
D02*
G37*
G36*
X156375Y651598D02*
X154424Y651210D01*
X152770Y650105D01*
X151665Y648451D01*
X151277Y646500D01*
X151665Y644549D01*
X152770Y642895D01*
X154424Y641790D01*
X156375Y641402D01*
X158326Y641790D01*
X159980Y642895D01*
X161085Y644549D01*
X161473Y646500D01*
X161085Y648451D01*
X159980Y650105D01*
X158326Y651210D01*
X156375Y651598D01*
D02*
G37*
G36*
X279250Y650348D02*
X277299Y649960D01*
X275645Y648855D01*
X274540Y647201D01*
X274152Y645250D01*
X274540Y643299D01*
X275645Y641645D01*
X277299Y640540D01*
X279250Y640152D01*
X281201Y640540D01*
X282855Y641645D01*
X283960Y643299D01*
X284348Y645250D01*
X283960Y647201D01*
X282855Y648855D01*
X281201Y649960D01*
X279250Y650348D01*
D02*
G37*
G36*
X255000Y648348D02*
X253049Y647960D01*
X251395Y646855D01*
X250290Y645201D01*
X249902Y643250D01*
X250290Y641299D01*
X251395Y639645D01*
X253049Y638540D01*
X255000Y638152D01*
X256951Y638540D01*
X258605Y639645D01*
X259710Y641299D01*
X260098Y643250D01*
X259710Y645201D01*
X258605Y646855D01*
X256951Y647960D01*
X255000Y648348D01*
D02*
G37*
G36*
X627524Y652730D02*
X606270D01*
Y631476D01*
X609419Y631786D01*
X613667Y633075D01*
X617583Y635168D01*
X621015Y637985D01*
X623832Y641417D01*
X625925Y645333D01*
X627214Y649581D01*
X627524Y652730D01*
D02*
G37*
G36*
X603730D02*
X582476D01*
X582786Y649581D01*
X584075Y645333D01*
X586168Y641417D01*
X588985Y637985D01*
X592417Y635168D01*
X596333Y633075D01*
X600581Y631786D01*
X603730Y631476D01*
Y652730D01*
D02*
G37*
G36*
X131500Y634170D02*
X129549Y633782D01*
X127895Y632677D01*
X126790Y631023D01*
X126402Y629072D01*
X126790Y627122D01*
X127895Y625468D01*
X129549Y624362D01*
X131500Y623974D01*
X133451Y624362D01*
X135105Y625468D01*
X136210Y627122D01*
X136598Y629072D01*
X136210Y631023D01*
X135105Y632677D01*
X133451Y633782D01*
X131500Y634170D01*
D02*
G37*
G36*
X185250Y629848D02*
X183299Y629460D01*
X181645Y628355D01*
X180540Y626701D01*
X180152Y624750D01*
X180540Y622799D01*
X181645Y621145D01*
X183299Y620040D01*
X185250Y619652D01*
X187201Y620040D01*
X188855Y621145D01*
X189960Y622799D01*
X190348Y624750D01*
X189960Y626701D01*
X188855Y628355D01*
X187201Y629460D01*
X185250Y629848D01*
D02*
G37*
G36*
X319250Y620848D02*
X317299Y620460D01*
X315645Y619355D01*
X314540Y617701D01*
X314152Y615750D01*
X314540Y613799D01*
X315645Y612145D01*
X317299Y611040D01*
X319250Y610652D01*
X321201Y611040D01*
X322855Y612145D01*
X323960Y613799D01*
X324348Y615750D01*
X323960Y617701D01*
X322855Y619355D01*
X321201Y620460D01*
X319250Y620848D01*
D02*
G37*
G36*
X106770Y623161D02*
Y609720D01*
X120211D01*
X120051Y611344D01*
X119207Y614128D01*
X117836Y616693D01*
X115991Y618941D01*
X113743Y620786D01*
X111178Y622157D01*
X108394Y623001D01*
X106770Y623161D01*
D02*
G37*
G36*
X104230D02*
X102605Y623001D01*
X99822Y622157D01*
X97257Y620786D01*
X95009Y618941D01*
X93164Y616693D01*
X91793Y614128D01*
X90949Y611344D01*
X90789Y609720D01*
X104230D01*
Y623161D01*
D02*
G37*
G36*
X333500Y614848D02*
X331549Y614460D01*
X329895Y613355D01*
X328790Y611701D01*
X328402Y609750D01*
X328790Y607799D01*
X329895Y606145D01*
X331549Y605040D01*
X333500Y604652D01*
X335451Y605040D01*
X337105Y606145D01*
X338210Y607799D01*
X338598Y609750D01*
X338210Y611701D01*
X337105Y613355D01*
X335451Y614460D01*
X333500Y614848D01*
D02*
G37*
G36*
X580000Y620900D02*
X562000D01*
Y602900D01*
X580000D01*
Y620900D01*
D02*
G37*
G36*
X120211Y607180D02*
X106770D01*
Y593739D01*
X108394Y593899D01*
X111178Y594743D01*
X113743Y596114D01*
X115991Y597959D01*
X117836Y600207D01*
X119207Y602772D01*
X120051Y605556D01*
X120211Y607180D01*
D02*
G37*
G36*
X104230D02*
X90789D01*
X90949Y605556D01*
X91793Y602772D01*
X93164Y600207D01*
X95009Y597959D01*
X97257Y596114D01*
X99822Y594743D01*
X102605Y593899D01*
X104230Y593739D01*
Y607180D01*
D02*
G37*
G36*
X194500Y622848D02*
X192549Y622460D01*
X190895Y621355D01*
X189790Y619701D01*
X189402Y617750D01*
X189790Y615799D01*
X190895Y614145D01*
X192549Y613040D01*
X193864Y612779D01*
X194132Y611430D01*
X193645Y611105D01*
X192540Y609451D01*
X192152Y607500D01*
X192540Y605549D01*
X193645Y603895D01*
X194965Y603013D01*
X195125Y601909D01*
X195053Y601544D01*
X194395Y601105D01*
X193290Y599451D01*
X192902Y597500D01*
X193290Y595549D01*
X194395Y593895D01*
X196049Y592790D01*
X198000Y592402D01*
X199951Y592790D01*
X201605Y593895D01*
X202710Y595549D01*
X203098Y597500D01*
X202710Y599451D01*
X201605Y601105D01*
X200285Y601987D01*
X200125Y603091D01*
X200197Y603456D01*
X200855Y603895D01*
X201960Y605549D01*
X202348Y607500D01*
X201960Y609451D01*
X200855Y611105D01*
X199201Y612210D01*
X197886Y612472D01*
X197618Y613820D01*
X198105Y614145D01*
X199210Y615799D01*
X199598Y617750D01*
X199210Y619701D01*
X198105Y621355D01*
X196451Y622460D01*
X194500Y622848D01*
D02*
G37*
G36*
X26000Y606479D02*
X23611Y606165D01*
X21386Y605243D01*
X19474Y603776D01*
X18008Y601865D01*
X17085Y599639D01*
X16771Y597250D01*
X17085Y594861D01*
X18008Y592635D01*
X19474Y590724D01*
X21386Y589258D01*
X23611Y588336D01*
X26000Y588021D01*
X28389Y588336D01*
X30615Y589258D01*
X32526Y590724D01*
X33993Y592635D01*
X34915Y594861D01*
X35229Y597250D01*
X34915Y599639D01*
X33993Y601865D01*
X32526Y603776D01*
X30615Y605243D01*
X28389Y606165D01*
X26000Y606479D01*
D02*
G37*
G36*
X784000Y603532D02*
X781520Y603205D01*
X779209Y602248D01*
X777225Y600725D01*
X775702Y598741D01*
X774745Y596430D01*
X774418Y593950D01*
X774745Y591470D01*
X775702Y589159D01*
X777225Y587174D01*
X779209Y585652D01*
X781520Y584695D01*
X784000Y584368D01*
X786480Y584695D01*
X788791Y585652D01*
X790776Y587174D01*
X792298Y589159D01*
X793255Y591470D01*
X793582Y593950D01*
X793255Y596430D01*
X792298Y598741D01*
X790776Y600725D01*
X788791Y602248D01*
X786480Y603205D01*
X784000Y603532D01*
D02*
G37*
G36*
X319000Y592848D02*
X317049Y592460D01*
X315395Y591355D01*
X314290Y589701D01*
X313902Y587750D01*
X314290Y585799D01*
X315395Y584145D01*
X317049Y583040D01*
X319000Y582652D01*
X320951Y583040D01*
X322605Y584145D01*
X323710Y585799D01*
X324098Y587750D01*
X323710Y589701D01*
X322605Y591355D01*
X320951Y592460D01*
X319000Y592848D01*
D02*
G37*
G36*
X339750Y590598D02*
X337799Y590210D01*
X336145Y589105D01*
X335040Y587451D01*
X334652Y585500D01*
X335040Y583549D01*
X336145Y581895D01*
X337799Y580790D01*
X339750Y580402D01*
X341701Y580790D01*
X343355Y581895D01*
X344460Y583549D01*
X344848Y585500D01*
X344460Y587451D01*
X343355Y589105D01*
X341701Y590210D01*
X339750Y590598D01*
D02*
G37*
G36*
X571000Y595578D02*
X568651Y595268D01*
X566461Y594361D01*
X564581Y592919D01*
X563139Y591039D01*
X562232Y588849D01*
X561922Y586500D01*
X562232Y584151D01*
X563139Y581961D01*
X564581Y580081D01*
X566461Y578638D01*
X568651Y577732D01*
X571000Y577422D01*
X573349Y577732D01*
X575539Y578638D01*
X577419Y580081D01*
X578862Y581961D01*
X579768Y584151D01*
X580078Y586500D01*
X579768Y588849D01*
X578862Y591039D01*
X577419Y592919D01*
X575539Y594361D01*
X573349Y595268D01*
X571000Y595578D01*
D02*
G37*
G36*
X426000Y585098D02*
X424049Y584710D01*
X422395Y583605D01*
X421290Y581951D01*
X420902Y580000D01*
X421290Y578049D01*
X422395Y576395D01*
X424049Y575290D01*
X426000Y574902D01*
X427951Y575290D01*
X429605Y576395D01*
X430710Y578049D01*
X431098Y580000D01*
X430710Y581951D01*
X429605Y583605D01*
X427951Y584710D01*
X426000Y585098D01*
D02*
G37*
G36*
X75000Y605986D02*
X71520Y605643D01*
X68175Y604628D01*
X65091Y602980D01*
X62388Y600762D01*
X60170Y598059D01*
X58522Y594976D01*
X57507Y591630D01*
X57164Y588150D01*
X57507Y584670D01*
X58522Y581325D01*
X60170Y578241D01*
X62388Y575538D01*
X65091Y573320D01*
X68175Y571672D01*
X71520Y570657D01*
X75000Y570314D01*
X78480Y570657D01*
X81826Y571672D01*
X84909Y573320D01*
X87612Y575538D01*
X89830Y578241D01*
X91478Y581325D01*
X92493Y584670D01*
X92836Y588150D01*
X92493Y591630D01*
X91478Y594976D01*
X89830Y598059D01*
X87612Y600762D01*
X84909Y602980D01*
X81826Y604628D01*
X78480Y605643D01*
X75000Y605986D01*
D02*
G37*
G36*
X146990Y583990D02*
X130010D01*
Y567010D01*
X146990D01*
Y583990D01*
D02*
G37*
G36*
X26000Y581079D02*
X23611Y580765D01*
X21386Y579842D01*
X19474Y578376D01*
X18008Y576465D01*
X17085Y574239D01*
X16771Y571850D01*
X17085Y569461D01*
X18008Y567235D01*
X19474Y565324D01*
X21386Y563857D01*
X23611Y562936D01*
X26000Y562621D01*
X28389Y562936D01*
X30615Y563857D01*
X32526Y565324D01*
X33993Y567235D01*
X34915Y569461D01*
X35229Y571850D01*
X34915Y574239D01*
X33993Y576465D01*
X32526Y578376D01*
X30615Y579842D01*
X28389Y580765D01*
X26000Y581079D01*
D02*
G37*
G36*
X452000Y572598D02*
X450049Y572210D01*
X448395Y571105D01*
X447290Y569451D01*
X446902Y567500D01*
X447290Y565549D01*
X448395Y563895D01*
X450049Y562790D01*
X452000Y562402D01*
X453951Y562790D01*
X455605Y563895D01*
X456710Y565549D01*
X457098Y567500D01*
X456710Y569451D01*
X455605Y571105D01*
X453951Y572210D01*
X452000Y572598D01*
D02*
G37*
G36*
X572270Y571059D02*
Y562370D01*
X580959D01*
X580782Y563721D01*
X579770Y566163D01*
X578161Y568261D01*
X576063Y569870D01*
X573621Y570882D01*
X572270Y571059D01*
D02*
G37*
G36*
X569730Y571059D02*
X568379Y570882D01*
X565937Y569870D01*
X563839Y568261D01*
X562230Y566163D01*
X561218Y563721D01*
X561041Y562370D01*
X569730D01*
Y571059D01*
D02*
G37*
G36*
X438750Y568348D02*
X436799Y567960D01*
X435145Y566855D01*
X434040Y565201D01*
X433652Y563250D01*
X434040Y561299D01*
X434327Y560870D01*
X433517Y559796D01*
X432000Y560098D01*
X430049Y559710D01*
X428395Y558605D01*
X427290Y556951D01*
X426902Y555000D01*
X427290Y553049D01*
X428395Y551395D01*
X430049Y550290D01*
X432000Y549902D01*
X433951Y550290D01*
X435605Y551395D01*
X436710Y553049D01*
X437098Y555000D01*
X436710Y556951D01*
X436423Y557380D01*
X437233Y558454D01*
X438750Y558152D01*
X440701Y558540D01*
X442355Y559645D01*
X443460Y561299D01*
X443848Y563250D01*
X443460Y565201D01*
X442355Y566855D01*
X440701Y567960D01*
X438750Y568348D01*
D02*
G37*
G36*
X784000Y578132D02*
X781520Y577805D01*
X779209Y576848D01*
X777225Y575325D01*
X775702Y573341D01*
X774745Y571030D01*
X774418Y568550D01*
X774745Y566070D01*
X775702Y563759D01*
X777225Y561774D01*
X779209Y560252D01*
X781520Y559295D01*
X784000Y558968D01*
X786480Y559295D01*
X788791Y560252D01*
X790776Y561774D01*
X792298Y563759D01*
X793255Y566070D01*
X793582Y568550D01*
X793255Y571030D01*
X792298Y573341D01*
X790776Y575325D01*
X788791Y576848D01*
X786480Y577805D01*
X784000Y578132D01*
D02*
G37*
G36*
X238750Y568848D02*
X236799Y568460D01*
X235145Y567355D01*
X234040Y565701D01*
X233652Y563750D01*
X234040Y561799D01*
X235145Y560145D01*
X236799Y559040D01*
X238750Y558652D01*
X240701Y559040D01*
X242355Y560145D01*
X243460Y561799D01*
X243848Y563750D01*
X243460Y565701D01*
X242355Y567355D01*
X240701Y568460D01*
X238750Y568848D01*
D02*
G37*
G36*
X288250Y566348D02*
X286299Y565960D01*
X284645Y564855D01*
X283540Y563201D01*
X283152Y561250D01*
X283540Y559299D01*
X284645Y557645D01*
X286299Y556540D01*
X288250Y556152D01*
X290201Y556540D01*
X291855Y557645D01*
X292960Y559299D01*
X293348Y561250D01*
X292960Y563201D01*
X291855Y564855D01*
X290201Y565960D01*
X288250Y566348D01*
D02*
G37*
G36*
X163900Y571363D02*
X161684Y571072D01*
X159618Y570216D01*
X157845Y568855D01*
X156484Y567082D01*
X155628Y565016D01*
X155337Y562800D01*
X155628Y560584D01*
X156484Y558518D01*
X157845Y556745D01*
X159618Y555384D01*
X161684Y554529D01*
X163900Y554237D01*
X166116Y554529D01*
X168182Y555384D01*
X169955Y556745D01*
X171316Y558518D01*
X172171Y560584D01*
X172463Y562800D01*
X172171Y565016D01*
X171316Y567082D01*
X169955Y568855D01*
X168182Y570216D01*
X166116Y571072D01*
X163900Y571363D01*
D02*
G37*
G36*
X359250Y563613D02*
X357299Y563225D01*
X355645Y562119D01*
X354540Y560466D01*
X354152Y558515D01*
X354540Y556564D01*
X355645Y554910D01*
X357299Y553805D01*
X359250Y553417D01*
X361201Y553805D01*
X362855Y554910D01*
X363960Y556564D01*
X364348Y558515D01*
X363960Y560466D01*
X362855Y562119D01*
X361201Y563225D01*
X359250Y563613D01*
D02*
G37*
G36*
X569730Y559830D02*
X561041D01*
X561218Y558479D01*
X562230Y556037D01*
X563839Y553939D01*
X565937Y552330D01*
X568379Y551318D01*
X569730Y551141D01*
Y559830D01*
D02*
G37*
G36*
X580959D02*
X572270D01*
Y551141D01*
X573621Y551318D01*
X576063Y552330D01*
X578161Y553939D01*
X579770Y556037D01*
X580782Y558479D01*
X580959Y559830D01*
D02*
G37*
G36*
X317250Y554598D02*
X315299Y554210D01*
X313645Y553105D01*
X312540Y551451D01*
X312152Y549500D01*
X312540Y547549D01*
X313645Y545895D01*
X315299Y544790D01*
X317250Y544402D01*
X319201Y544790D01*
X320855Y545895D01*
X321960Y547549D01*
X322348Y549500D01*
X321960Y551451D01*
X320855Y553105D01*
X319201Y554210D01*
X317250Y554598D01*
D02*
G37*
G36*
X138500Y558663D02*
X136284Y558372D01*
X134218Y557516D01*
X132445Y556155D01*
X131084Y554382D01*
X130229Y552316D01*
X129937Y550100D01*
X130229Y547884D01*
X131084Y545818D01*
X132445Y544045D01*
X134218Y542684D01*
X136284Y541829D01*
X138500Y541537D01*
X140716Y541829D01*
X142782Y542684D01*
X144555Y544045D01*
X145916Y545818D01*
X146771Y547884D01*
X147063Y550100D01*
X146771Y552316D01*
X145916Y554382D01*
X144555Y556155D01*
X142782Y557516D01*
X140716Y558372D01*
X138500Y558663D01*
D02*
G37*
G36*
X509500Y550098D02*
X507549Y549710D01*
X505895Y548605D01*
X504790Y546951D01*
X504402Y545000D01*
X504790Y543049D01*
X505895Y541395D01*
X507549Y540290D01*
X509500Y539902D01*
X511451Y540290D01*
X513105Y541395D01*
X514210Y543049D01*
X514598Y545000D01*
X514210Y546951D01*
X513105Y548605D01*
X511451Y549710D01*
X509500Y550098D01*
D02*
G37*
G36*
X759250Y623598D02*
X757299Y623210D01*
X755645Y622105D01*
X754540Y620451D01*
X754152Y618500D01*
X754540Y616549D01*
X755645Y614895D01*
X756191Y614530D01*
Y553750D01*
X756191Y553750D01*
X756424Y552579D01*
X757087Y551587D01*
X766587Y542087D01*
X766587Y542087D01*
X767579Y541424D01*
X768750Y541191D01*
X774676D01*
X774745Y540670D01*
X775702Y538359D01*
X777225Y536375D01*
X779209Y534852D01*
X781520Y533895D01*
X784000Y533568D01*
X786480Y533895D01*
X788791Y534852D01*
X790776Y536375D01*
X792298Y538359D01*
X793255Y540670D01*
X793582Y543150D01*
X793255Y545630D01*
X792298Y547941D01*
X790776Y549925D01*
X788791Y551448D01*
X786480Y552405D01*
X784000Y552732D01*
X781520Y552405D01*
X779209Y551448D01*
X777225Y549925D01*
X775702Y547941D01*
X775440Y547309D01*
X770017D01*
X762309Y555017D01*
Y614530D01*
X762855Y614895D01*
X763960Y616549D01*
X764348Y618500D01*
X763960Y620451D01*
X762855Y622105D01*
X761201Y623210D01*
X759250Y623598D01*
D02*
G37*
G36*
X163900Y545963D02*
X161684Y545672D01*
X159618Y544816D01*
X157845Y543455D01*
X156484Y541682D01*
X155628Y539616D01*
X155337Y537400D01*
X155628Y535184D01*
X156484Y533118D01*
X157845Y531345D01*
X159618Y529984D01*
X161684Y529129D01*
X163900Y528837D01*
X166116Y529129D01*
X168182Y529984D01*
X169955Y531345D01*
X171316Y533118D01*
X172171Y535184D01*
X172463Y537400D01*
X172171Y539616D01*
X171316Y541682D01*
X169955Y543455D01*
X168182Y544816D01*
X166116Y545672D01*
X163900Y545963D01*
D02*
G37*
G36*
X571000Y544778D02*
X568651Y544468D01*
X566461Y543561D01*
X564581Y542119D01*
X563139Y540239D01*
X562232Y538050D01*
X561922Y535700D01*
X562232Y533350D01*
X563139Y531161D01*
X564581Y529281D01*
X566461Y527839D01*
X568651Y526932D01*
X571000Y526622D01*
X573349Y526932D01*
X575539Y527839D01*
X577419Y529281D01*
X578862Y531161D01*
X579768Y533350D01*
X580078Y535700D01*
X579768Y538050D01*
X578862Y540239D01*
X577419Y542119D01*
X575539Y543561D01*
X573349Y544468D01*
X571000Y544778D01*
D02*
G37*
G36*
X400500Y528598D02*
X398549Y528210D01*
X396895Y527105D01*
X395790Y525451D01*
X395402Y523500D01*
X395790Y521549D01*
X396895Y519895D01*
X398549Y518790D01*
X400500Y518402D01*
X402451Y518790D01*
X404105Y519895D01*
X405210Y521549D01*
X405598Y523500D01*
X405210Y525451D01*
X404105Y527105D01*
X402451Y528210D01*
X400500Y528598D01*
D02*
G37*
G36*
X138500Y533263D02*
X136284Y532971D01*
X134218Y532116D01*
X132445Y530755D01*
X131084Y528982D01*
X130229Y526916D01*
X129937Y524700D01*
X130229Y522484D01*
X131084Y520418D01*
X132445Y518645D01*
X134218Y517284D01*
X136284Y516429D01*
X138500Y516137D01*
X140716Y516429D01*
X142782Y517284D01*
X144555Y518645D01*
X145916Y520418D01*
X146771Y522484D01*
X147063Y524700D01*
X146771Y526916D01*
X145916Y528982D01*
X144555Y530755D01*
X142782Y532116D01*
X140716Y532971D01*
X138500Y533263D01*
D02*
G37*
G36*
X362250Y525848D02*
X360299Y525460D01*
X358645Y524355D01*
X357540Y522701D01*
X357152Y520750D01*
X357540Y518799D01*
X358645Y517145D01*
X360299Y516040D01*
X362250Y515652D01*
X364201Y516040D01*
X365855Y517145D01*
X366960Y518799D01*
X367348Y520750D01*
X366960Y522701D01*
X365855Y524355D01*
X364201Y525460D01*
X362250Y525848D01*
D02*
G37*
G36*
X784000Y527332D02*
X781520Y527005D01*
X779209Y526048D01*
X777225Y524525D01*
X775702Y522541D01*
X774745Y520230D01*
X774418Y517750D01*
X774745Y515270D01*
X775702Y512959D01*
X777225Y510975D01*
X779209Y509452D01*
X781520Y508494D01*
X784000Y508168D01*
X786480Y508494D01*
X788791Y509452D01*
X790776Y510975D01*
X792298Y512959D01*
X793255Y515270D01*
X793582Y517750D01*
X793255Y520230D01*
X792298Y522541D01*
X790776Y524525D01*
X788791Y526048D01*
X786480Y527005D01*
X784000Y527332D01*
D02*
G37*
G36*
X163900Y520563D02*
X161684Y520271D01*
X159618Y519416D01*
X157845Y518055D01*
X156484Y516282D01*
X155628Y514216D01*
X155337Y512000D01*
X155628Y509784D01*
X156484Y507718D01*
X157845Y505945D01*
X159618Y504584D01*
X161684Y503729D01*
X163900Y503437D01*
X166116Y503729D01*
X168182Y504584D01*
X169955Y505945D01*
X171316Y507718D01*
X172171Y509784D01*
X172463Y512000D01*
X172171Y514216D01*
X171316Y516282D01*
X169955Y518055D01*
X168182Y519416D01*
X166116Y520271D01*
X163900Y520563D01*
D02*
G37*
G36*
X571000Y519378D02*
X568651Y519068D01*
X566461Y518161D01*
X564581Y516719D01*
X563139Y514839D01*
X562232Y512649D01*
X561922Y510300D01*
X562232Y507951D01*
X563139Y505761D01*
X564581Y503881D01*
X566461Y502439D01*
X568651Y501532D01*
X571000Y501222D01*
X573349Y501532D01*
X575539Y502439D01*
X577419Y503881D01*
X578862Y505761D01*
X579768Y507951D01*
X580078Y510300D01*
X579768Y512649D01*
X578862Y514839D01*
X577419Y516719D01*
X575539Y518161D01*
X573349Y519068D01*
X571000Y519378D01*
D02*
G37*
G36*
X509750Y519565D02*
X507799Y519177D01*
X506145Y518072D01*
X505040Y516418D01*
X504652Y514467D01*
X505040Y512516D01*
X506145Y510862D01*
Y510106D01*
X505395Y509605D01*
X504290Y507951D01*
X503902Y506000D01*
X504290Y504049D01*
X505395Y502395D01*
X507049Y501290D01*
X509000Y500902D01*
X510951Y501290D01*
X512605Y502395D01*
X513710Y504049D01*
X514098Y506000D01*
X513710Y507951D01*
X512605Y509605D01*
Y510361D01*
X513355Y510862D01*
X514460Y512516D01*
X514848Y514467D01*
X514460Y516418D01*
X513355Y518072D01*
X511701Y519177D01*
X509750Y519565D01*
D02*
G37*
G36*
X321500Y505348D02*
X319549Y504960D01*
X317895Y503855D01*
X316790Y502201D01*
X316402Y500250D01*
X316790Y498299D01*
X317895Y496645D01*
X319549Y495540D01*
X321500Y495152D01*
X323451Y495540D01*
X325105Y496645D01*
X326210Y498299D01*
X326598Y500250D01*
X326210Y502201D01*
X325105Y503855D01*
X323451Y504960D01*
X321500Y505348D01*
D02*
G37*
G36*
X354000Y502098D02*
X352049Y501710D01*
X350395Y500605D01*
X349290Y498951D01*
X348902Y497000D01*
X349290Y495049D01*
X350395Y493395D01*
X352049Y492290D01*
X354000Y491902D01*
X355951Y492290D01*
X357605Y493395D01*
X358710Y495049D01*
X359098Y497000D01*
X358710Y498951D01*
X357605Y500605D01*
X355951Y501710D01*
X354000Y502098D01*
D02*
G37*
G36*
X138500Y507863D02*
X136284Y507571D01*
X134218Y506716D01*
X132445Y505355D01*
X131084Y503582D01*
X130229Y501516D01*
X129937Y499300D01*
X130229Y497084D01*
X131084Y495018D01*
X132445Y493245D01*
X134218Y491884D01*
X136284Y491029D01*
X138500Y490737D01*
X140716Y491029D01*
X142782Y491884D01*
X144555Y493245D01*
X145916Y495018D01*
X146771Y497084D01*
X147063Y499300D01*
X146771Y501516D01*
X145916Y503582D01*
X144555Y505355D01*
X142782Y506716D01*
X140716Y507571D01*
X138500Y507863D01*
D02*
G37*
G36*
X282000Y499598D02*
X280049Y499210D01*
X278395Y498105D01*
X277290Y496451D01*
X276902Y494500D01*
X277290Y492549D01*
X278395Y490895D01*
X280049Y489790D01*
X282000Y489402D01*
X283951Y489790D01*
X285605Y490895D01*
X286710Y492549D01*
X287098Y494500D01*
X286710Y496451D01*
X285605Y498105D01*
X283951Y499210D01*
X282000Y499598D01*
D02*
G37*
G36*
X458000Y494098D02*
X456049Y493710D01*
X454395Y492605D01*
X453290Y490951D01*
X452902Y489000D01*
X453290Y487049D01*
X454395Y485395D01*
X456049Y484290D01*
X458000Y483902D01*
X459951Y484290D01*
X461605Y485395D01*
X462710Y487049D01*
X463098Y489000D01*
X462710Y490951D01*
X461605Y492605D01*
X459951Y493710D01*
X458000Y494098D01*
D02*
G37*
G36*
X230520Y490109D02*
Y481420D01*
X239209D01*
X239032Y482771D01*
X238020Y485213D01*
X236411Y487311D01*
X234313Y488920D01*
X231871Y489932D01*
X230520Y490109D01*
D02*
G37*
G36*
X227980Y490109D02*
X226629Y489932D01*
X224187Y488920D01*
X222089Y487311D01*
X220480Y485213D01*
X219468Y482771D01*
X219291Y481420D01*
X227980D01*
Y490109D01*
D02*
G37*
G36*
X26000Y499379D02*
X23611Y499064D01*
X21386Y498143D01*
X19474Y496676D01*
X18008Y494765D01*
X17085Y492539D01*
X16771Y490150D01*
X17085Y487761D01*
X18008Y485536D01*
X19474Y483624D01*
X21386Y482158D01*
X23611Y481236D01*
X26000Y480921D01*
X28389Y481236D01*
X30615Y482158D01*
X32526Y483624D01*
X33993Y485536D01*
X34915Y487761D01*
X35229Y490150D01*
X34915Y492539D01*
X33993Y494765D01*
X32526Y496676D01*
X30615Y498143D01*
X28389Y499064D01*
X26000Y499379D01*
D02*
G37*
G36*
X163900Y495163D02*
X161684Y494871D01*
X159618Y494016D01*
X157845Y492655D01*
X156484Y490882D01*
X155628Y488816D01*
X155337Y486600D01*
X155628Y484384D01*
X156484Y482318D01*
X157845Y480545D01*
X159618Y479184D01*
X161684Y478329D01*
X163900Y478037D01*
X166116Y478329D01*
X168182Y479184D01*
X169955Y480545D01*
X171316Y482318D01*
X172171Y484384D01*
X172463Y486600D01*
X172171Y488816D01*
X171316Y490882D01*
X169955Y492655D01*
X168182Y494016D01*
X166116Y494871D01*
X163900Y495163D01*
D02*
G37*
G36*
X448250Y486598D02*
X446299Y486210D01*
X444645Y485105D01*
X443540Y483451D01*
X443152Y481500D01*
X443540Y479549D01*
X444645Y477895D01*
X446299Y476790D01*
X448250Y476402D01*
X450201Y476790D01*
X451855Y477895D01*
X452960Y479549D01*
X453348Y481500D01*
X452960Y483451D01*
X451855Y485105D01*
X450201Y486210D01*
X448250Y486598D01*
D02*
G37*
G36*
X693500Y482098D02*
X691549Y481710D01*
X689895Y480605D01*
X688790Y478951D01*
X688402Y477000D01*
X688790Y475049D01*
X689895Y473395D01*
X691549Y472290D01*
X693500Y471902D01*
X695451Y472290D01*
X697105Y473395D01*
X698210Y475049D01*
X698598Y477000D01*
X698210Y478951D01*
X697105Y480605D01*
X695451Y481710D01*
X693500Y482098D01*
D02*
G37*
G36*
X645000Y481348D02*
X643049Y480960D01*
X641395Y479855D01*
X640290Y478201D01*
X639902Y476250D01*
X640290Y474299D01*
X641395Y472645D01*
X643049Y471540D01*
X645000Y471152D01*
X646951Y471540D01*
X648605Y472645D01*
X649710Y474299D01*
X650098Y476250D01*
X649710Y478201D01*
X648605Y479855D01*
X646951Y480960D01*
X645000Y481348D01*
D02*
G37*
G36*
X717750Y480598D02*
X715799Y480210D01*
X714145Y479105D01*
X713040Y477451D01*
X712652Y475500D01*
X713040Y473549D01*
X714145Y471895D01*
X715799Y470790D01*
X717750Y470402D01*
X719701Y470790D01*
X721355Y471895D01*
X722460Y473549D01*
X722848Y475500D01*
X722460Y477451D01*
X721355Y479105D01*
X719701Y480210D01*
X717750Y480598D01*
D02*
G37*
G36*
X239209Y478880D02*
X230520D01*
Y470191D01*
X231871Y470368D01*
X234313Y471380D01*
X236411Y472989D01*
X238020Y475087D01*
X239032Y477529D01*
X239209Y478880D01*
D02*
G37*
G36*
X227980D02*
X219291D01*
X219468Y477529D01*
X220480Y475087D01*
X222089Y472989D01*
X224187Y471380D01*
X226629Y470368D01*
X227980Y470191D01*
Y478880D01*
D02*
G37*
G36*
X785270Y477414D02*
Y468220D01*
X794464D01*
X794269Y469701D01*
X793207Y472266D01*
X791517Y474467D01*
X789315Y476157D01*
X786751Y477219D01*
X785270Y477414D01*
D02*
G37*
G36*
X782730Y477414D02*
X781248Y477219D01*
X778684Y476157D01*
X776483Y474467D01*
X774793Y472266D01*
X773731Y469701D01*
X773536Y468220D01*
X782730D01*
Y477414D01*
D02*
G37*
G36*
X280000Y487348D02*
X278049Y486960D01*
X276395Y485855D01*
X275290Y484201D01*
X274902Y482250D01*
X275290Y480299D01*
X276395Y478645D01*
X276766Y478397D01*
X276498Y477049D01*
X276049Y476960D01*
X274395Y475855D01*
X273290Y474201D01*
X272902Y472250D01*
X273290Y470299D01*
X274395Y468645D01*
X276049Y467540D01*
X278000Y467152D01*
X279951Y467540D01*
X281605Y468645D01*
X282710Y470299D01*
X283098Y472250D01*
X282710Y474201D01*
X281605Y475855D01*
X281234Y476103D01*
X281502Y477451D01*
X281951Y477540D01*
X283605Y478645D01*
X284710Y480299D01*
X285098Y482250D01*
X284710Y484201D01*
X283605Y485855D01*
X281951Y486960D01*
X280000Y487348D01*
D02*
G37*
G36*
X461000Y477098D02*
X459049Y476710D01*
X457395Y475605D01*
X456290Y473951D01*
X455902Y472000D01*
X456290Y470049D01*
X457395Y468395D01*
X459049Y467290D01*
X461000Y466902D01*
X462951Y467290D01*
X464605Y468395D01*
X465710Y470049D01*
X466098Y472000D01*
X465710Y473951D01*
X464605Y475605D01*
X462951Y476710D01*
X461000Y477098D01*
D02*
G37*
G36*
X782730Y465680D02*
X773536D01*
X773731Y464198D01*
X774793Y461634D01*
X776483Y459433D01*
X778684Y457743D01*
X781248Y456681D01*
X782730Y456486D01*
Y465680D01*
D02*
G37*
G36*
X794464D02*
X785270D01*
Y456486D01*
X786751Y456681D01*
X789315Y457743D01*
X791517Y459433D01*
X793207Y461634D01*
X794269Y464198D01*
X794464Y465680D01*
D02*
G37*
G36*
X75000Y491686D02*
X71520Y491343D01*
X68175Y490328D01*
X65091Y488680D01*
X62388Y486462D01*
X60170Y483759D01*
X58522Y480676D01*
X57507Y477330D01*
X57164Y473850D01*
X57507Y470370D01*
X58522Y467024D01*
X60170Y463941D01*
X62388Y461238D01*
X65091Y459020D01*
X68175Y457372D01*
X71520Y456357D01*
X75000Y456014D01*
X78480Y456357D01*
X81826Y457372D01*
X84909Y459020D01*
X87612Y461238D01*
X89830Y463941D01*
X91478Y467024D01*
X92493Y470370D01*
X92836Y473850D01*
X92493Y477330D01*
X91478Y480676D01*
X89830Y483759D01*
X87612Y486462D01*
X84909Y488680D01*
X81826Y490328D01*
X78480Y491343D01*
X75000Y491686D01*
D02*
G37*
G36*
X26000Y473979D02*
X23611Y473665D01*
X21386Y472743D01*
X19474Y471276D01*
X18008Y469365D01*
X17085Y467139D01*
X16771Y464750D01*
X17085Y462361D01*
X18008Y460135D01*
X19474Y458224D01*
X21386Y456758D01*
X23611Y455835D01*
X26000Y455521D01*
X28389Y455835D01*
X30615Y456758D01*
X32526Y458224D01*
X33993Y460135D01*
X34915Y462361D01*
X35229Y464750D01*
X34915Y467139D01*
X33993Y469365D01*
X32526Y471276D01*
X30615Y472743D01*
X28389Y473665D01*
X26000Y473979D01*
D02*
G37*
G36*
X106770Y468261D02*
Y454820D01*
X120211D01*
X120051Y456445D01*
X119207Y459228D01*
X117836Y461793D01*
X115991Y464041D01*
X113743Y465886D01*
X111178Y467257D01*
X108394Y468101D01*
X106770Y468261D01*
D02*
G37*
G36*
X104230D02*
X102605Y468101D01*
X99822Y467257D01*
X97257Y465886D01*
X95009Y464041D01*
X93164Y461793D01*
X91793Y459228D01*
X90949Y456445D01*
X90789Y454820D01*
X104230D01*
Y468261D01*
D02*
G37*
G36*
X694250Y461598D02*
X692299Y461210D01*
X690645Y460105D01*
X689540Y458451D01*
X689152Y456500D01*
X689540Y454549D01*
X690645Y452895D01*
X692299Y451790D01*
X694250Y451402D01*
X696201Y451790D01*
X697855Y452895D01*
X698960Y454549D01*
X699348Y456500D01*
X698960Y458451D01*
X697855Y460105D01*
X696201Y461210D01*
X694250Y461598D01*
D02*
G37*
G36*
X322500Y457098D02*
X320549Y456710D01*
X318895Y455605D01*
X317790Y453951D01*
X317402Y452000D01*
X317790Y450049D01*
X318895Y448395D01*
X320549Y447290D01*
X322500Y446902D01*
X324451Y447290D01*
X326105Y448395D01*
X327210Y450049D01*
X327598Y452000D01*
X327210Y453951D01*
X326105Y455605D01*
X324451Y456710D01*
X322500Y457098D01*
D02*
G37*
G36*
X229250Y463828D02*
X226901Y463518D01*
X224711Y462611D01*
X222831Y461169D01*
X221389Y459289D01*
X220482Y457099D01*
X220172Y454750D01*
X220482Y452401D01*
X221389Y450211D01*
X222831Y448331D01*
X224711Y446889D01*
X226901Y445982D01*
X229250Y445672D01*
X231600Y445982D01*
X233789Y446889D01*
X235669Y448331D01*
X237111Y450211D01*
X238018Y452401D01*
X238328Y454750D01*
X238018Y457099D01*
X237111Y459289D01*
X235669Y461169D01*
X233789Y462611D01*
X231600Y463518D01*
X229250Y463828D01*
D02*
G37*
G36*
X120211Y452280D02*
X106770D01*
Y438839D01*
X108394Y438999D01*
X111178Y439843D01*
X113743Y441214D01*
X115991Y443059D01*
X117836Y445307D01*
X119207Y447872D01*
X120051Y450656D01*
X120211Y452280D01*
D02*
G37*
G36*
X104230D02*
X90789D01*
X90949Y450656D01*
X91793Y447872D01*
X93164Y445307D01*
X95009Y443059D01*
X97257Y441214D01*
X99822Y439843D01*
X102605Y438999D01*
X104230Y438839D01*
Y452280D01*
D02*
G37*
G36*
X356500Y447598D02*
X354549Y447210D01*
X352895Y446105D01*
X351790Y444451D01*
X351402Y442500D01*
X351790Y440549D01*
X352895Y438895D01*
X354549Y437790D01*
X356500Y437402D01*
X358451Y437790D01*
X360105Y438895D01*
X361210Y440549D01*
X361598Y442500D01*
X361210Y444451D01*
X360105Y446105D01*
X358451Y447210D01*
X356500Y447598D01*
D02*
G37*
G36*
X793500Y451050D02*
X774500D01*
Y432050D01*
X793500D01*
Y451050D01*
D02*
G37*
G36*
X190000Y433348D02*
X188049Y432960D01*
X186395Y431855D01*
X185290Y430201D01*
X184902Y428250D01*
X185290Y426299D01*
X186395Y424645D01*
X188049Y423540D01*
X190000Y423152D01*
X191951Y423540D01*
X193605Y424645D01*
X194710Y426299D01*
X195098Y428250D01*
X194710Y430201D01*
X193605Y431855D01*
X191951Y432960D01*
X190000Y433348D01*
D02*
G37*
G36*
X364000Y432098D02*
X362049Y431710D01*
X360395Y430605D01*
X359290Y428951D01*
X358902Y427000D01*
X359290Y425049D01*
X360395Y423395D01*
X362049Y422290D01*
X364000Y421902D01*
X365951Y422290D01*
X367605Y423395D01*
X368710Y425049D01*
X369098Y427000D01*
X368710Y428951D01*
X367605Y430605D01*
X365951Y431710D01*
X364000Y432098D01*
D02*
G37*
G36*
X229250Y438428D02*
X226901Y438118D01*
X224711Y437211D01*
X222831Y435769D01*
X221389Y433889D01*
X220482Y431699D01*
X220172Y429350D01*
X220482Y427001D01*
X221389Y424811D01*
X222831Y422931D01*
X224711Y421488D01*
X226901Y420582D01*
X229250Y420272D01*
X231600Y420582D01*
X233789Y421488D01*
X235669Y422931D01*
X237111Y424811D01*
X238018Y427001D01*
X238328Y429350D01*
X238018Y431699D01*
X237111Y433889D01*
X235669Y435769D01*
X233789Y437211D01*
X231600Y438118D01*
X229250Y438428D01*
D02*
G37*
G36*
X582500Y426098D02*
X580549Y425710D01*
X578895Y424605D01*
X577790Y422951D01*
X577402Y421000D01*
X577790Y419049D01*
X578895Y417395D01*
X580549Y416290D01*
X582500Y415902D01*
X584451Y416290D01*
X586105Y417395D01*
X587210Y419049D01*
X587598Y421000D01*
X587210Y422951D01*
X586105Y424605D01*
X584451Y425710D01*
X582500Y426098D01*
D02*
G37*
G36*
X524500Y421598D02*
X522549Y421210D01*
X520895Y420105D01*
X519790Y418451D01*
X519402Y416500D01*
X519790Y414549D01*
X520895Y412895D01*
X522549Y411790D01*
X524500Y411402D01*
X526451Y411790D01*
X528105Y412895D01*
X529210Y414549D01*
X529598Y416500D01*
X529210Y418451D01*
X528105Y420105D01*
X526451Y421210D01*
X524500Y421598D01*
D02*
G37*
G36*
X461750Y421348D02*
X459799Y420960D01*
X458145Y419855D01*
X457040Y418201D01*
X456652Y416250D01*
X457040Y414299D01*
X458145Y412645D01*
X459799Y411540D01*
X461750Y411152D01*
X463701Y411540D01*
X465355Y412645D01*
X466460Y414299D01*
X466848Y416250D01*
X466460Y418201D01*
X465355Y419855D01*
X463701Y420960D01*
X461750Y421348D01*
D02*
G37*
G36*
X692270Y416705D02*
Y408520D01*
X700455D01*
X700294Y409740D01*
X699333Y412061D01*
X697804Y414054D01*
X695811Y415583D01*
X693490Y416544D01*
X692270Y416705D01*
D02*
G37*
G36*
X689730D02*
X688510Y416544D01*
X686189Y415583D01*
X684196Y414054D01*
X682667Y412061D01*
X681705Y409740D01*
X681545Y408520D01*
X689730D01*
Y416705D01*
D02*
G37*
G36*
X443000Y422848D02*
X441049Y422460D01*
X439395Y421355D01*
X438290Y419701D01*
X437902Y417750D01*
X438290Y415799D01*
X439395Y414145D01*
X441049Y413040D01*
X443000Y412652D01*
X443843Y412820D01*
X444236Y412460D01*
X444741Y411703D01*
X444402Y410000D01*
X444790Y408049D01*
X445895Y406395D01*
X447549Y405290D01*
X449500Y404902D01*
X451451Y405290D01*
X453105Y406395D01*
X454210Y408049D01*
X454598Y410000D01*
X454210Y411951D01*
X453105Y413605D01*
X451451Y414710D01*
X449500Y415098D01*
X448657Y414930D01*
X448264Y415290D01*
X447759Y416047D01*
X448098Y417750D01*
X447710Y419701D01*
X446605Y421355D01*
X444951Y422460D01*
X443000Y422848D01*
D02*
G37*
G36*
X395250Y406598D02*
X393299Y406210D01*
X391645Y405105D01*
X391014Y404160D01*
X389486D01*
X388855Y405105D01*
X387201Y406210D01*
X385250Y406598D01*
X383299Y406210D01*
X381645Y405105D01*
X380930Y404035D01*
X379447Y403969D01*
X378855Y404855D01*
X377201Y405960D01*
X375250Y406348D01*
X373299Y405960D01*
X371645Y404855D01*
X370930Y403785D01*
X369447Y403719D01*
X368855Y404605D01*
X367201Y405710D01*
X365250Y406098D01*
X363299Y405710D01*
X361645Y404605D01*
X360540Y402951D01*
X360152Y401000D01*
X360540Y399049D01*
X361645Y397395D01*
X363299Y396290D01*
X365250Y395902D01*
X367201Y396290D01*
X368855Y397395D01*
X369570Y398465D01*
X371053Y398531D01*
X371645Y397645D01*
X373299Y396540D01*
X375250Y396152D01*
X377201Y396540D01*
X378855Y397645D01*
X379570Y398715D01*
X381053Y398781D01*
X381645Y397895D01*
X383299Y396790D01*
X385250Y396402D01*
X387201Y396790D01*
X388855Y397895D01*
X389486Y398840D01*
X391014D01*
X391645Y397895D01*
X393299Y396790D01*
X395250Y396402D01*
X397201Y396790D01*
X398855Y397895D01*
X399960Y399549D01*
X400348Y401500D01*
X399960Y403451D01*
X398855Y405105D01*
X397201Y406210D01*
X395250Y406598D01*
D02*
G37*
G36*
X471750Y414098D02*
X469799Y413710D01*
X468145Y412605D01*
X467040Y410951D01*
X466652Y409000D01*
X467040Y407049D01*
X468145Y405395D01*
X469799Y404290D01*
X471750Y403902D01*
X473701Y404290D01*
X475355Y405395D01*
X476460Y407049D01*
X476848Y409000D01*
X476460Y410951D01*
X475355Y412605D01*
X473701Y413710D01*
X471750Y414098D01*
D02*
G37*
G36*
X268250Y409598D02*
X266299Y409210D01*
X264645Y408105D01*
X263540Y406451D01*
X263152Y404500D01*
X263540Y402549D01*
X264645Y400895D01*
X266299Y399790D01*
X268250Y399402D01*
X270201Y399790D01*
X271855Y400895D01*
X272960Y402549D01*
X273348Y404500D01*
X272960Y406451D01*
X271855Y408105D01*
X270201Y409210D01*
X268250Y409598D01*
D02*
G37*
G36*
X649500Y415750D02*
X632500D01*
Y398750D01*
X649500D01*
Y415750D01*
D02*
G37*
G36*
X700455Y405980D02*
X692270D01*
Y397795D01*
X693490Y397956D01*
X695811Y398917D01*
X697804Y400446D01*
X699333Y402439D01*
X700294Y404760D01*
X700455Y405980D01*
D02*
G37*
G36*
X689730D02*
X681545D01*
X681705Y404760D01*
X682667Y402439D01*
X684196Y400446D01*
X686189Y398917D01*
X688510Y397956D01*
X689730Y397795D01*
Y405980D01*
D02*
G37*
G36*
X238250Y412950D02*
X220250D01*
Y394950D01*
X238250D01*
Y412950D01*
D02*
G37*
G36*
X726000Y401598D02*
X724049Y401210D01*
X722395Y400105D01*
X721290Y398451D01*
X720902Y396500D01*
X721290Y394549D01*
X722395Y392895D01*
X724049Y391790D01*
X726000Y391402D01*
X727951Y391790D01*
X729605Y392895D01*
X730710Y394549D01*
X731098Y396500D01*
X730710Y398451D01*
X729605Y400105D01*
X727951Y401210D01*
X726000Y401598D01*
D02*
G37*
G36*
X216500Y383848D02*
X214549Y383460D01*
X212895Y382355D01*
X211930Y380910D01*
X211040Y380732D01*
X210506Y380755D01*
X210105Y381355D01*
X208451Y382460D01*
X206500Y382848D01*
X204549Y382460D01*
X202895Y381355D01*
X201790Y379701D01*
X201402Y377750D01*
X201790Y375799D01*
X202895Y374145D01*
X204549Y373040D01*
X206500Y372652D01*
X208451Y373040D01*
X210105Y374145D01*
X211070Y375590D01*
X211960Y375768D01*
X212494Y375746D01*
X212895Y375145D01*
X214549Y374040D01*
X216500Y373652D01*
X218451Y374040D01*
X220105Y375145D01*
X221210Y376799D01*
X221598Y378750D01*
X221210Y380701D01*
X220105Y382355D01*
X218451Y383460D01*
X216500Y383848D01*
D02*
G37*
G36*
X339750Y389348D02*
X337799Y388960D01*
X336145Y387855D01*
X335040Y386201D01*
X334652Y384250D01*
X335040Y382299D01*
X336145Y380645D01*
X337799Y379540D01*
X339750Y379152D01*
X341701Y379540D01*
X343355Y380645D01*
X344460Y382299D01*
X344848Y384250D01*
X344460Y386201D01*
X343355Y387855D01*
X341701Y388960D01*
X339750Y389348D01*
D02*
G37*
G36*
X310000Y385598D02*
X308049Y385210D01*
X306395Y384105D01*
X305290Y382451D01*
X304902Y380500D01*
X305290Y378549D01*
X306395Y376895D01*
X308049Y375790D01*
X310000Y375402D01*
X311951Y375790D01*
X313605Y376895D01*
X314710Y378549D01*
X315098Y380500D01*
X314710Y382451D01*
X313605Y384105D01*
X311951Y385210D01*
X310000Y385598D01*
D02*
G37*
G36*
X407721Y375800D02*
X405770Y375412D01*
X404116Y374307D01*
X403223Y372970D01*
X401767Y372416D01*
X401701Y372460D01*
X399750Y372848D01*
X397799Y372460D01*
X396145Y371355D01*
X396052Y371215D01*
X394782D01*
X394355Y371855D01*
X392701Y372960D01*
X390750Y373348D01*
X388799Y372960D01*
X387145Y371855D01*
X386205Y370448D01*
X385634Y370335D01*
X385366D01*
X384795Y370448D01*
X383855Y371855D01*
X382201Y372960D01*
X380250Y373348D01*
X378299Y372960D01*
X376645Y371855D01*
X375831Y370636D01*
X375798Y370623D01*
X374452D01*
X374419Y370636D01*
X373605Y371855D01*
X371951Y372960D01*
X370000Y373348D01*
X368049Y372960D01*
X366395Y371855D01*
X365290Y370201D01*
X364902Y368250D01*
X365290Y366299D01*
X366395Y364645D01*
X368049Y363540D01*
X370000Y363152D01*
X371951Y363540D01*
X373605Y364645D01*
X374419Y365864D01*
X374452Y365877D01*
X375798D01*
X375831Y365864D01*
X376645Y364645D01*
X378299Y363540D01*
X380250Y363152D01*
X382201Y363540D01*
X383855Y364645D01*
X384795Y366051D01*
X385366Y366165D01*
X385634D01*
X386205Y366051D01*
X387145Y364645D01*
X388799Y363540D01*
X390750Y363152D01*
X392701Y363540D01*
X394355Y364645D01*
X394448Y364785D01*
X395718D01*
X396145Y364145D01*
X397799Y363040D01*
X399750Y362652D01*
X401701Y363040D01*
X403355Y364145D01*
X404460Y365799D01*
X405153Y366086D01*
X405792Y365988D01*
X407721Y365604D01*
X409672Y365992D01*
X411326Y367097D01*
X412431Y368751D01*
X412819Y370702D01*
X412431Y372653D01*
X411326Y374307D01*
X409672Y375412D01*
X407721Y375800D01*
D02*
G37*
G36*
X331000Y378098D02*
X329049Y377710D01*
X327395Y376605D01*
X326290Y374951D01*
X325902Y373000D01*
X326290Y371049D01*
X327395Y369395D01*
X329049Y368290D01*
X331000Y367902D01*
X332951Y368290D01*
X334605Y369395D01*
X335710Y371049D01*
X336098Y373000D01*
X335710Y374951D01*
X334605Y376605D01*
X332951Y377710D01*
X331000Y378098D01*
D02*
G37*
G36*
X253750Y374348D02*
X251799Y373960D01*
X250145Y372855D01*
X249040Y371201D01*
X248652Y369250D01*
X249040Y367299D01*
X250145Y365645D01*
X251799Y364540D01*
X253750Y364152D01*
X255701Y364540D01*
X257355Y365645D01*
X258460Y367299D01*
X258848Y369250D01*
X258460Y371201D01*
X257355Y372855D01*
X255701Y373960D01*
X253750Y374348D01*
D02*
G37*
G36*
X284500Y372848D02*
X282549Y372460D01*
X280895Y371355D01*
X279790Y369701D01*
X279402Y367750D01*
X279790Y365799D01*
X280895Y364145D01*
X282549Y363040D01*
X284500Y362652D01*
X286451Y363040D01*
X288105Y364145D01*
X289210Y365799D01*
X289598Y367750D01*
X289210Y369701D01*
X288105Y371355D01*
X286451Y372460D01*
X284500Y372848D01*
D02*
G37*
G36*
X452750Y368848D02*
X450799Y368460D01*
X449145Y367355D01*
X448040Y365701D01*
X447652Y363750D01*
X448040Y361799D01*
X449145Y360145D01*
X450799Y359040D01*
X452750Y358652D01*
X454701Y359040D01*
X456355Y360145D01*
X457460Y361799D01*
X457848Y363750D01*
X457460Y365701D01*
X456355Y367355D01*
X454701Y368460D01*
X452750Y368848D01*
D02*
G37*
G36*
X433000Y369348D02*
X431049Y368960D01*
X429395Y367855D01*
X428290Y366201D01*
X427902Y364250D01*
X428290Y362299D01*
X429395Y360645D01*
X431049Y359540D01*
X432698Y359212D01*
X433242Y358587D01*
X433510Y357959D01*
X433173Y356267D01*
X433562Y354316D01*
X434667Y352663D01*
X436320Y351558D01*
X438271Y351169D01*
X440222Y351558D01*
X441876Y352663D01*
X442981Y354316D01*
X443369Y356267D01*
X442981Y358218D01*
X441876Y359872D01*
X440222Y360977D01*
X438573Y361305D01*
X438030Y361931D01*
X437762Y362559D01*
X438098Y364250D01*
X437710Y366201D01*
X436605Y367855D01*
X434951Y368960D01*
X433000Y369348D01*
D02*
G37*
G36*
X491250Y360098D02*
X489299Y359710D01*
X487645Y358605D01*
X486540Y356951D01*
X486152Y355000D01*
X486540Y353049D01*
X487645Y351395D01*
X489299Y350290D01*
X491250Y349902D01*
X493201Y350290D01*
X494855Y351395D01*
X495960Y353049D01*
X496348Y355000D01*
X495960Y356951D01*
X494855Y358605D01*
X493201Y359710D01*
X491250Y360098D01*
D02*
G37*
G36*
X284250Y354098D02*
X282299Y353710D01*
X280645Y352605D01*
X279540Y350951D01*
X279152Y349000D01*
X279540Y347049D01*
X280645Y345395D01*
X282299Y344290D01*
X284250Y343902D01*
X286201Y344290D01*
X287855Y345395D01*
X288960Y347049D01*
X289348Y349000D01*
X288960Y350951D01*
X287855Y352605D01*
X286201Y353710D01*
X284250Y354098D01*
D02*
G37*
G36*
X370250Y352098D02*
X368299Y351710D01*
X366645Y350605D01*
X365540Y348951D01*
X365152Y347000D01*
X365540Y345049D01*
X366645Y343395D01*
X368299Y342290D01*
X370250Y341902D01*
X372201Y342290D01*
X373855Y343395D01*
X374960Y345049D01*
X375348Y347000D01*
X374960Y348951D01*
X373855Y350605D01*
X372201Y351710D01*
X370250Y352098D01*
D02*
G37*
G36*
X444500Y349348D02*
X442549Y348960D01*
X440895Y347855D01*
X439790Y346201D01*
X439402Y344250D01*
X439790Y342299D01*
X440895Y340645D01*
X442549Y339540D01*
X444500Y339152D01*
X446451Y339540D01*
X448105Y340645D01*
X449210Y342299D01*
X449598Y344250D01*
X449210Y346201D01*
X448105Y347855D01*
X446451Y348960D01*
X444500Y349348D01*
D02*
G37*
G36*
X253750Y347348D02*
X251799Y346960D01*
X250145Y345855D01*
X249040Y344201D01*
X248652Y342250D01*
X249040Y340299D01*
X250145Y338645D01*
X251799Y337540D01*
X253750Y337152D01*
X255701Y337540D01*
X257355Y338645D01*
X258460Y340299D01*
X258848Y342250D01*
X258460Y344201D01*
X257355Y345855D01*
X255701Y346960D01*
X253750Y347348D01*
D02*
G37*
G36*
X59750Y349500D02*
X45250D01*
Y335000D01*
X59750D01*
Y349500D01*
D02*
G37*
G36*
X32500Y349562D02*
X30607Y349313D01*
X28844Y348583D01*
X27329Y347421D01*
X26167Y345906D01*
X25437Y344143D01*
X25187Y342250D01*
X25437Y340357D01*
X26167Y338594D01*
X27329Y337079D01*
X28844Y335917D01*
X30607Y335187D01*
X32500Y334937D01*
X34393Y335187D01*
X36156Y335917D01*
X37671Y337079D01*
X38833Y338594D01*
X39563Y340357D01*
X39813Y342250D01*
X39563Y344143D01*
X38833Y345906D01*
X37671Y347421D01*
X36156Y348583D01*
X34393Y349313D01*
X32500Y349562D01*
D02*
G37*
G36*
X230520Y343459D02*
Y334770D01*
X239209D01*
X239032Y336121D01*
X238020Y338563D01*
X236411Y340661D01*
X234313Y342270D01*
X231871Y343282D01*
X230520Y343459D01*
D02*
G37*
G36*
X227980Y343459D02*
X226629Y343282D01*
X224187Y342270D01*
X222089Y340661D01*
X220480Y338563D01*
X219468Y336121D01*
X219291Y334770D01*
X227980D01*
Y343459D01*
D02*
G37*
G36*
X747770Y340455D02*
Y332270D01*
X755955D01*
X755794Y333490D01*
X754833Y335811D01*
X753304Y337804D01*
X751311Y339333D01*
X748990Y340294D01*
X747770Y340455D01*
D02*
G37*
G36*
X745230Y340455D02*
X744010Y340294D01*
X741689Y339333D01*
X739696Y337804D01*
X738167Y335811D01*
X737206Y333490D01*
X737045Y332270D01*
X745230D01*
Y340455D01*
D02*
G37*
G36*
X97250Y367250D02*
X73250D01*
Y343250D01*
X97250D01*
Y352603D01*
X97425Y352618D01*
X97762Y352627D01*
X97928Y352701D01*
X129194D01*
X200998Y280898D01*
X201824Y280345D01*
X202800Y280151D01*
X220564D01*
X221389Y278161D01*
X222831Y276281D01*
X224711Y274839D01*
X226901Y273932D01*
X229250Y273622D01*
X231600Y273932D01*
X233789Y274839D01*
X235669Y276281D01*
X237111Y278161D01*
X237936Y280151D01*
X260632D01*
X261282Y279104D01*
X261276Y278881D01*
X260902Y277000D01*
X261290Y275049D01*
X262395Y273395D01*
X264049Y272290D01*
X266000Y271902D01*
X267951Y272290D01*
X269605Y273395D01*
X270710Y275049D01*
X271098Y277000D01*
X270710Y278951D01*
X269605Y280605D01*
X267951Y281710D01*
X266833Y281932D01*
X266415Y283310D01*
X287552Y304448D01*
X288105Y305275D01*
X288299Y306250D01*
Y319940D01*
X289355Y320645D01*
X290460Y322299D01*
X290848Y324250D01*
X290460Y326201D01*
X289355Y327855D01*
X287701Y328960D01*
X285750Y329348D01*
X284812Y329161D01*
X284187Y330332D01*
X285755Y331900D01*
X287000Y331652D01*
X288951Y332040D01*
X290605Y333145D01*
X291710Y334799D01*
X292098Y336750D01*
X291710Y338701D01*
X290605Y340355D01*
X288951Y341460D01*
X287000Y341848D01*
X285049Y341460D01*
X283395Y340355D01*
X282290Y338701D01*
X281902Y336750D01*
X282150Y335504D01*
X253198Y306552D01*
X252645Y305725D01*
X252451Y304750D01*
Y293310D01*
X251395Y292605D01*
X250290Y290951D01*
X249902Y289000D01*
X250290Y287049D01*
X250644Y286519D01*
X249965Y285249D01*
X237936D01*
X237111Y287239D01*
X235669Y289119D01*
X233789Y290561D01*
X231600Y291468D01*
X229250Y291778D01*
X226901Y291468D01*
X224711Y290561D01*
X222831Y289119D01*
X221389Y287239D01*
X220564Y285249D01*
X203856D01*
X132052Y357052D01*
X131226Y357605D01*
X130250Y357799D01*
X97928D01*
X97762Y357873D01*
X97425Y357882D01*
X97250Y357897D01*
Y367250D01*
D02*
G37*
G36*
X450500Y334348D02*
X448549Y333960D01*
X446895Y332855D01*
X445790Y331201D01*
X445402Y329250D01*
X445790Y327299D01*
X446895Y325645D01*
X448549Y324540D01*
X450500Y324152D01*
X452451Y324540D01*
X454105Y325645D01*
X455210Y327299D01*
X455598Y329250D01*
X455210Y331201D01*
X454105Y332855D01*
X452451Y333960D01*
X450500Y334348D01*
D02*
G37*
G36*
X239209Y332230D02*
X230520D01*
Y323541D01*
X231871Y323718D01*
X234313Y324730D01*
X236411Y326339D01*
X238020Y328437D01*
X239032Y330879D01*
X239209Y332230D01*
D02*
G37*
G36*
X227980D02*
X219291D01*
X219468Y330879D01*
X220480Y328437D01*
X222089Y326339D01*
X224187Y324730D01*
X226629Y323718D01*
X227980Y323541D01*
Y332230D01*
D02*
G37*
G36*
X805000Y339500D02*
X788000D01*
Y322500D01*
X805000D01*
Y339500D01*
D02*
G37*
G36*
X755955Y329730D02*
X747770D01*
Y321545D01*
X748990Y321706D01*
X751311Y322667D01*
X753304Y324196D01*
X754833Y326189D01*
X755794Y328509D01*
X755955Y329730D01*
D02*
G37*
G36*
X745230D02*
X737045D01*
X737206Y328509D01*
X738167Y326189D01*
X739696Y324196D01*
X741689Y322667D01*
X744010Y321706D01*
X745230Y321545D01*
Y329730D01*
D02*
G37*
G36*
X52500Y329562D02*
X50607Y329313D01*
X48844Y328583D01*
X47329Y327421D01*
X46167Y325906D01*
X45437Y324143D01*
X45187Y322250D01*
X45437Y320357D01*
X46167Y318594D01*
X47329Y317079D01*
X48844Y315917D01*
X50607Y315187D01*
X52500Y314937D01*
X54393Y315187D01*
X56156Y315917D01*
X57671Y317079D01*
X58833Y318594D01*
X59563Y320357D01*
X59813Y322250D01*
X59563Y324143D01*
X58833Y325906D01*
X57671Y327421D01*
X56156Y328583D01*
X54393Y329313D01*
X52500Y329562D01*
D02*
G37*
G36*
X32500D02*
X30607Y329313D01*
X28844Y328583D01*
X27329Y327421D01*
X26167Y325906D01*
X25437Y324143D01*
X25187Y322250D01*
X25437Y320357D01*
X26167Y318594D01*
X27329Y317079D01*
X28844Y315917D01*
X30607Y315187D01*
X32500Y314937D01*
X34393Y315187D01*
X36156Y315917D01*
X37671Y317079D01*
X38833Y318594D01*
X39563Y320357D01*
X39813Y322250D01*
X39563Y324143D01*
X38833Y325906D01*
X37671Y327421D01*
X36156Y328583D01*
X34393Y329313D01*
X32500Y329562D01*
D02*
G37*
G36*
X329500Y325098D02*
X327549Y324710D01*
X325895Y323605D01*
X324790Y321951D01*
X324402Y320000D01*
X324790Y318049D01*
X325895Y316395D01*
X327549Y315290D01*
X329500Y314902D01*
X331451Y315290D01*
X333105Y316395D01*
X334210Y318049D01*
X334598Y320000D01*
X334210Y321951D01*
X333105Y323605D01*
X331451Y324710D01*
X329500Y325098D01*
D02*
G37*
G36*
X448500Y323098D02*
X446549Y322710D01*
X444895Y321605D01*
X443790Y319951D01*
X443402Y318000D01*
X443790Y316049D01*
X444895Y314395D01*
X446549Y313290D01*
X448500Y312902D01*
X450451Y313290D01*
X452105Y314395D01*
X453210Y316049D01*
X453598Y318000D01*
X453210Y319951D01*
X452105Y321605D01*
X450451Y322710D01*
X448500Y323098D01*
D02*
G37*
G36*
X299000Y321848D02*
X297049Y321460D01*
X295395Y320355D01*
X294290Y318701D01*
X293902Y316750D01*
X294290Y314799D01*
X295395Y313145D01*
X297049Y312040D01*
X299000Y311652D01*
X300951Y312040D01*
X302605Y313145D01*
X303710Y314799D01*
X304098Y316750D01*
X303710Y318701D01*
X302605Y320355D01*
X300951Y321460D01*
X299000Y321848D01*
D02*
G37*
G36*
X691370Y329749D02*
X676130D01*
X673749Y329435D01*
X671531Y328516D01*
X669625Y327054D01*
X668164Y325149D01*
X667245Y322931D01*
X666931Y320550D01*
X667245Y318169D01*
X668164Y315951D01*
X669625Y314046D01*
X671531Y312584D01*
X673749Y311665D01*
X676130Y311351D01*
X691370D01*
X693751Y311665D01*
X695969Y312584D01*
X697874Y314046D01*
X699336Y315951D01*
X700255Y318169D01*
X700569Y320550D01*
X700255Y322931D01*
X699336Y325149D01*
X697874Y327054D01*
X695969Y328516D01*
X693751Y329435D01*
X691370Y329749D01*
D02*
G37*
G36*
X53770Y310444D02*
Y303520D01*
X60694D01*
X60577Y304414D01*
X59741Y306431D01*
X58412Y308162D01*
X56681Y309491D01*
X54664Y310327D01*
X53770Y310444D01*
D02*
G37*
G36*
X33770D02*
Y303520D01*
X40694D01*
X40577Y304414D01*
X39741Y306431D01*
X38412Y308162D01*
X36681Y309491D01*
X34664Y310327D01*
X33770Y310444D01*
D02*
G37*
G36*
X51230Y310444D02*
X50336Y310327D01*
X48319Y309491D01*
X46588Y308162D01*
X45259Y306431D01*
X44423Y304414D01*
X44306Y303520D01*
X51230D01*
Y310444D01*
D02*
G37*
G36*
X31230D02*
X30336Y310327D01*
X28319Y309491D01*
X26588Y308162D01*
X25259Y306431D01*
X24423Y304414D01*
X24306Y303520D01*
X31230D01*
Y310444D01*
D02*
G37*
G36*
X318257Y311591D02*
X316306Y311203D01*
X314653Y310097D01*
X313547Y308444D01*
X313159Y306493D01*
X313547Y304542D01*
X314653Y302888D01*
X316306Y301783D01*
X318257Y301395D01*
X320208Y301783D01*
X321862Y302888D01*
X322967Y304542D01*
X323355Y306493D01*
X322967Y308444D01*
X321862Y310097D01*
X320208Y311203D01*
X318257Y311591D01*
D02*
G37*
G36*
X85250Y417354D02*
X82117Y416941D01*
X79198Y415732D01*
X76691Y413809D01*
X74768Y411302D01*
X73559Y408383D01*
X73146Y405250D01*
X73559Y402117D01*
X74768Y399198D01*
X76691Y396692D01*
X79198Y394768D01*
X82117Y393559D01*
X85250Y393146D01*
X88383Y393559D01*
X91302Y394768D01*
X93808Y396692D01*
X95732Y399198D01*
X96941Y402117D01*
X97018Y402701D01*
X100444D01*
X196848Y306298D01*
X197675Y305745D01*
X198650Y305551D01*
X220564D01*
X221389Y303561D01*
X222831Y301681D01*
X224711Y300238D01*
X226901Y299332D01*
X229250Y299022D01*
X231600Y299332D01*
X233789Y300238D01*
X235669Y301681D01*
X237111Y303561D01*
X238018Y305751D01*
X238328Y308100D01*
X238018Y310450D01*
X237111Y312639D01*
X235669Y314519D01*
X233789Y315961D01*
X231600Y316868D01*
X229250Y317178D01*
X226901Y316868D01*
X224711Y315961D01*
X222831Y314519D01*
X221389Y312639D01*
X220564Y310649D01*
X199706D01*
X103302Y407052D01*
X102476Y407605D01*
X101500Y407799D01*
X97018D01*
X96941Y408383D01*
X95732Y411302D01*
X93808Y413809D01*
X91302Y415732D01*
X88383Y416941D01*
X85250Y417354D01*
D02*
G37*
G36*
X309882Y303216D02*
X307931Y302827D01*
X306278Y301722D01*
X305172Y300068D01*
X304784Y298118D01*
X305172Y296167D01*
X305759Y295289D01*
X304843Y294373D01*
X303966Y294960D01*
X302015Y295348D01*
X300064Y294960D01*
X298410Y293855D01*
X297305Y292201D01*
X296917Y290250D01*
X297305Y288299D01*
X298410Y286645D01*
X300064Y285540D01*
X302015Y285152D01*
X303966Y285540D01*
X305620Y286645D01*
X306725Y288299D01*
X307113Y290250D01*
X306725Y292201D01*
X306138Y293078D01*
X307054Y293994D01*
X307931Y293408D01*
X309882Y293020D01*
X311833Y293408D01*
X313487Y294513D01*
X314592Y296167D01*
X314980Y298118D01*
X314592Y300068D01*
X313487Y301722D01*
X311833Y302827D01*
X309882Y303216D01*
D02*
G37*
G36*
X51230Y300980D02*
X44306D01*
X44423Y300086D01*
X45259Y298069D01*
X46588Y296338D01*
X48319Y295009D01*
X50336Y294173D01*
X51230Y294056D01*
Y300980D01*
D02*
G37*
G36*
X31230D02*
X24306D01*
X24423Y300086D01*
X25259Y298069D01*
X26588Y296338D01*
X28319Y295009D01*
X30336Y294173D01*
X31230Y294056D01*
Y300980D01*
D02*
G37*
G36*
X60694D02*
X53770D01*
Y294056D01*
X54664Y294173D01*
X56681Y295009D01*
X58412Y296338D01*
X59741Y298069D01*
X60577Y300086D01*
X60694Y300980D01*
D02*
G37*
G36*
X40694D02*
X33770D01*
Y294056D01*
X34664Y294173D01*
X36681Y295009D01*
X38412Y296338D01*
X39741Y298069D01*
X40577Y300086D01*
X40694Y300980D01*
D02*
G37*
G36*
X462500Y303098D02*
X460549Y302710D01*
X458895Y301605D01*
X457790Y299951D01*
X457402Y298000D01*
X457790Y296049D01*
X458895Y294395D01*
X460549Y293290D01*
X462500Y292902D01*
X464451Y293290D01*
X466105Y294395D01*
X467210Y296049D01*
X467598Y298000D01*
X467210Y299951D01*
X466105Y301605D01*
X464451Y302710D01*
X462500Y303098D01*
D02*
G37*
G36*
X407000Y301348D02*
X405049Y300960D01*
X403395Y299855D01*
X402290Y298201D01*
X401902Y296250D01*
X402290Y294299D01*
X403395Y292645D01*
X405049Y291540D01*
X407000Y291152D01*
X408951Y291540D01*
X410605Y292645D01*
X411710Y294299D01*
X412098Y296250D01*
X411710Y298201D01*
X410605Y299855D01*
X408951Y300960D01*
X407000Y301348D01*
D02*
G37*
G36*
X691370Y304349D02*
X676130D01*
X673749Y304035D01*
X671531Y303116D01*
X669625Y301654D01*
X668164Y299749D01*
X667245Y297531D01*
X666931Y295150D01*
X667245Y292769D01*
X668164Y290551D01*
X669625Y288645D01*
X671531Y287184D01*
X673749Y286265D01*
X676130Y285951D01*
X691370D01*
X693751Y286265D01*
X695969Y287184D01*
X697874Y288645D01*
X699336Y290551D01*
X700255Y292769D01*
X700569Y295150D01*
X700255Y297531D01*
X699336Y299749D01*
X697874Y301654D01*
X695969Y303116D01*
X693751Y304035D01*
X691370Y304349D01*
D02*
G37*
G36*
X130500Y291598D02*
X128549Y291210D01*
X126895Y290105D01*
X125790Y288451D01*
X125402Y286500D01*
X125790Y284549D01*
X126895Y282895D01*
X128549Y281790D01*
X130500Y281402D01*
X132451Y281790D01*
X134105Y282895D01*
X135210Y284549D01*
X135598Y286500D01*
X135210Y288451D01*
X134105Y290105D01*
X132451Y291210D01*
X130500Y291598D01*
D02*
G37*
G36*
X501250Y312609D02*
X497844Y312274D01*
X494569Y311280D01*
X491550Y309667D01*
X488905Y307495D01*
X486733Y304850D01*
X485120Y301831D01*
X484126Y298556D01*
X483791Y295150D01*
X484126Y291744D01*
X485120Y288469D01*
X486733Y285450D01*
X488905Y282805D01*
X491550Y280633D01*
X494569Y279020D01*
X497844Y278026D01*
X501250Y277691D01*
X504656Y278026D01*
X507931Y279020D01*
X510950Y280633D01*
X513595Y282805D01*
X515767Y285450D01*
X517380Y288469D01*
X518374Y291744D01*
X518709Y295150D01*
X518374Y298556D01*
X517380Y301831D01*
X515767Y304850D01*
X513595Y307495D01*
X510950Y309667D01*
X507931Y311280D01*
X504656Y312274D01*
X501250Y312609D01*
D02*
G37*
G36*
X52500Y289562D02*
X50607Y289313D01*
X48844Y288583D01*
X47329Y287421D01*
X46167Y285906D01*
X45437Y284143D01*
X45187Y282250D01*
X45437Y280357D01*
X46167Y278594D01*
X47329Y277079D01*
X48844Y275917D01*
X50607Y275187D01*
X52500Y274937D01*
X54393Y275187D01*
X56156Y275917D01*
X57671Y277079D01*
X58833Y278594D01*
X59563Y280357D01*
X59813Y282250D01*
X59563Y284143D01*
X58833Y285906D01*
X57671Y287421D01*
X56156Y288583D01*
X54393Y289313D01*
X52500Y289562D01*
D02*
G37*
G36*
X32500D02*
X30607Y289313D01*
X28844Y288583D01*
X27329Y287421D01*
X26167Y285906D01*
X25437Y284143D01*
X25187Y282250D01*
X25437Y280357D01*
X26167Y278594D01*
X27329Y277079D01*
X28844Y275917D01*
X30607Y275187D01*
X32500Y274937D01*
X34393Y275187D01*
X36156Y275917D01*
X37671Y277079D01*
X38833Y278594D01*
X39563Y280357D01*
X39813Y282250D01*
X39563Y284143D01*
X38833Y285906D01*
X37671Y287421D01*
X36156Y288583D01*
X34393Y289313D01*
X32500Y289562D01*
D02*
G37*
G36*
X371000Y281848D02*
X369049Y281460D01*
X367395Y280355D01*
X366290Y278701D01*
X365902Y276750D01*
X366290Y274799D01*
X367395Y273145D01*
X369049Y272040D01*
X371000Y271652D01*
X372951Y272040D01*
X374605Y273145D01*
X375710Y274799D01*
X376098Y276750D01*
X375710Y278701D01*
X374605Y280355D01*
X372951Y281460D01*
X371000Y281848D01*
D02*
G37*
G36*
X701530Y279910D02*
X685020D01*
Y271020D01*
X701530D01*
Y279910D01*
D02*
G37*
G36*
X682480D02*
X665970D01*
Y271020D01*
X682480D01*
Y279910D01*
D02*
G37*
G36*
X53770Y270444D02*
Y263520D01*
X60694D01*
X60577Y264414D01*
X59741Y266431D01*
X58412Y268162D01*
X56681Y269491D01*
X54664Y270327D01*
X53770Y270444D01*
D02*
G37*
G36*
X33770D02*
Y263520D01*
X40694D01*
X40577Y264414D01*
X39741Y266431D01*
X38412Y268162D01*
X36681Y269491D01*
X34664Y270327D01*
X33770Y270444D01*
D02*
G37*
G36*
X51230Y270444D02*
X50336Y270327D01*
X48319Y269491D01*
X46588Y268162D01*
X45259Y266431D01*
X44423Y264414D01*
X44306Y263520D01*
X51230D01*
Y270444D01*
D02*
G37*
G36*
X31230D02*
X30336Y270327D01*
X28319Y269491D01*
X26588Y268162D01*
X25259Y266431D01*
X24423Y264414D01*
X24306Y263520D01*
X31230D01*
Y270444D01*
D02*
G37*
G36*
X130250Y273348D02*
X128299Y272960D01*
X126645Y271855D01*
X125540Y270201D01*
X125152Y268250D01*
X125540Y266299D01*
X126645Y264645D01*
X128299Y263540D01*
X130250Y263152D01*
X132201Y263540D01*
X133855Y264645D01*
X134960Y266299D01*
X135348Y268250D01*
X134960Y270201D01*
X133855Y271855D01*
X132201Y272960D01*
X130250Y273348D01*
D02*
G37*
G36*
X701530Y268480D02*
X685020D01*
Y259590D01*
X701530D01*
Y268480D01*
D02*
G37*
G36*
X682480D02*
X665970D01*
Y259590D01*
X682480D01*
Y268480D01*
D02*
G37*
G36*
X118250Y267598D02*
X116299Y267210D01*
X114645Y266105D01*
X113540Y264451D01*
X113152Y262500D01*
X113540Y260549D01*
X114645Y258895D01*
X116299Y257790D01*
X118250Y257402D01*
X120201Y257790D01*
X121855Y258895D01*
X122960Y260549D01*
X123348Y262500D01*
X122960Y264451D01*
X121855Y266105D01*
X120201Y267210D01*
X118250Y267598D01*
D02*
G37*
G36*
X381750Y264598D02*
X379799Y264210D01*
X378145Y263105D01*
X377040Y261451D01*
X376652Y259500D01*
X377040Y257549D01*
X378145Y255895D01*
X379799Y254790D01*
X381750Y254402D01*
X383701Y254790D01*
X385355Y255895D01*
X386460Y257549D01*
X386848Y259500D01*
X386460Y261451D01*
X385355Y263105D01*
X383701Y264210D01*
X381750Y264598D01*
D02*
G37*
G36*
X51230Y260980D02*
X44306D01*
X44423Y260086D01*
X45259Y258069D01*
X46588Y256338D01*
X48319Y255009D01*
X50336Y254173D01*
X51230Y254056D01*
Y260980D01*
D02*
G37*
G36*
X31230D02*
X24306D01*
X24423Y260086D01*
X25259Y258069D01*
X26588Y256338D01*
X28319Y255009D01*
X30336Y254173D01*
X31230Y254056D01*
Y260980D01*
D02*
G37*
G36*
X60694D02*
X53770D01*
Y254056D01*
X54664Y254173D01*
X56681Y255009D01*
X58412Y256338D01*
X59741Y258069D01*
X60577Y260086D01*
X60694Y260980D01*
D02*
G37*
G36*
X40694D02*
X33770D01*
Y254056D01*
X34664Y254173D01*
X36681Y255009D01*
X38412Y256338D01*
X39741Y258069D01*
X40577Y260086D01*
X40694Y260980D01*
D02*
G37*
G36*
X357000Y270378D02*
X354650Y270068D01*
X352461Y269161D01*
X350581Y267719D01*
X349138Y265839D01*
X348232Y263650D01*
X347922Y261300D01*
X348232Y258951D01*
X349138Y256761D01*
X350581Y254881D01*
X352461Y253439D01*
X354650Y252532D01*
X357000Y252222D01*
X359350Y252532D01*
X361539Y253439D01*
X363419Y254881D01*
X364861Y256761D01*
X365768Y258951D01*
X366078Y261300D01*
X365768Y263650D01*
X364861Y265839D01*
X363419Y267719D01*
X361539Y269161D01*
X359350Y270068D01*
X357000Y270378D01*
D02*
G37*
G36*
X424500Y269228D02*
X422150Y268918D01*
X419961Y268011D01*
X418081Y266569D01*
X416638Y264689D01*
X415732Y262500D01*
X415422Y260150D01*
X415732Y257801D01*
X416638Y255611D01*
X418081Y253731D01*
X419961Y252288D01*
X422150Y251382D01*
X424500Y251072D01*
X426850Y251382D01*
X429039Y252288D01*
X430919Y253731D01*
X432361Y255611D01*
X433268Y257801D01*
X433578Y260150D01*
X433268Y262500D01*
X432361Y264689D01*
X430919Y266569D01*
X429039Y268011D01*
X426850Y268918D01*
X424500Y269228D01*
D02*
G37*
G36*
X267750Y259598D02*
X265799Y259210D01*
X264145Y258105D01*
X263040Y256451D01*
X262652Y254500D01*
X263040Y252549D01*
X264145Y250895D01*
X265799Y249790D01*
X267750Y249402D01*
X269701Y249790D01*
X271355Y250895D01*
X272460Y252549D01*
X272848Y254500D01*
X272460Y256451D01*
X271355Y258105D01*
X269701Y259210D01*
X267750Y259598D01*
D02*
G37*
G36*
X85250Y317353D02*
X82117Y316941D01*
X79198Y315732D01*
X76691Y313808D01*
X74768Y311302D01*
X73559Y308383D01*
X73146Y305250D01*
X73559Y302117D01*
X74768Y299198D01*
X76691Y296691D01*
X79198Y294768D01*
X82117Y293559D01*
X82701Y293482D01*
Y290306D01*
X63448Y271052D01*
X62895Y270226D01*
X62701Y269250D01*
Y256056D01*
X55500Y248855D01*
X54393Y249313D01*
X52500Y249562D01*
X50607Y249313D01*
X48844Y248583D01*
X47329Y247421D01*
X46167Y245906D01*
X45437Y244143D01*
X45187Y242250D01*
X45437Y240357D01*
X46167Y238594D01*
X47329Y237079D01*
X48844Y235917D01*
X50607Y235187D01*
X52500Y234937D01*
X54393Y235187D01*
X56156Y235917D01*
X57671Y237079D01*
X58833Y238594D01*
X59563Y240357D01*
X59813Y242250D01*
X59563Y244143D01*
X59105Y245250D01*
X67052Y253198D01*
X67605Y254025D01*
X67799Y255000D01*
Y268194D01*
X87052Y287448D01*
X87605Y288274D01*
X87799Y289250D01*
Y293482D01*
X88383Y293559D01*
X91302Y294768D01*
X93808Y296691D01*
X95732Y299198D01*
X96941Y302117D01*
X97354Y305250D01*
X96941Y308383D01*
X95732Y311302D01*
X93808Y313808D01*
X91302Y315732D01*
X88383Y316941D01*
X85250Y317353D01*
D02*
G37*
G36*
X238250Y266300D02*
X220250D01*
Y259947D01*
X220075Y259932D01*
X219738Y259923D01*
X219572Y259849D01*
X137300D01*
X136325Y259655D01*
X135498Y259102D01*
X91769Y215374D01*
X91302Y215732D01*
X88383Y216941D01*
X85250Y217353D01*
X82117Y216941D01*
X79198Y215732D01*
X76691Y213808D01*
X74768Y211302D01*
X73559Y208383D01*
X73146Y205250D01*
X73559Y202117D01*
X74768Y199198D01*
X76691Y196691D01*
X79198Y194768D01*
X82117Y193559D01*
X85250Y193146D01*
X88383Y193559D01*
X91302Y194768D01*
X93808Y196691D01*
X95732Y199198D01*
X96941Y202117D01*
X97354Y205250D01*
X96941Y208383D01*
X95732Y211302D01*
X95374Y211769D01*
X138356Y254751D01*
X219572D01*
X219738Y254677D01*
X220075Y254668D01*
X220250Y254653D01*
Y248300D01*
X238250D01*
Y266300D01*
D02*
G37*
G36*
X97250Y267250D02*
X73250D01*
Y243250D01*
X97250D01*
Y267250D01*
D02*
G37*
G36*
X633000Y247348D02*
X631049Y246960D01*
X629395Y245855D01*
X628290Y244201D01*
X627902Y242250D01*
X628290Y240299D01*
X629395Y238645D01*
X631049Y237540D01*
X633000Y237152D01*
X634951Y237540D01*
X636605Y238645D01*
X637710Y240299D01*
X638098Y242250D01*
X637710Y244201D01*
X636605Y245855D01*
X634951Y246960D01*
X633000Y247348D01*
D02*
G37*
G36*
X32500Y249562D02*
X30607Y249313D01*
X28844Y248583D01*
X27329Y247421D01*
X26167Y245906D01*
X25437Y244143D01*
X25187Y242250D01*
X25437Y240357D01*
X25895Y239250D01*
X16198Y229552D01*
X15645Y228725D01*
X15451Y227750D01*
Y122000D01*
X15645Y121025D01*
X16198Y120198D01*
X32948Y103448D01*
X33775Y102895D01*
X34750Y102701D01*
X73482D01*
X73559Y102117D01*
X74768Y99198D01*
X76691Y96692D01*
X79198Y94768D01*
X82117Y93559D01*
X85250Y93146D01*
X88383Y93559D01*
X91302Y94768D01*
X93808Y96692D01*
X95732Y99198D01*
X96941Y102117D01*
X97354Y105250D01*
X96941Y108383D01*
X95732Y111302D01*
X93808Y113808D01*
X91302Y115732D01*
X88383Y116941D01*
X85250Y117353D01*
X82117Y116941D01*
X79198Y115732D01*
X76691Y113808D01*
X74768Y111302D01*
X73559Y108383D01*
X73482Y107799D01*
X35806D01*
X20549Y123056D01*
Y226694D01*
X29500Y235645D01*
X30607Y235187D01*
X32500Y234937D01*
X34393Y235187D01*
X36156Y235917D01*
X37671Y237079D01*
X38833Y238594D01*
X39563Y240357D01*
X39813Y242250D01*
X39563Y244143D01*
X38833Y245906D01*
X37671Y247421D01*
X36156Y248583D01*
X34393Y249313D01*
X32500Y249562D01*
D02*
G37*
G36*
X260125Y243473D02*
X258174Y243085D01*
X256520Y241980D01*
X255415Y240326D01*
X255027Y238375D01*
X255415Y236424D01*
X256520Y234770D01*
X258174Y233665D01*
X260125Y233277D01*
X262076Y233665D01*
X263730Y234770D01*
X264835Y236424D01*
X265223Y238375D01*
X264835Y240326D01*
X263730Y241980D01*
X262076Y243085D01*
X260125Y243473D01*
D02*
G37*
G36*
X132250Y238098D02*
X130299Y237710D01*
X128645Y236605D01*
X127540Y234951D01*
X127152Y233000D01*
X127540Y231049D01*
X128645Y229395D01*
X130299Y228290D01*
X132250Y227902D01*
X134201Y228290D01*
X135855Y229395D01*
X136960Y231049D01*
X137348Y233000D01*
X136960Y234951D01*
X135855Y236605D01*
X134201Y237710D01*
X132250Y238098D01*
D02*
G37*
G36*
X357000Y244978D02*
X354650Y244668D01*
X352461Y243762D01*
X350581Y242319D01*
X349138Y240439D01*
X348232Y238249D01*
X347922Y235900D01*
X348232Y233550D01*
X349138Y231361D01*
X350581Y229481D01*
X352461Y228039D01*
X354650Y227132D01*
X357000Y226822D01*
X359350Y227132D01*
X361539Y228039D01*
X363419Y229481D01*
X364861Y231361D01*
X365768Y233550D01*
X366078Y235900D01*
X365768Y238249D01*
X364861Y240439D01*
X363419Y242319D01*
X361539Y243762D01*
X359350Y244668D01*
X357000Y244978D01*
D02*
G37*
G36*
X424500Y243828D02*
X422150Y243518D01*
X419961Y242612D01*
X418081Y241169D01*
X416638Y239289D01*
X415732Y237099D01*
X415422Y234750D01*
X415732Y232400D01*
X416638Y230211D01*
X418081Y228331D01*
X419961Y226889D01*
X422150Y225982D01*
X424500Y225672D01*
X426850Y225982D01*
X429039Y226889D01*
X430919Y228331D01*
X432361Y230211D01*
X433268Y232400D01*
X433578Y234750D01*
X433268Y237099D01*
X432361Y239289D01*
X430919Y241169D01*
X429039Y242612D01*
X426850Y243518D01*
X424500Y243828D01*
D02*
G37*
G36*
X252250Y233848D02*
X250299Y233460D01*
X248645Y232355D01*
X247540Y230701D01*
X247152Y228750D01*
X247540Y226799D01*
X248645Y225145D01*
X250299Y224040D01*
X252250Y223652D01*
X254201Y224040D01*
X255855Y225145D01*
X256960Y226799D01*
X257348Y228750D01*
X256960Y230701D01*
X255855Y232355D01*
X254201Y233460D01*
X252250Y233848D01*
D02*
G37*
G36*
X32500Y229562D02*
X30607Y229313D01*
X28844Y228583D01*
X27329Y227421D01*
X26167Y225906D01*
X25437Y224143D01*
X25187Y222250D01*
X25437Y220357D01*
X26167Y218594D01*
X27329Y217079D01*
X28844Y215917D01*
X30607Y215187D01*
X32500Y214937D01*
X34393Y215187D01*
X36156Y215917D01*
X37671Y217079D01*
X38833Y218594D01*
X39563Y220357D01*
X39813Y222250D01*
X39563Y224143D01*
X38833Y225906D01*
X37671Y227421D01*
X36156Y228583D01*
X34393Y229313D01*
X32500Y229562D01*
D02*
G37*
G36*
X207750Y216348D02*
X205799Y215960D01*
X204145Y214855D01*
X203040Y213201D01*
X202652Y211250D01*
X203040Y209299D01*
X204145Y207645D01*
X205799Y206540D01*
X207750Y206152D01*
X209701Y206540D01*
X211355Y207645D01*
X212460Y209299D01*
X212848Y211250D01*
X212460Y213201D01*
X211355Y214855D01*
X209701Y215960D01*
X207750Y216348D01*
D02*
G37*
G36*
X132500Y211848D02*
X130549Y211460D01*
X128895Y210355D01*
X127790Y208701D01*
X127402Y206750D01*
X127790Y204799D01*
X128895Y203145D01*
X130549Y202040D01*
X132500Y201652D01*
X134451Y202040D01*
X136105Y203145D01*
X137210Y204799D01*
X137598Y206750D01*
X137210Y208701D01*
X136105Y210355D01*
X134451Y211460D01*
X132500Y211848D01*
D02*
G37*
G36*
X181750Y207598D02*
X179799Y207210D01*
X178145Y206105D01*
X177040Y204451D01*
X176652Y202500D01*
X177040Y200549D01*
X178145Y198895D01*
X179799Y197790D01*
X181750Y197402D01*
X183701Y197790D01*
X185355Y198895D01*
X186460Y200549D01*
X186848Y202500D01*
X186460Y204451D01*
X185355Y206105D01*
X183701Y207210D01*
X181750Y207598D01*
D02*
G37*
G36*
X52500Y209562D02*
X50607Y209313D01*
X48844Y208583D01*
X47329Y207421D01*
X46167Y205906D01*
X45437Y204143D01*
X45187Y202250D01*
X45437Y200357D01*
X46167Y198594D01*
X47329Y197079D01*
X48844Y195917D01*
X50607Y195187D01*
X52500Y194937D01*
X54393Y195187D01*
X56156Y195917D01*
X57671Y197079D01*
X58833Y198594D01*
X59563Y200357D01*
X59813Y202250D01*
X59563Y204143D01*
X58833Y205906D01*
X57671Y207421D01*
X56156Y208583D01*
X54393Y209313D01*
X52500Y209562D01*
D02*
G37*
G36*
X32500D02*
X30607Y209313D01*
X28844Y208583D01*
X27329Y207421D01*
X26167Y205906D01*
X25437Y204143D01*
X25187Y202250D01*
X25437Y200357D01*
X26167Y198594D01*
X27329Y197079D01*
X28844Y195917D01*
X30607Y195187D01*
X32500Y194937D01*
X34393Y195187D01*
X36156Y195917D01*
X37671Y197079D01*
X38833Y198594D01*
X39563Y200357D01*
X39813Y202250D01*
X39563Y204143D01*
X38833Y205906D01*
X37671Y207421D01*
X36156Y208583D01*
X34393Y209313D01*
X32500Y209562D01*
D02*
G37*
G36*
X263500Y198348D02*
X261549Y197960D01*
X259895Y196855D01*
X258790Y195201D01*
X258402Y193250D01*
X258790Y191299D01*
X259895Y189645D01*
X261549Y188540D01*
X263500Y188152D01*
X265451Y188540D01*
X267105Y189645D01*
X268210Y191299D01*
X268598Y193250D01*
X268210Y195201D01*
X267105Y196855D01*
X265451Y197960D01*
X263500Y198348D01*
D02*
G37*
G36*
X206000Y196598D02*
X204049Y196210D01*
X202395Y195105D01*
X201290Y193451D01*
X200902Y191500D01*
X201290Y189549D01*
X202395Y187895D01*
X204049Y186790D01*
X206000Y186402D01*
X207951Y186790D01*
X209605Y187895D01*
X210710Y189549D01*
X211098Y191500D01*
X210710Y193451D01*
X209605Y195105D01*
X207951Y196210D01*
X206000Y196598D01*
D02*
G37*
G36*
X367040Y195140D02*
X358270D01*
Y186370D01*
X367040D01*
Y195140D01*
D02*
G37*
G36*
X355730D02*
X346960D01*
Y186370D01*
X355730D01*
Y195140D01*
D02*
G37*
G36*
X434540Y193990D02*
X425770D01*
Y185220D01*
X434540D01*
Y193990D01*
D02*
G37*
G36*
X423230D02*
X414460D01*
Y185220D01*
X423230D01*
Y193990D01*
D02*
G37*
G36*
X53770Y190444D02*
Y183520D01*
X60694D01*
X60577Y184414D01*
X59741Y186431D01*
X58412Y188162D01*
X56681Y189491D01*
X54664Y190327D01*
X53770Y190444D01*
D02*
G37*
G36*
X33770D02*
Y183520D01*
X40694D01*
X40577Y184414D01*
X39741Y186431D01*
X38412Y188162D01*
X36681Y189491D01*
X34664Y190327D01*
X33770Y190444D01*
D02*
G37*
G36*
X51230D02*
X50336Y190327D01*
X48319Y189491D01*
X46588Y188162D01*
X45259Y186431D01*
X44423Y184414D01*
X44306Y183520D01*
X51230D01*
Y190444D01*
D02*
G37*
G36*
X31230D02*
X30336Y190327D01*
X28319Y189491D01*
X26588Y188162D01*
X25259Y186431D01*
X24423Y184414D01*
X24306Y183520D01*
X31230D01*
Y190444D01*
D02*
G37*
G36*
X211000Y185848D02*
X209049Y185460D01*
X207395Y184355D01*
X206290Y182701D01*
X205902Y180750D01*
X206290Y178799D01*
X207395Y177145D01*
X209049Y176040D01*
X211000Y175652D01*
X212951Y176040D01*
X214605Y177145D01*
X215710Y178799D01*
X216098Y180750D01*
X215710Y182701D01*
X214605Y184355D01*
X212951Y185460D01*
X211000Y185848D01*
D02*
G37*
G36*
X367040Y183830D02*
X358270D01*
Y175060D01*
X367040D01*
Y183830D01*
D02*
G37*
G36*
X355730D02*
X346960D01*
Y175060D01*
X355730D01*
Y183830D01*
D02*
G37*
G36*
X132750Y184848D02*
X130799Y184460D01*
X129145Y183355D01*
X128040Y181701D01*
X127652Y179750D01*
X128040Y177799D01*
X129145Y176145D01*
X130799Y175040D01*
X132750Y174652D01*
X134701Y175040D01*
X136355Y176145D01*
X137460Y177799D01*
X137848Y179750D01*
X137460Y181701D01*
X136355Y183355D01*
X134701Y184460D01*
X132750Y184848D01*
D02*
G37*
G36*
X60694Y180980D02*
X53770D01*
Y174056D01*
X54664Y174173D01*
X56681Y175009D01*
X58412Y176338D01*
X59741Y178069D01*
X60577Y180086D01*
X60694Y180980D01*
D02*
G37*
G36*
X40694D02*
X33770D01*
Y174056D01*
X34664Y174173D01*
X36681Y175009D01*
X38412Y176338D01*
X39741Y178069D01*
X40577Y180086D01*
X40694Y180980D01*
D02*
G37*
G36*
X51230D02*
X44306D01*
X44423Y180086D01*
X45259Y178069D01*
X46588Y176338D01*
X48319Y175009D01*
X50336Y174173D01*
X51230Y174056D01*
Y180980D01*
D02*
G37*
G36*
X31230D02*
X24306D01*
X24423Y180086D01*
X25259Y178069D01*
X26588Y176338D01*
X28319Y175009D01*
X30336Y174173D01*
X31230Y174056D01*
Y180980D01*
D02*
G37*
G36*
X434540Y182680D02*
X425770D01*
Y173910D01*
X434540D01*
Y182680D01*
D02*
G37*
G36*
X423230D02*
X414460D01*
Y173910D01*
X423230D01*
Y182680D01*
D02*
G37*
G36*
X438520Y163988D02*
Y152020D01*
X450488D01*
X450198Y154219D01*
X448859Y157452D01*
X446729Y160229D01*
X443952Y162359D01*
X440719Y163698D01*
X438520Y163988D01*
D02*
G37*
G36*
X396520D02*
Y152020D01*
X408488D01*
X408198Y154219D01*
X406859Y157452D01*
X404729Y160229D01*
X401952Y162359D01*
X398719Y163698D01*
X396520Y163988D01*
D02*
G37*
G36*
X354520D02*
Y152020D01*
X366488D01*
X366198Y154219D01*
X364859Y157452D01*
X362729Y160229D01*
X359952Y162359D01*
X356719Y163698D01*
X354520Y163988D01*
D02*
G37*
G36*
X393980Y163988D02*
X391781Y163698D01*
X388548Y162359D01*
X385771Y160229D01*
X383641Y157452D01*
X382302Y154219D01*
X382012Y152020D01*
X393980D01*
Y163988D01*
D02*
G37*
G36*
X351980D02*
X349781Y163698D01*
X346548Y162359D01*
X343771Y160229D01*
X341641Y157452D01*
X340302Y154219D01*
X340013Y152020D01*
X351980D01*
Y163988D01*
D02*
G37*
G36*
X435980D02*
X433781Y163698D01*
X430548Y162359D01*
X427771Y160229D01*
X425641Y157452D01*
X424302Y154219D01*
X424012Y152020D01*
X435980D01*
Y163988D01*
D02*
G37*
G36*
X52500Y229562D02*
X50607Y229313D01*
X48844Y228583D01*
X47329Y227421D01*
X46167Y225906D01*
X45437Y224143D01*
X45187Y222250D01*
X45437Y220357D01*
X46167Y218594D01*
X47329Y217079D01*
X48844Y215917D01*
X50607Y215187D01*
X52500Y214937D01*
X54393Y215187D01*
X54616Y215279D01*
X63701Y206194D01*
Y195500D01*
X63895Y194525D01*
X64448Y193698D01*
X82701Y175444D01*
Y167928D01*
X82627Y167762D01*
X82618Y167425D01*
X82603Y167250D01*
X73250D01*
Y143250D01*
X97250D01*
Y167250D01*
X87897D01*
X87882Y167425D01*
X87873Y167762D01*
X87799Y167928D01*
Y176500D01*
X87605Y177475D01*
X87052Y178302D01*
X68799Y196556D01*
Y207250D01*
X68605Y208225D01*
X68052Y209052D01*
X58693Y218412D01*
X58833Y218594D01*
X59563Y220357D01*
X59813Y222250D01*
X59563Y224143D01*
X58833Y225906D01*
X57671Y227421D01*
X56156Y228583D01*
X54393Y229313D01*
X52500Y229562D01*
D02*
G37*
G36*
X236750Y163106D02*
X233552Y162685D01*
X230572Y161450D01*
X228013Y159487D01*
X226050Y156928D01*
X224815Y153948D01*
X224394Y150750D01*
X224815Y147552D01*
X226050Y144572D01*
X228013Y142013D01*
X230572Y140050D01*
X233552Y138815D01*
X236750Y138394D01*
X239948Y138815D01*
X242928Y140050D01*
X245487Y142013D01*
X247450Y144572D01*
X248685Y147552D01*
X249106Y150750D01*
X248685Y153948D01*
X247450Y156928D01*
X245487Y159487D01*
X242928Y161450D01*
X239948Y162685D01*
X236750Y163106D01*
D02*
G37*
G36*
X194750D02*
X191552Y162685D01*
X188572Y161450D01*
X186013Y159487D01*
X184050Y156928D01*
X182815Y153948D01*
X182394Y150750D01*
X182815Y147552D01*
X184050Y144572D01*
X186013Y142013D01*
X188572Y140050D01*
X191552Y138815D01*
X194750Y138394D01*
X197948Y138815D01*
X200928Y140050D01*
X203487Y142013D01*
X205450Y144572D01*
X206685Y147552D01*
X207106Y150750D01*
X206685Y153948D01*
X205450Y156928D01*
X203487Y159487D01*
X200928Y161450D01*
X197948Y162685D01*
X194750Y163106D01*
D02*
G37*
G36*
X152750D02*
X149552Y162685D01*
X146572Y161450D01*
X144013Y159487D01*
X142050Y156928D01*
X140815Y153948D01*
X140394Y150750D01*
X140815Y147552D01*
X142050Y144572D01*
X144013Y142013D01*
X146572Y140050D01*
X149552Y138815D01*
X152750Y138394D01*
X155948Y138815D01*
X158928Y140050D01*
X161487Y142013D01*
X163450Y144572D01*
X164685Y147552D01*
X165106Y150750D01*
X164685Y153948D01*
X163450Y156928D01*
X161487Y159487D01*
X158928Y161450D01*
X155948Y162685D01*
X152750Y163106D01*
D02*
G37*
G36*
X450488Y149480D02*
X438520D01*
Y137513D01*
X440719Y137802D01*
X443952Y139141D01*
X446729Y141271D01*
X448859Y144048D01*
X450198Y147281D01*
X450488Y149480D01*
D02*
G37*
G36*
X408488D02*
X396520D01*
Y137513D01*
X398719Y137802D01*
X401952Y139141D01*
X404729Y141271D01*
X406859Y144048D01*
X408198Y147281D01*
X408488Y149480D01*
D02*
G37*
G36*
X366488D02*
X354520D01*
Y137513D01*
X356719Y137802D01*
X359952Y139141D01*
X362729Y141271D01*
X364859Y144048D01*
X366198Y147281D01*
X366488Y149480D01*
D02*
G37*
G36*
X393980D02*
X382012D01*
X382302Y147281D01*
X383641Y144048D01*
X385771Y141271D01*
X388548Y139141D01*
X391781Y137802D01*
X393980Y137513D01*
Y149480D01*
D02*
G37*
G36*
X351980D02*
X340013D01*
X340302Y147281D01*
X341641Y144048D01*
X343771Y141271D01*
X346548Y139141D01*
X349781Y137802D01*
X351980Y137513D01*
Y149480D01*
D02*
G37*
G36*
X435980D02*
X424012D01*
X424302Y147281D01*
X425641Y144048D01*
X427771Y141271D01*
X430548Y139141D01*
X433781Y137802D01*
X435980Y137513D01*
Y149480D01*
D02*
G37*
G36*
X449500Y108000D02*
X425000D01*
Y83500D01*
X449500D01*
Y108000D01*
D02*
G37*
G36*
X249000Y108000D02*
X224500D01*
Y83500D01*
X249000D01*
Y108000D01*
D02*
G37*
G36*
X395250Y108106D02*
X392052Y107685D01*
X389072Y106450D01*
X386513Y104487D01*
X384550Y101928D01*
X383315Y98948D01*
X382894Y95750D01*
X383315Y92552D01*
X384550Y89572D01*
X386513Y87013D01*
X389072Y85050D01*
X392052Y83815D01*
X395250Y83394D01*
X398448Y83815D01*
X401428Y85050D01*
X403987Y87013D01*
X405950Y89572D01*
X407185Y92552D01*
X407606Y95750D01*
X407185Y98948D01*
X405950Y101928D01*
X403987Y104487D01*
X401428Y106450D01*
X398448Y107685D01*
X395250Y108106D01*
D02*
G37*
G36*
X353250D02*
X350052Y107685D01*
X347072Y106450D01*
X344513Y104487D01*
X342550Y101928D01*
X341315Y98948D01*
X340894Y95750D01*
X341315Y92552D01*
X342550Y89572D01*
X344513Y87013D01*
X347072Y85050D01*
X350052Y83815D01*
X353250Y83394D01*
X356448Y83815D01*
X359428Y85050D01*
X361987Y87013D01*
X363950Y89572D01*
X365185Y92552D01*
X365606Y95750D01*
X365185Y98948D01*
X363950Y101928D01*
X361987Y104487D01*
X359428Y106450D01*
X356448Y107685D01*
X353250Y108106D01*
D02*
G37*
G36*
X194750Y108106D02*
X191552Y107685D01*
X188572Y106450D01*
X186013Y104487D01*
X184050Y101928D01*
X182815Y98948D01*
X182394Y95750D01*
X182815Y92552D01*
X184050Y89572D01*
X186013Y87013D01*
X188572Y85050D01*
X191552Y83815D01*
X194750Y83394D01*
X197948Y83815D01*
X200928Y85050D01*
X203487Y87013D01*
X205450Y89572D01*
X206685Y92552D01*
X207106Y95750D01*
X206685Y98948D01*
X205450Y101928D01*
X203487Y104487D01*
X200928Y106450D01*
X197948Y107685D01*
X194750Y108106D01*
D02*
G37*
G36*
X152750D02*
X149552Y107685D01*
X146572Y106450D01*
X144013Y104487D01*
X142050Y101928D01*
X140815Y98948D01*
X140394Y95750D01*
X140815Y92552D01*
X142050Y89572D01*
X144013Y87013D01*
X146572Y85050D01*
X149552Y83815D01*
X152750Y83394D01*
X155948Y83815D01*
X158928Y85050D01*
X161487Y87013D01*
X163450Y89572D01*
X164685Y92552D01*
X165106Y95750D01*
X164685Y98948D01*
X163450Y101928D01*
X161487Y104487D01*
X158928Y106450D01*
X155948Y107685D01*
X152750Y108106D01*
D02*
G37*
G36*
X684520Y65455D02*
Y57270D01*
X692705D01*
X692544Y58491D01*
X691583Y60811D01*
X690054Y62804D01*
X688061Y64333D01*
X685740Y65294D01*
X684520Y65455D01*
D02*
G37*
G36*
X681980D02*
X680760Y65294D01*
X678439Y64333D01*
X676446Y62804D01*
X674917Y60811D01*
X673956Y58491D01*
X673795Y57270D01*
X681980D01*
Y65455D01*
D02*
G37*
G36*
X98290Y68290D02*
X86520D01*
Y56520D01*
X98290D01*
Y68290D01*
D02*
G37*
G36*
X83980D02*
X72210D01*
Y56520D01*
X83980D01*
Y68290D01*
D02*
G37*
G36*
X692705Y54730D02*
X684520D01*
Y46545D01*
X685740Y46706D01*
X688061Y47667D01*
X690054Y49196D01*
X691583Y51189D01*
X692544Y53510D01*
X692705Y54730D01*
D02*
G37*
G36*
X681980D02*
X673795D01*
X673956Y53510D01*
X674917Y51189D01*
X676446Y49196D01*
X678439Y47667D01*
X680760Y46706D01*
X681980Y46545D01*
Y54730D01*
D02*
G37*
G36*
X332040Y56790D02*
X320270D01*
Y45020D01*
X332040D01*
Y56790D01*
D02*
G37*
G36*
X317730D02*
X305960D01*
Y45020D01*
X317730D01*
Y56790D01*
D02*
G37*
G36*
X98290Y53980D02*
X86520D01*
Y42210D01*
X98290D01*
Y53980D01*
D02*
G37*
G36*
X83980D02*
X72210D01*
Y42210D01*
X83980D01*
Y53980D01*
D02*
G37*
G36*
X269000Y55854D02*
X265867Y55441D01*
X262948Y54232D01*
X260441Y52309D01*
X258518Y49802D01*
X257309Y46883D01*
X256896Y43750D01*
X257309Y40617D01*
X258518Y37698D01*
X260441Y35192D01*
X262948Y33268D01*
X265867Y32059D01*
X269000Y31646D01*
X272133Y32059D01*
X275052Y33268D01*
X277558Y35192D01*
X279482Y37698D01*
X280691Y40617D01*
X281103Y43750D01*
X280691Y46883D01*
X279482Y49802D01*
X277558Y52309D01*
X275052Y54232D01*
X272133Y55441D01*
X269000Y55854D01*
D02*
G37*
G36*
X332040Y42480D02*
X320270D01*
Y30710D01*
X332040D01*
Y42480D01*
D02*
G37*
G36*
X317730D02*
X305960D01*
Y30710D01*
X317730D01*
Y42480D01*
D02*
G37*
G36*
X806770Y51774D02*
Y30520D01*
X828024D01*
X827714Y33669D01*
X826425Y37917D01*
X824332Y41833D01*
X821515Y45265D01*
X818083Y48082D01*
X814167Y50175D01*
X809919Y51464D01*
X806770Y51774D01*
D02*
G37*
G36*
X804230D02*
X801081Y51464D01*
X796833Y50175D01*
X792917Y48082D01*
X789485Y45265D01*
X786668Y41833D01*
X784575Y37917D01*
X783286Y33669D01*
X782976Y30520D01*
X804230D01*
Y51774D01*
D02*
G37*
G36*
X26770D02*
Y30520D01*
X48024D01*
X47714Y33669D01*
X46425Y37917D01*
X44332Y41833D01*
X41515Y45265D01*
X38083Y48082D01*
X34167Y50175D01*
X29919Y51464D01*
X26770Y51774D01*
D02*
G37*
G36*
X828024Y27980D02*
X806770D01*
Y6726D01*
X809919Y7036D01*
X814167Y8325D01*
X818083Y10418D01*
X821515Y13235D01*
X824332Y16667D01*
X826425Y20583D01*
X827714Y24831D01*
X828024Y27980D01*
D02*
G37*
G36*
X804230D02*
X782976D01*
X783286Y24831D01*
X784575Y20583D01*
X786668Y16667D01*
X789485Y13235D01*
X792917Y10418D01*
X796833Y8325D01*
X801081Y7036D01*
X804230Y6726D01*
Y27980D01*
D02*
G37*
G36*
X48024D02*
X26770D01*
Y6726D01*
X29919Y7036D01*
X34167Y8325D01*
X38083Y10418D01*
X41515Y13235D01*
X44332Y16667D01*
X46425Y20583D01*
X47714Y24831D01*
X48024Y27980D01*
D02*
G37*
%LPD*%
G36*
X540500Y119500D02*
X540750Y119396D01*
Y51000D01*
X540500Y50750D01*
X476500D01*
Y119500D01*
X540500D01*
D02*
G37*
G36*
X95709Y357060D02*
X95770Y356890D01*
X95872Y356740D01*
X96014Y356610D01*
X96197Y356500D01*
X96420Y356410D01*
X96684Y356340D01*
X96989Y356290D01*
X97334Y356260D01*
X97719Y356250D01*
Y354250D01*
X97334Y354240D01*
X96989Y354210D01*
X96684Y354160D01*
X96420Y354090D01*
X96197Y354000D01*
X96014Y353890D01*
X95872Y353760D01*
X95770Y353610D01*
X95709Y353440D01*
X95689Y353250D01*
Y357250D01*
X95709Y357060D01*
D02*
G37*
G36*
X221811Y255300D02*
X221791Y255490D01*
X221730Y255660D01*
X221628Y255810D01*
X221486Y255940D01*
X221303Y256050D01*
X221080Y256140D01*
X220816Y256210D01*
X220511Y256260D01*
X220166Y256290D01*
X219781Y256300D01*
Y258300D01*
X220166Y258310D01*
X220511Y258340D01*
X220816Y258390D01*
X221080Y258460D01*
X221303Y258550D01*
X221486Y258660D01*
X221628Y258790D01*
X221730Y258940D01*
X221791Y259110D01*
X221811Y259300D01*
Y255300D01*
D02*
G37*
G36*
X86260Y167334D02*
X86290Y166989D01*
X86340Y166684D01*
X86410Y166420D01*
X86500Y166197D01*
X86610Y166014D01*
X86740Y165872D01*
X86890Y165770D01*
X87060Y165709D01*
X87250Y165689D01*
X83250D01*
X83440Y165709D01*
X83610Y165770D01*
X83760Y165872D01*
X83890Y166014D01*
X84000Y166197D01*
X84090Y166420D01*
X84160Y166684D01*
X84210Y166989D01*
X84240Y167334D01*
X84250Y167719D01*
X86250D01*
X86260Y167334D01*
D02*
G37*
D11*
X18000Y227750D02*
X32500Y242250D01*
X18000Y122000D02*
Y227750D01*
X34750Y105250D02*
X85250D01*
X18000Y122000D02*
X34750Y105250D01*
X262200Y282700D02*
X285750Y306250D01*
X229250Y282700D02*
X262200D01*
X285750Y306250D02*
Y324250D01*
X202800Y282700D02*
X229250D01*
X255000Y289000D02*
Y304750D01*
X287000Y336750D01*
X130250Y355250D02*
X202800Y282700D01*
X85250Y155250D02*
Y176500D01*
X66250Y195500D02*
X85250Y176500D01*
X66250Y195500D02*
Y207250D01*
X52500Y221000D02*
Y222250D01*
Y221000D02*
X66250Y207250D01*
X85250Y205250D02*
X137300Y257300D01*
X229250D01*
X52500Y242250D02*
X65250Y255000D01*
Y269250D01*
X85250Y289250D02*
Y305250D01*
X65250Y269250D02*
X85250Y289250D01*
Y355250D02*
X130250D01*
X198650Y308100D02*
X229250D01*
X101500Y405250D02*
X198650Y308100D01*
X85250Y405250D02*
X101500D01*
D12*
X782900Y544250D02*
X784000Y543150D01*
X768750Y544250D02*
X782900D01*
X759250Y553750D02*
Y618500D01*
Y553750D02*
X768750Y544250D01*
D13*
X177850Y782150D02*
X698100D01*
X143112Y796562D02*
X163438D01*
X177850Y782150D01*
X141400Y794850D02*
X143112Y796562D01*
X138744Y807750D02*
X198250D01*
X116000Y785006D02*
X138744Y807750D01*
X116000Y782150D02*
Y785006D01*
X211150Y794850D02*
X723500D01*
X198250Y807750D02*
X211150Y794850D01*
X447750Y848250D02*
X486000Y810000D01*
X447750Y848250D02*
Y860000D01*
X491230Y815355D02*
X502770D01*
X486000Y810125D02*
X491230Y815355D01*
X502770D02*
X504145Y816730D01*
X486000Y810000D02*
Y810125D01*
X504145Y816730D02*
X514535D01*
X491230Y820395D02*
X500682D01*
X485750Y825750D02*
X485875D01*
X491230Y820395D01*
X500682D02*
X502057Y821770D01*
X514535D01*
X516000Y823234D02*
Y828750D01*
X514535Y821770D02*
X516000Y823234D01*
X514535Y816730D02*
X516000Y815266D01*
Y809750D02*
Y815266D01*
D44*
X424500Y183950D02*
D03*
X357000Y185100D02*
D03*
X229250Y403950D02*
D03*
Y257300D02*
D03*
X571000Y611900D02*
D03*
D108*
X545500Y819250D02*
X550000D01*
X583750Y853000D01*
X669750D01*
X115300Y808250D02*
X116000Y807550D01*
X22000Y711000D02*
Y866000D01*
X817500Y752000D02*
Y866000D01*
Y711000D02*
Y752000D01*
D110*
X754500Y693500D02*
Y808534D01*
X506250Y68250D02*
X621000D01*
X503000Y65000D02*
X506250Y68250D01*
X621000D02*
X661750Y27500D01*
X511250Y88500D02*
X515250Y84500D01*
X511250Y88500D02*
Y103500D01*
Y180000D01*
X505250Y72000D02*
Y73250D01*
X515250Y72000D02*
Y73250D01*
X505250D02*
Y84500D01*
X515250Y64500D02*
Y72000D01*
Y73250D02*
Y84500D01*
X514500Y63750D02*
X515250Y64500D01*
X357000Y210500D02*
X423350D01*
X86000Y768466D02*
Y877034D01*
X661750Y27500D02*
X717250D01*
X97716Y888750D02*
X702500D01*
X97716Y756750D02*
X116000D01*
X723500Y820250D02*
X742784D01*
X824250Y134500D02*
Y623750D01*
X86000Y768466D02*
X97716Y756750D01*
X742784Y820250D02*
X754500Y808534D01*
X742784Y820250D02*
Y848466D01*
X717250Y27500D02*
X824250Y134500D01*
X481900Y209350D02*
X511250Y180000D01*
X116000Y756750D02*
X116000Y756750D01*
X424500Y209350D02*
X481900D01*
X702500Y888750D02*
X742784Y848466D01*
X754500Y693500D02*
X824250Y623750D01*
X86000Y877034D02*
X97716Y888750D01*
X423350Y210500D02*
X424500Y209350D01*
D112*
X57750Y666500D02*
D03*
X605000Y654000D02*
D03*
X805500Y29250D02*
D03*
X25500D02*
D03*
D113*
X22000Y711000D02*
D03*
Y866000D02*
D03*
X817500D02*
D03*
Y711000D02*
D03*
D114*
X141400Y744050D02*
D03*
X116000Y756750D02*
D03*
X141400Y769450D02*
D03*
X116000Y782150D02*
D03*
X141400Y794850D02*
D03*
X116000Y807550D02*
D03*
X141400Y820250D02*
D03*
X698100Y832950D02*
D03*
X723500Y820250D02*
D03*
X698100Y807550D02*
D03*
X723500Y794850D02*
D03*
X698100Y782150D02*
D03*
X723500Y769450D02*
D03*
X698100Y756750D02*
D03*
D115*
X116000Y832950D02*
D03*
X723500Y744050D02*
D03*
D116*
X52500Y731350D02*
D03*
Y845650D02*
D03*
X787000D02*
D03*
Y731350D02*
D03*
D117*
X75000Y588150D02*
D03*
Y473850D02*
D03*
D118*
X105500Y453550D02*
D03*
Y608450D02*
D03*
D119*
X26000Y490150D02*
D03*
Y464750D02*
D03*
Y571850D02*
D03*
Y597250D02*
D03*
D120*
X163900Y486600D02*
D03*
X138500Y499300D02*
D03*
X163900Y512000D02*
D03*
X138500Y524700D02*
D03*
X163900Y537400D02*
D03*
X138500Y550100D02*
D03*
X163900Y562800D02*
D03*
D121*
X138500Y575500D02*
D03*
D122*
X683750Y269750D02*
D03*
D123*
Y295150D02*
D03*
Y320550D02*
D03*
D124*
X501250Y295150D02*
D03*
D125*
X424500Y209350D02*
D03*
Y234750D02*
D03*
Y260150D02*
D03*
X357000Y210500D02*
D03*
Y235900D02*
D03*
Y261300D02*
D03*
X229250Y480150D02*
D03*
Y454750D02*
D03*
Y429350D02*
D03*
Y333500D02*
D03*
Y308100D02*
D03*
Y282700D02*
D03*
X571000Y586500D02*
D03*
Y561100D02*
D03*
Y535700D02*
D03*
Y510300D02*
D03*
X496600Y699250D02*
D03*
X522000D02*
D03*
X547400D02*
D03*
D126*
X746500Y331000D02*
D03*
X691000Y407250D02*
D03*
X683250Y56000D02*
D03*
D127*
X796500Y331000D02*
D03*
X641000Y407250D02*
D03*
X633250Y56000D02*
D03*
D128*
X269000Y43750D02*
D03*
X85250Y405250D02*
D03*
Y305250D02*
D03*
Y205250D02*
D03*
Y105250D02*
D03*
D129*
X319000Y43750D02*
D03*
D130*
X152750Y150750D02*
D03*
Y95750D02*
D03*
X194750Y150750D02*
D03*
Y95750D02*
D03*
X236750Y150750D02*
D03*
X353250Y150750D02*
D03*
Y95750D02*
D03*
X395250Y150750D02*
D03*
Y95750D02*
D03*
X437250Y150750D02*
D03*
D131*
X236750Y95750D02*
D03*
X437250Y95750D02*
D03*
D132*
X85250Y355250D02*
D03*
Y255250D02*
D03*
Y155250D02*
D03*
Y55250D02*
D03*
D133*
X784000Y441550D02*
D03*
X341400Y859750D02*
D03*
D134*
X784000Y466950D02*
D03*
Y517750D02*
D03*
Y543150D02*
D03*
Y568550D02*
D03*
Y593950D02*
D03*
X290600Y859750D02*
D03*
X316000D02*
D03*
D135*
X32500Y342250D02*
D03*
Y322250D02*
D03*
X52500D02*
D03*
X32500Y302250D02*
D03*
X52500D02*
D03*
X32500Y282250D02*
D03*
X52500D02*
D03*
X32500Y262250D02*
D03*
X52500D02*
D03*
X32500Y242250D02*
D03*
X52500D02*
D03*
X32500Y222250D02*
D03*
X52500D02*
D03*
X32500Y202250D02*
D03*
X52500D02*
D03*
X32500Y182250D02*
D03*
X52500D02*
D03*
D136*
Y342250D02*
D03*
D137*
X572800Y699250D02*
D03*
D138*
X669750Y853000D02*
D03*
X515250Y65000D02*
D03*
X489500D02*
D03*
X515250Y73250D02*
D03*
X506667D02*
D03*
X489500D02*
D03*
X498083D02*
D03*
Y65000D02*
D03*
X506667D02*
D03*
X131500Y629072D02*
D03*
X255000Y289000D02*
D03*
X279000Y313250D02*
D03*
X223750Y528250D02*
D03*
X759250Y618500D02*
D03*
X726000Y396500D02*
D03*
X633000Y242250D02*
D03*
X190000Y428250D02*
D03*
X339750Y585500D02*
D03*
X319250Y615750D02*
D03*
X333500Y609750D02*
D03*
X288250Y561250D02*
D03*
X319000Y587750D02*
D03*
X239000Y614250D02*
D03*
X255000Y643250D02*
D03*
X279250Y645250D02*
D03*
X207500Y643750D02*
D03*
X156375Y646500D02*
D03*
X240000Y627250D02*
D03*
X226500D02*
D03*
X509500Y545000D02*
D03*
X462500Y298000D02*
D03*
X381750Y259500D02*
D03*
X317250Y549500D02*
D03*
X268250Y404500D02*
D03*
X329500Y320000D02*
D03*
X302015Y290250D02*
D03*
X309882Y298118D02*
D03*
X318257Y306493D02*
D03*
X266000Y277000D02*
D03*
X263500Y193250D02*
D03*
X132750Y179750D02*
D03*
X132500Y206750D02*
D03*
X132250Y233000D02*
D03*
X118250Y262500D02*
D03*
X130500Y286500D02*
D03*
X503000Y678750D02*
D03*
X401500Y767250D02*
D03*
X397500Y712750D02*
D03*
X426000Y580000D02*
D03*
X452000Y567500D02*
D03*
X455000Y713500D02*
D03*
X432000Y555000D02*
D03*
X438750Y563250D02*
D03*
X454500Y806250D02*
D03*
X447750Y860000D02*
D03*
X679250Y653000D02*
D03*
X720000Y652500D02*
D03*
X485750Y825750D02*
D03*
X486000Y810000D02*
D03*
X515500Y755500D02*
D03*
X502500Y757000D02*
D03*
X185250Y624750D02*
D03*
X359250Y558515D02*
D03*
X400500Y523500D02*
D03*
X216250Y659500D02*
D03*
X224750Y654472D02*
D03*
X214500Y650000D02*
D03*
X362250Y520750D02*
D03*
X238750Y563750D02*
D03*
X138250Y670250D02*
D03*
X241750Y649000D02*
D03*
X198000Y597500D02*
D03*
X280000Y482250D02*
D03*
X278000Y472250D02*
D03*
X282000Y494500D02*
D03*
X206500Y377750D02*
D03*
X216500Y378750D02*
D03*
X299000Y316750D02*
D03*
X321500Y500250D02*
D03*
X364000Y427000D02*
D03*
X354000Y497000D02*
D03*
X194500Y617750D02*
D03*
X197250Y607500D02*
D03*
X322500Y452000D02*
D03*
X693500Y477000D02*
D03*
X694250Y456500D02*
D03*
X717750Y475500D02*
D03*
X645000Y476250D02*
D03*
X524500Y416500D02*
D03*
X582500Y421000D02*
D03*
X356500Y442500D02*
D03*
X253750Y369250D02*
D03*
Y342250D02*
D03*
X285750Y324250D02*
D03*
X407000Y296250D02*
D03*
X461000Y472000D02*
D03*
X371000Y276750D02*
D03*
X458000Y489000D02*
D03*
X211000Y180750D02*
D03*
X448250Y481500D02*
D03*
X206000Y191500D02*
D03*
X267750Y254500D02*
D03*
X252250Y228750D02*
D03*
X260125Y238375D02*
D03*
X444500Y344250D02*
D03*
X450500Y329250D02*
D03*
X448500Y318000D02*
D03*
X433000Y364250D02*
D03*
X509000Y506000D02*
D03*
X438271Y356267D02*
D03*
X443000Y417750D02*
D03*
X471750Y409000D02*
D03*
X461750Y416250D02*
D03*
X331000Y373000D02*
D03*
X339750Y384250D02*
D03*
X284250Y349000D02*
D03*
X207750Y211250D02*
D03*
X370000Y368250D02*
D03*
X385250Y401500D02*
D03*
X375250Y401250D02*
D03*
X365250Y401000D02*
D03*
X181750Y202500D02*
D03*
X395250Y401500D02*
D03*
X284500Y367750D02*
D03*
X310000Y380500D02*
D03*
X449500Y410000D02*
D03*
X407721Y370702D02*
D03*
X287000Y336750D02*
D03*
X130250Y268250D02*
D03*
X380250Y368250D02*
D03*
X390750D02*
D03*
X399750Y367750D02*
D03*
X370250Y347000D02*
D03*
X509750Y514467D02*
D03*
X452750Y363750D02*
D03*
X491250Y355000D02*
D03*
D139*
X516000Y809750D02*
D03*
D140*
Y828750D02*
D03*
X545500Y819250D02*
D03*
M02*
